<svg height="1200" width="1200"
xmlns="http://www.w3.org/2000/svg" xmlns:svg="http://www.w3.org/2000/svg" xmlns:xlink="http://www.w3.org/1999/xlink"><style>    <!-- constant styles start -->    .twentyfourrows {      font: bold 60px sans-serif;    }    .fortyeightrows {      font: bold 30px sans-serif;    }    .eightyrows {      font: bold 14px sans-serif;    }    .blackcolor {      fill: #000000;      stroke: #000000;    }    .whitecolor {      fill: #fafafa;      stroke: #fafafa;    }    .blacklinecolor {      fill: none;      stroke: #000000;    }    .whitelinecolor {      fill: none;      stroke: #fafafa;    }  <!-- 1:1 colors -->    .blackstrokes {      stroke: #000000;      stroke-width:40;      stroke-linecap:round;    }    .whitestrokes {      stroke: #fafafa;      stroke-width:40;      stroke-linecap:round;    }    .darkstrokes {      stroke: #404040;      stroke-width:40;      stroke-linecap:round;    }    .mediumstrokes {      stroke: #808080;      stroke-width:30;      stroke-linecap:round;    }    .lightstrokes {      stroke: #c4c4c4;      stroke-width:20;      stroke-linecap:round;    }    .backgroundfill {      fill: #000000;    }    .backgroundcolor {      fill: none;      stroke: #808080;    }    .circlecolor {      fill: none;      stroke: #808080;      stroke-width:2;      stroke-miterlimit:10;    }    .skullcolor {      fill: none;       stroke: #fafafa;    }    .highlightcolor{        fill: none;        stroke: #fafafa;        stroke-width: 2;    }    .finalcolor{      fill: #010101;      stroke: #fafafa;      stroke-width: 1;    }<!-- 2:0 defs1 --></style><g class="blackstrokes"><path opacity="0.33" d="M370 660 532 822"/><path opacity="0.33" d="M380 652 380 721"/><path opacity="0.33" d="M385 648 367 666"/><path opacity="0.33" d="M390 644 549 803"/><path opacity="0.33" d="M395 436 395 461"/><path opacity="0.33" d="M400 429 399 430"/><path opacity="0.33" d="M400 635 558 793"/><path opacity="0.33" d="M410 417 410 486"/><path opacity="0.33" d="M420 404 419 405"/><path opacity="0.33" d="M425 630 567 772"/><path opacity="0.33" d="M435 386 435 483"/><path opacity="0.33" d="M435 633 374 694"/><path opacity="0.33" d="M440 379 658 597"/><path opacity="0.33" d="M440 634 440 878"/><path opacity="0.33" d="M450 367 447 370"/><path opacity="0.33" d="M455 361 640 546"/><path opacity="0.33" d="M465 348 465 480"/><path opacity="0.33" d="M465 642 381 726"/><path opacity="0.33" d="M470 343 638 511"/><path opacity="0.33" d="M470 644 470 886"/><path opacity="0.33" d="M475 645 384 736"/><path opacity="0.33" d="M480 336 649 505"/><path opacity="0.33" d="M485 333 485 478"/><path opacity="0.33" d="M485 648 387 746"/><path opacity="0.33" d="M490 330 659 499"/><path opacity="0.33" d="M500 323 500 487"/><path opacity="0.33" d="M500 644 390 754"/><path opacity="0.33" d="M510 316 680 486"/><path opacity="0.33" d="M515 313 515 497"/><path opacity="0.33" d="M520 309 399 430"/><path opacity="0.33" d="M520 635 609 724"/><path opacity="0.33" d="M530 630 530 824"/><path opacity="0.33" d="M535 299 388 446"/><path opacity="0.33" d="M540 296 723 479"/><path opacity="0.33" d="M545 293 545 517"/><path opacity="0.33" d="M545 603 544 604"/><path opacity="0.33" d="M550 289 738 477"/><path opacity="0.33" d="M550 591 550 719"/><path opacity="0.33" d="M555 289 391 453"/><path opacity="0.33" d="M560 289 746 475"/><path opacity="0.33" d="M560 741 560 787"/><path opacity="0.33" d="M565 290 394 461"/><path opacity="0.33" d="M565 749 566 750"/><path opacity="0.33" d="M570 290 570 717"/><path opacity="0.33" d="M575 291 398 468"/><path opacity="0.33" d="M590 292 770 472"/><path opacity="0.33" d="M595 293 595 720"/><path opacity="0.33" d="M605 294 413 486"/><path opacity="0.33" d="M610 295 776 461"/><path opacity="0.33" d="M615 295 615 726"/><path opacity="0.33" d="M620 296 433 483"/><path opacity="0.33" d="M625 297 780 452"/><path opacity="0.33" d="M630 297 630 731"/><path opacity="0.33" d="M635 298 452 481"/><path opacity="0.33" d="M640 547 641 548"/><path opacity="0.33" d="M645 299 645 506"/><path opacity="0.33" d="M650 300 471 479"/><path opacity="0.33" d="M650 586 651 587"/><path opacity="0.33" d="M655 300 655 501"/><path opacity="0.33" d="M660 301 483 478"/><path opacity="0.33" d="M670 615 672 617"/><path opacity="0.33" d="M680 629 680 804"/><path opacity="0.33" d="M685 630 595 720"/><path opacity="0.33" d="M690 309 784 403"/><path opacity="0.33" d="M695 311 695 484"/><path opacity="0.33" d="M695 630 602 723"/><path opacity="0.33" d="M700 313 783 396"/><path opacity="0.33" d="M705 315 705 482"/><path opacity="0.33" d="M710 316 523 503"/><path opacity="0.33" d="M715 318 782 385"/><path opacity="0.33" d="M725 322 725 479"/><path opacity="0.33" d="M740 626 634 732"/><path opacity="0.33" d="M745 625 826 706"/><path opacity="0.33" d="M750 338 750 475"/><path opacity="0.33" d="M755 623 643 735"/><path opacity="0.33" d="M760 622 830 692"/><path opacity="0.33" d="M770 620 770 873"/><path opacity="0.33" d="M775 374 640 509"/><path opacity="0.33" d="M775 619 832 676"/><path opacity="0.33" d="M780 381 780 451"/><path opacity="0.33" d="M780 618 642 756"/><path opacity="0.33" d="M785 617 833 665"/><path opacity="0.33" d="M790 617 790 806"/><path opacity="0.33" d="M800 626 634 792"/><path opacity="0.33" d="M805 630 834 659"/><path opacity="0.33" d="M810 635 810 747"/><path opacity="0.33" d="M820 643 664 799"/></g></svg>