<svg height="1200" width="1200"
xmlns="http://www.w3.org/2000/svg" xmlns:svg="http://www.w3.org/2000/svg" xmlns:xlink="http://www.w3.org/1999/xlink"><style>    <!-- constant styles start -->    .twentyfourrows {      font: bold 60px sans-serif;    }    .fortyeightrows {      font: bold 30px sans-serif;    }    .eightyrows {      font: bold 14px sans-serif;    }    .blackcolor {      fill: #000000;      stroke: #000000;    }    .whitecolor {      fill: #fafafa;      stroke: #fafafa;    }    .blacklinecolor {      fill: none;      stroke: #000000;    }    .whitelinecolor {      fill: none;      stroke: #fafafa;    }  <!-- 1:1 colors -->    .blackstrokes {      stroke: #000000;      stroke-width:40;      stroke-linecap:round;    }    .whitestrokes {      stroke: #fafafa;      stroke-width:40;      stroke-linecap:round;    }    .darkstrokes {      stroke: #404040;      stroke-width:40;      stroke-linecap:round;    }    .mediumstrokes {      stroke: #808080;      stroke-width:30;      stroke-linecap:round;    }    .lightstrokes {      stroke: #c4c4c4;      stroke-width:20;      stroke-linecap:round;    }    .backgroundfill {      fill: #000000;    }    .backgroundcolor {      fill: none;      stroke: #808080;    }    .circlecolor {      fill: none;      stroke: #808080;      stroke-width:2;      stroke-miterlimit:10;    }    .skullcolor {      fill: none;       stroke: #fafafa;    }    .highlightcolor{        fill: none;        stroke: #fafafa;        stroke-width: 2;    }    .finalcolor{      fill: #010101;      stroke: #fafafa;      stroke-width: 1;    }<!-- 2:0 defs1 --></style><g class="mediumstrokes"><path opacity="0.33" d="M456 391 524 459"/><path opacity="0.33" d="M474 375 474 461"/><path opacity="0.33" d="M480 370 441 409"/><path opacity="0.33" d="M492 359 591 458"/><path opacity="0.33" d="M498 354 498 460"/><path opacity="0.33" d="M522 354 439 437"/><path opacity="0.33" d="M528 354 636 462"/><path opacity="0.33" d="M534 354 534 458"/><path opacity="0.33" d="M540 354 441 453"/><path opacity="0.33" d="M546 354 656 464"/><path opacity="0.33" d="M570 354 570 457"/><path opacity="0.33" d="M576 355 470 461"/><path opacity="0.33" d="M582 367 583 368"/><path opacity="0.33" d="M588 380 588 458"/><path opacity="0.33" d="M600 386 527 459"/><path opacity="0.33" d="M618 373 704 459"/><path opacity="0.33" d="M624 362 624 461"/><path opacity="0.33" d="M636 350 623 363"/><path opacity="0.33" d="M648 346 752 450"/><path opacity="0.33" d="M654 345 654 464"/><path opacity="0.33" d="M660 343 545 458"/><path opacity="0.33" d="M666 341 757 432"/><path opacity="0.33" d="M690 342 690 462"/><path opacity="0.33" d="M696 343 582 457"/><path opacity="0.33" d="M714 344 767 397"/><path opacity="0.33" d="M762 388 762 415"/><path opacity="0.33" d="M582 513 617 548"/><path opacity="0.33" d="M618 551 618 600"/><path opacity="0.33" d="M624 584 599 609"/><path opacity="0.33" d="M408 683 526 801"/><path opacity="0.33" d="M414 682 414 738"/><path opacity="0.33" d="M420 680 402 698"/><path opacity="0.33" d="M426 679 535 788"/><path opacity="0.33" d="M438 676 438 764"/><path opacity="0.33" d="M450 672 402 720"/><path opacity="0.33" d="M456 671 529 744"/><path opacity="0.33" d="M474 666 474 854"/><path opacity="0.33" d="M480 667 412 735"/><path opacity="0.33" d="M486 669 514 697"/><path opacity="0.33" d="M498 673 498 832"/><path opacity="0.33" d="M510 677 430 757"/><path opacity="0.33" d="M516 725 517 726"/><path opacity="0.33" d="M534 752 534 788"/><path opacity="0.33" d="M540 761 444 857"/><path opacity="0.33" d="M684 674 785 775"/><path opacity="0.33" d="M702 660 702 779"/><path opacity="0.33" d="M726 648 680 694"/><path opacity="0.33" d="M738 648 804 714"/><path opacity="0.33" d="M750 648 750 813"/><path opacity="0.33" d="M756 648 682 722"/><path opacity="0.33" d="M768 648 811 691"/><path opacity="0.33" d="M780 651 780 782"/><path opacity="0.33" d="M792 666 694 764"/><path opacity="0.33" d="M798 674 800 676"/><path opacity="0.33" d="M570 622 604 656"/><path opacity="0.33" d="M582 623 582 674"/><path opacity="0.33" d="M588 630 556 662"/><path opacity="0.33" d="M594 636 600 642"/><path opacity="0.33" d="M600 643 600 672"/><path opacity="0.33" d="M600 934 625 959"/><path opacity="0.33" d="M612 916 612 954"/><path opacity="0.33" d="M624 913 596 941"/><path opacity="0.33" d="M636 913 649 926"/><path opacity="0.33" d="M642 916 642 950"/></g></svg>