<svg height="1200" width="1200"
xmlns="http://www.w3.org/2000/svg" xmlns:svg="http://www.w3.org/2000/svg" xmlns:xlink="http://www.w3.org/1999/xlink"><style>    <!-- constant styles start -->    .twentyfourrows {      font: bold 60px sans-serif;    }    .fortyeightrows {      font: bold 30px sans-serif;    }    .eightyrows {      font: bold 14px sans-serif;    }    .blackcolor {      fill: #000000;      stroke: #000000;    }    .whitecolor {      fill: #fafafa;      stroke: #fafafa;    }    .blacklinecolor {      fill: none;      stroke: #000000;    }    .whitelinecolor {      fill: none;      stroke: #fafafa;    }  <!-- 1:1 colors -->    .blackstrokes {      stroke: #000000;      stroke-width:40;      stroke-linecap:round;    }    .whitestrokes {      stroke: #fafafa;      stroke-width:40;      stroke-linecap:round;    }    .darkstrokes {      stroke: #404040;      stroke-width:40;      stroke-linecap:round;    }    .mediumstrokes {      stroke: #808080;      stroke-width:30;      stroke-linecap:round;    }    .lightstrokes {      stroke: #c4c4c4;      stroke-width:20;      stroke-linecap:round;    }    .backgroundfill {      fill: #000000;    }    .backgroundcolor {      fill: none;      stroke: #808080;    }    .circlecolor {      fill: none;      stroke: #808080;      stroke-width:2;      stroke-miterlimit:10;    }    .skullcolor {      fill: none;       stroke: #fafafa;    }    .highlightcolor{        fill: none;        stroke: #fafafa;        stroke-width: 2;    }    .finalcolor{      fill: #010101;      stroke: #fafafa;      stroke-width: 1;    }<!-- 2:0 defs1 --></style><g class="lightstrokes"><path opacity="0.33" d="M708 679 781 752"/><path opacity="0.33" d="M714 670 714 769"/><path opacity="0.33" d="M732 664 705 691"/><path opacity="0.33" d="M744 668 789 713"/><path opacity="0.33" d="M750 670 750 788"/><path opacity="0.33" d="M768 677 706 739"/><path opacity="0.33" d="M774 679 784 689"/><path opacity="0.33" d="M786 702 786 743"/><path opacity="0.33" d="M450 801 481 832"/><path opacity="0.33" d="M456 794 456 846"/><path opacity="0.33" d="M462 787 458 791"/><path opacity="0.33" d="M474 759 519 804"/><path opacity="0.33" d="M486 748 486 828"/><path opacity="0.33" d="M492 746 472 766"/><path opacity="0.33" d="M504 369 575 440"/><path opacity="0.33" d="M540 368 540 443"/><path opacity="0.33" d="M546 368 480 434"/><path opacity="0.33" d="M552 373 589 410"/><path opacity="0.33" d="M558 378 558 444"/><path opacity="0.33" d="M564 383 507 440"/><path opacity="0.33" d="M576 393 589 406"/><path opacity="0.33" d="M588 403 588 412"/><path opacity="0.33" d="M648 383 706 441"/><path opacity="0.33" d="M654 380 654 419"/><path opacity="0.33" d="M660 376 646 390"/><path opacity="0.33" d="M666 373 730 437"/><path opacity="0.33" d="M672 370 672 434"/><path opacity="0.33" d="M678 366 644 400"/><path opacity="0.33" d="M684 363 743 422"/><path opacity="0.33" d="M702 353 702 442"/><path opacity="0.33" d="M714 356 652 418"/><path opacity="0.33" d="M720 358 743 381"/><path opacity="0.33" d="M732 367 732 437"/><path opacity="0.33" d="M738 372 674 436"/><path opacity="0.33" d="M744 390 745 391"/></g></svg>