<svg height="1200" width="1200"
xmlns="http://www.w3.org/2000/svg" xmlns:svg="http://www.w3.org/2000/svg" xmlns:xlink="http://www.w3.org/1999/xlink"><style>    <!-- constant styles start -->    .twentyfourrows {      font: bold 60px sans-serif;    }    .fortyeightrows {      font: bold 30px sans-serif;    }    .eightyrows {      font: bold 14px sans-serif;    }    .blackcolor {      fill: #000000;      stroke: #000000;    }    .whitecolor {      fill: #fafafa;      stroke: #fafafa;    }    .blacklinecolor {      fill: none;      stroke: #000000;    }    .whitelinecolor {      fill: none;      stroke: #fafafa;    }  <!-- 1:1 colors -->    .blackstrokes {      stroke: #000000;      stroke-width:40;      stroke-linecap:round;    }    .whitestrokes {      stroke: #fafafa;      stroke-width:40;      stroke-linecap:round;    }    .darkstrokes {      stroke: #404040;      stroke-width:40;      stroke-linecap:round;    }    .mediumstrokes {      stroke: #808080;      stroke-width:30;      stroke-linecap:round;    }    .lightstrokes {      stroke: #c4c4c4;      stroke-width:20;      stroke-linecap:round;    }    .backgroundfill {      fill: #000000;    }    .backgroundcolor {      fill: none;      stroke: #808080;    }    .circlecolor {      fill: none;      stroke: #808080;      stroke-width:2;      stroke-miterlimit:10;    }    .skullcolor {      fill: none;       stroke: #fafafa;    }    .highlightcolor{        fill: none;        stroke: #fafafa;        stroke-width: 2;    }    .finalcolor{      fill: #010101;      stroke: #fafafa;      stroke-width: 1;    }<!-- 2:0 defs1 --></style><g class="blackstrokes"><path opacity="0.5" d="M744 313 827 396"/><path opacity="0.5" d="M756 297 756 411"/><path opacity="0.5" d="M774 289 743 320"/><path opacity="0.5" d="M780 286 833 339"/><path opacity="0.5" d="M786 283 786 418"/><path opacity="0.5" d="M798 277 742 333"/><path opacity="0.5" d="M816 268 838 290"/><path opacity="0.5" d="M822 266 822 426"/><path opacity="0.5" d="M828 263 740 351"/><path opacity="0.5" d="M840 257 841 258"/><path opacity="0.5" d="M342 532 481 671"/><path opacity="0.5" d="M354 523 354 639"/><path opacity="0.5" d="M366 514 335 545"/><path opacity="0.5" d="M372 509 524 661"/><path opacity="0.5" d="M378 505 378 661"/><path opacity="0.5" d="M384 500 335 549"/><path opacity="0.5" d="M414 494 551 631"/><path opacity="0.5" d="M426 494 426 674"/><path opacity="0.5" d="M432 494 335 591"/><path opacity="0.5" d="M438 494 557 613"/><path opacity="0.5" d="M444 494 444 674"/><path opacity="0.5" d="M462 495 344 613"/><path opacity="0.5" d="M468 497 564 593"/><path opacity="0.5" d="M474 498 474 672"/><path opacity="0.5" d="M480 500 350 630"/><path opacity="0.5" d="M486 501 567 582"/><path opacity="0.5" d="M498 504 498 668"/><path opacity="0.5" d="M534 512 382 664"/><path opacity="0.5" d="M546 515 554 523"/><path opacity="0.5" d="M558 534 558 609"/><path opacity="0.5" d="M630 549 765 684"/><path opacity="0.5" d="M636 538 636 615"/><path opacity="0.5" d="M648 516 647 517"/><path opacity="0.5" d="M654 510 819 675"/><path opacity="0.5" d="M666 508 666 654"/><path opacity="0.5" d="M684 504 628 560"/><path opacity="0.5" d="M702 501 844 643"/><path opacity="0.5" d="M708 500 708 683"/><path opacity="0.5" d="M726 496 628 594"/><path opacity="0.5" d="M738 494 856 612"/><path opacity="0.5" d="M804 497 804 677"/><path opacity="0.5" d="M816 505 666 655"/><path opacity="0.5" d="M828 513 860 545"/><path opacity="0.5" d="M840 521 840 648"/><path opacity="0.5" d="M846 525 695 676"/><path opacity="0.5" d="M600 529 614 543"/><path opacity="0.5" d="M606 529 606 556"/><path opacity="0.5" d="M666 944 702 980"/><path opacity="0.5" d="M678 929 678 1001"/><path opacity="0.5" d="M684 922 680 926"/><path opacity="0.5" d="M690 694 825 829"/><path opacity="0.5" d="M702 695 702 708"/><path opacity="0.5" d="M702 899 700 901"/><path opacity="0.5" d="M708 696 827 815"/><path opacity="0.5" d="M714 697 714 720"/><path opacity="0.5" d="M714 886 712 888"/><path opacity="0.5" d="M720 698 828 806"/><path opacity="0.5" d="M720 880 720 960"/><path opacity="0.5" d="M726 873 723 876"/><path opacity="0.5" d="M732 699 830 797"/><path opacity="0.5" d="M732 867 732 945"/><path opacity="0.5" d="M738 700 716 722"/><path opacity="0.5" d="M750 699 832 781"/><path opacity="0.5" d="M756 698 756 916"/><path opacity="0.5" d="M774 695 731 738"/><path opacity="0.5" d="M780 694 803 717"/><path opacity="0.5" d="M792 691 792 886"/><path opacity="0.5" d="M798 690 734 754"/><path opacity="0.5" d="M810 687 817 694"/><path opacity="0.5" d="M810 736 810 859"/><path opacity="0.5" d="M816 686 734 768"/><path opacity="0.5" d="M828 737 839 748"/><path opacity="0.5" d="M834 737 834 763"/><path opacity="0.5" d="M360 737 443 820"/><path opacity="0.5" d="M366 734 366 806"/><path opacity="0.5" d="M372 735 352 755"/><path opacity="0.5" d="M378 690 419 731"/><path opacity="0.5" d="M378 738 378 850"/><path opacity="0.5" d="M384 686 376 694"/><path opacity="0.5" d="M390 688 461 759"/><path opacity="0.5" d="M390 744 390 866"/><path opacity="0.5" d="M396 690 377 709"/><path opacity="0.5" d="M408 695 461 748"/><path opacity="0.5" d="M408 744 408 880"/><path opacity="0.5" d="M414 697 393 718"/><path opacity="0.5" d="M420 733 461 774"/><path opacity="0.5" d="M444 823 444 913"/><path opacity="0.5" d="M450 697 417 730"/><path opacity="0.5" d="M462 858 463 859"/><path opacity="0.5" d="M468 870 468 946"/><path opacity="0.5" d="M474 878 442 910"/><path opacity="0.5" d="M480 692 499 711"/><path opacity="0.5" d="M480 886 480 963"/><path opacity="0.5" d="M486 894 453 927"/><path opacity="0.5" d="M492 902 494 904"/><path opacity="0.5" d="M498 910 498 983"/><path opacity="0.5" d="M504 688 466 726"/><path opacity="0.5" d="M504 918 507 921"/><path opacity="0.5" d="M516 686 516 691"/><path opacity="0.5" d="M534 750 592 808"/><path opacity="0.5" d="M546 742 546 771"/><path opacity="0.5" d="M558 734 532 760"/><path opacity="0.5" d="M564 733 624 793"/><path opacity="0.5" d="M570 733 570 799"/><path opacity="0.5" d="M588 734 549 773"/><path opacity="0.5" d="M594 735 639 780"/><path opacity="0.5" d="M606 736 606 808"/><path opacity="0.5" d="M618 737 564 791"/><path opacity="0.5" d="M630 739 655 764"/><path opacity="0.5" d="M636 740 636 782"/><path opacity="0.5" d="M648 742 582 808"/><path opacity="0.5" d="M498 842 512 856"/><path opacity="0.5" d="M510 840 510 856"/><path opacity="0.5" d="M522 838 503 857"/><path opacity="0.5" d="M528 837 541 850"/><path opacity="0.5" d="M534 836 534 852"/><path opacity="0.5" d="M552 833 533 852"/><path opacity="0.5" d="M558 833 569 844"/><path opacity="0.5" d="M582 830 582 842"/><path opacity="0.5" d="M588 830 575 843"/><path opacity="0.5" d="M594 829 607 842"/><path opacity="0.5" d="M600 828 600 842"/><path opacity="0.5" d="M612 828 598 842"/><path opacity="0.5" d="M618 828 637 847"/><path opacity="0.5" d="M624 828 624 844"/><path opacity="0.5" d="M636 828 621 843"/><path opacity="0.5" d="M654 833 675 854"/><path opacity="0.5" d="M666 836 666 853"/><path opacity="0.5" d="M678 840 665 853"/><path opacity="0.5" d="M690 843 704 857"/><path opacity="0.5" d="M696 845 696 857"/><path opacity="0.5" d="M702 847 693 856"/><path opacity="0.5" d="M546 884 576 914"/><path opacity="0.5" d="M564 884 564 908"/><path opacity="0.5" d="M576 884 557 903"/><path opacity="0.5" d="M588 884 619 915"/><path opacity="0.5" d="M594 884 594 924"/><path opacity="0.5" d="M600 884 572 912"/><path opacity="0.5" d="M606 884 630 908"/><path opacity="0.5" d="M612 884 612 918"/><path opacity="0.5" d="M624 884 587 921"/><path opacity="0.5" d="M630 884 644 898"/><path opacity="0.5" d="M636 884 636 904"/><path opacity="0.5" d="M648 888 624 912"/><path opacity="0.5" d="M576 970 640 1034"/><path opacity="0.5" d="M588 962 588 1034"/><path opacity="0.5" d="M600 962 573 989"/><path opacity="0.5" d="M618 1009 643 1034"/><path opacity="0.5" d="M648 1004 648 1034"/><path opacity="0.5" d="M654 1009 629 1034"/></g></svg>