<svg height="1200" width="1200"
xmlns="http://www.w3.org/2000/svg" xmlns:svg="http://www.w3.org/2000/svg" xmlns:xlink="http://www.w3.org/1999/xlink"><style>    <!-- constant styles start -->    .twentyfourrows {      font: bold 60px sans-serif;    }    .fortyeightrows {      font: bold 30px sans-serif;    }    .eightyrows {      font: bold 14px sans-serif;    }    .blackcolor {      fill: #000000;      stroke: #000000;    }    .whitecolor {      fill: #fafafa;      stroke: #fafafa;    }    .blacklinecolor {      fill: none;      stroke: #000000;    }    .whitelinecolor {      fill: none;      stroke: #fafafa;    }  <!-- 1:1 colors -->    .blackstrokes {      stroke: #000000;      stroke-width:40;      stroke-linecap:round;    }    .whitestrokes {      stroke: #fafafa;      stroke-width:40;      stroke-linecap:round;    }    .darkstrokes {      stroke: #404040;      stroke-width:40;      stroke-linecap:round;    }    .mediumstrokes {      stroke: #808080;      stroke-width:30;      stroke-linecap:round;    }    .lightstrokes {      stroke: #c4c4c4;      stroke-width:20;      stroke-linecap:round;    }    .backgroundfill {      fill: #000000;    }    .backgroundcolor {      fill: none;      stroke: #808080;    }    .circlecolor {      fill: none;      stroke: #808080;      stroke-width:2;      stroke-miterlimit:10;    }    .skullcolor {      fill: none;       stroke: #fafafa;    }    .highlightcolor{        fill: none;        stroke: #fafafa;        stroke-width: 2;    }    .finalcolor{      fill: #010101;      stroke: #fafafa;      stroke-width: 1;    }<!-- 2:0 defs1 --></style><g class="lightstrokes"><path opacity="0.2" d="M306 310 369 373"/><path opacity="0.2" d="M312 294 312 496"/><path opacity="0.2" d="M324 288 307 305"/><path opacity="0.2" d="M330 289 361 320"/><path opacity="0.2" d="M336 291 336 511"/><path opacity="0.2" d="M342 293 295 340"/><path opacity="0.2" d="M348 294 359 305"/><path opacity="0.2" d="M378 418 378 481"/><path opacity="0.2" d="M420 413 317 516"/><path opacity="0.2" d="M438 410 520 492"/><path opacity="0.2" d="M444 410 444 477"/><path opacity="0.2" d="M462 407 388 481"/><path opacity="0.2" d="M468 312 652 496"/><path opacity="0.2" d="M474 306 474 483"/><path opacity="0.2" d="M492 290 460 322"/><path opacity="0.2" d="M498 284 698 484"/><path opacity="0.2" d="M516 267 516 492"/><path opacity="0.2" d="M522 261 460 323"/><path opacity="0.2" d="M528 260 750 482"/><path opacity="0.2" d="M540 260 540 497"/><path opacity="0.2" d="M546 259 462 343"/><path opacity="0.2" d="M552 259 774 481"/><path opacity="0.2" d="M570 258 570 507"/><path opacity="0.2" d="M582 257 465 374"/><path opacity="0.2" d="M606 256 735 385"/><path opacity="0.2" d="M630 255 630 503"/><path opacity="0.2" d="M648 254 424 478"/><path opacity="0.2" d="M660 257 739 336"/><path opacity="0.2" d="M666 261 666 491"/><path opacity="0.2" d="M678 269 466 481"/><path opacity="0.2" d="M684 273 738 327"/><path opacity="0.2" d="M690 277 690 484"/><path opacity="0.2" d="M702 284 498 488"/><path opacity="0.2" d="M714 292 734 312"/><path opacity="0.2" d="M720 296 720 483"/><path opacity="0.2" d="M732 304 539 497"/><path opacity="0.2" d="M756 408 863 515"/><path opacity="0.2" d="M768 411 768 481"/><path opacity="0.2" d="M774 413 703 484"/><path opacity="0.2" d="M786 417 871 502"/><path opacity="0.2" d="M792 419 792 480"/><path opacity="0.2" d="M804 422 744 482"/><path opacity="0.2" d="M822 428 880 486"/><path opacity="0.2" d="M828 379 828 500"/><path opacity="0.2" d="M834 312 831 315"/><path opacity="0.2" d="M846 304 898 356"/><path opacity="0.2" d="M870 287 870 502"/><path opacity="0.2" d="M882 298 829 351"/><path opacity="0.2" d="M888 316 889 317"/><path opacity="0.2" d="M894 334 894 396"/><path opacity="0.2" d="M528 711 546 729"/><path opacity="0.2" d="M570 607 570 725"/><path opacity="0.2" d="M576 577 575 578"/><path opacity="0.2" d="M606 555 607 556"/><path opacity="0.2" d="M618 579 618 728"/><path opacity="0.2" d="M630 619 527 722"/><path opacity="0.2" d="M642 661 643 662"/><path opacity="0.2" d="M648 681 648 728"/><path opacity="0.2" d="M654 698 624 728"/><path opacity="0.2" d="M624 794 654 824"/><path opacity="0.2" d="M648 783 648 822"/><path opacity="0.2" d="M654 780 626 808"/><path opacity="0.2" d="M666 763 707 804"/><path opacity="0.2" d="M678 745 678 824"/><path opacity="0.2" d="M684 736 683 737"/><path opacity="0.2" d="M480 759 547 826"/><path opacity="0.2" d="M492 744 492 820"/><path opacity="0.2" d="M504 735 478 761"/><path opacity="0.2" d="M516 740 525 749"/><path opacity="0.2" d="M522 742 522 832"/><path opacity="0.2" d="M528 777 487 818"/><path opacity="0.2" d="M534 783 563 812"/><path opacity="0.2" d="M540 789 540 828"/><path opacity="0.2" d="M558 803 531 830"/><path opacity="0.2" d="M564 807 566 809"/><path opacity="0.2" d="M570 852 591 873"/><path opacity="0.2" d="M582 854 582 873"/><path opacity="0.2" d="M588 855 572 871"/><path opacity="0.2" d="M594 856 611 873"/><path opacity="0.2" d="M600 857 600 873"/><path opacity="0.2" d="M606 857 590 873"/><path opacity="0.2" d="M630 858 640 868"/><path opacity="0.2" d="M636 859 636 869"/><path opacity="0.2" d="M642 861 633 870"/><path opacity="0.2" d="M648 862 651 865"/><path opacity="0.2" d="M540 927 577 964"/><path opacity="0.2" d="M552 924 552 979"/><path opacity="0.2" d="M558 923 534 947"/><path opacity="0.2" d="M564 921 601 958"/><path opacity="0.2" d="M576 920 576 968"/><path opacity="0.2" d="M582 920 537 965"/><path opacity="0.2" d="M606 920 662 976"/><path opacity="0.2" d="M612 920 612 958"/><path opacity="0.2" d="M618 920 580 958"/><path opacity="0.2" d="M624 920 662 958"/><path opacity="0.2" d="M630 921 630 977"/><path opacity="0.2" d="M636 922 600 958"/><path opacity="0.2" d="M642 924 662 944"/><path opacity="0.2" d="M648 925 648 977"/><path opacity="0.2" d="M654 927 617 964"/><path opacity="0.2" d="M660 928 662 930"/><path opacity="0.2" d="M318 567 334 583"/><path opacity="0.2" d="M324 569 324 689"/><path opacity="0.2" d="M330 571 310 591"/><path opacity="0.2" d="M354 659 355 660"/><path opacity="0.2" d="M360 682 360 766"/><path opacity="0.2" d="M360 773 341 792"/><path opacity="0.2" d="M372 709 373 710"/><path opacity="0.2" d="M372 840 372 876"/><path opacity="0.2" d="M390 867 375 882"/><path opacity="0.2" d="M396 872 458 934"/><path opacity="0.2" d="M408 883 408 923"/><path opacity="0.2" d="M414 889 395 908"/><path opacity="0.2" d="M432 901 458 927"/><path opacity="0.2" d="M438 903 438 960"/><path opacity="0.2" d="M444 904 415 933"/><path opacity="0.2" d="M486 984 488 986"/><path opacity="0.2" d="M720 956 734 970"/><path opacity="0.2" d="M732 902 732 971"/><path opacity="0.2" d="M738 900 729 909"/><path opacity="0.2" d="M744 897 779 932"/><path opacity="0.2" d="M750 895 750 956"/><path opacity="0.2" d="M762 891 728 925"/><path opacity="0.2" d="M768 890 795 917"/><path opacity="0.2" d="M810 839 810 889"/><path opacity="0.2" d="M822 704 821 705"/><path opacity="0.2" d="M840 660 871 691"/><path opacity="0.2" d="M852 637 852 779"/><path opacity="0.2" d="M858 625 857 626"/><path opacity="0.2" d="M864 574 883 593"/><path opacity="0.2" d="M876 560 876 662"/></g></svg>