<svg height="1200" width="1200"
xmlns="http://www.w3.org/2000/svg" xmlns:svg="http://www.w3.org/2000/svg" xmlns:xlink="http://www.w3.org/1999/xlink"><style>    <!-- constant styles start -->    .twentyfourrows {      font: bold 60px sans-serif;    }    .fortyeightrows {      font: bold 30px sans-serif;    }    .eightyrows {      font: bold 14px sans-serif;    }    .blackcolor {      fill: #000000;      stroke: #000000;    }    .whitecolor {      fill: #fafafa;      stroke: #fafafa;    }    .blacklinecolor {      fill: none;      stroke: #000000;    }    .whitelinecolor {      fill: none;      stroke: #fafafa;    }  <!-- 1:1 colors -->    .blackstrokes {      stroke: #000000;      stroke-width:40;      stroke-linecap:round;    }    .whitestrokes {      stroke: #fafafa;      stroke-width:40;      stroke-linecap:round;    }    .darkstrokes {      stroke: #404040;      stroke-width:40;      stroke-linecap:round;    }    .mediumstrokes {      stroke: #808080;      stroke-width:30;      stroke-linecap:round;    }    .lightstrokes {      stroke: #c4c4c4;      stroke-width:20;      stroke-linecap:round;    }    .backgroundfill {      fill: #000000;    }    .backgroundcolor {      fill: none;      stroke: #808080;    }    .circlecolor {      fill: none;      stroke: #808080;      stroke-width:2;      stroke-miterlimit:10;    }    .skullcolor {      fill: none;       stroke: #fafafa;    }    .highlightcolor{        fill: none;        stroke: #fafafa;        stroke-width: 2;    }    .finalcolor{      fill: #010101;      stroke: #fafafa;      stroke-width: 1;    }<!-- 2:0 defs1 --></style><!-- 15:3 circles -->      <g class="circlecolor"><path d="m400.4,646.6c-18.4,0-33.3-35.9-33.3-80.2s14.9-80.2,33.3-80.2"/><path d="m790.9,486.3c18.4,0,33.3,35.9,33.3,80.2s-14.9,80.2-33.3,80.2"/><line x1="400.4" y1="486" x2="790.9" y2="486"/><line x1="400.4" y1="646.6" x2="790.9" y2="646.6"/><path d="m433.4,436.4c-15.3,0-27.7-27.9-27.7-62.4s12.4-62.4,27.7-62.4"/><path d="m758.8,311.6c15.3,0,27.7,27.9,27.7,62.4s-12.4,62.4-27.7,62.4"/><line x1="433.4" y1="311.6" x2="758.8" y2="311.6"/><line x1="433.4" y1="436.4" x2="758.8" y2="436.4"/><path d="m433.4,821.4c-15.3,0-27.7-27.9-27.7-62.4s12.4-62.4,27.7-62.4"/><path d="m758.8,696.6c15.3,0,27.7,27.9,27.7,62.4s-12.4,62.4-27.7,62.4"/><line x1="433.4" y1="696.6" x2="758.8" y2="696.6"/><line x1="433.4" y1="821.4" x2="758.8" y2="821.4"/><path d="m474,943.9c-11.5,0-20.8-16.2-20.8-36.3s9.3-36.3,20.8-36.3"/><path d="m718.2,871.4c11.5,0,20.8,16.2,20.8,36.3s-9.3,36.3-20.8,36.3"/><line x1="474" y1="871.4" x2="718.2" y2="871.4"/><line x1="474" y1="943.9" x2="718.2" y2="943.9"/><path d="m473.5,261.6c-11.5,0-20.8-16.2-20.8-36.3s9.3-36.3,20.8-36.3"/><path d="m717.8,189.1c11.5,0,20.8,16.2,20.8,36.3s-9.3,36.3-20.8,36.3"/><line x1="473.5" y1="189.1" x2="717.8" y2="189.1"/><line x1="473.5" y1="261.6" x2="717.8" y2="261.6"/><path d="m526.3,245.4c-6.5,0-11.8-9-11.8-20s5.3-20,11.8-20"/><path d="m665.1,205.4c6.5,0,11.8,9,11.8,20s-5.3,20-11.8,20"/><line x1="526.3" y1="205.4" x2="665.1" y2="205.4"/><line x1="526.3" y1="245.4" x2="665.1" y2="245.4"/><path d="m526.7,927.7c-6.5,0-11.8-9-11.8-20s5.3-20,11.8-20"/><path d="m665.5,887.6c6.5,0,11.8,9,11.8,20s-5.3,20-11.8,20"/><line x1="526.7" y1="887.6" x2="665.5" y2="887.6"/><line x1="526.7" y1="927.7" x2="665.5" y2="927.7"/><path d="m474,797.7c-11.5,0-20.8-16.2-20.8-36.3s9.3-36.3,20.8-36.3"/><path d="m718.2,725.2c11.5,0,20.8,16.2,20.8,36.3s-9.3,36.3-20.8,36.3"/><line x1="474" y1="725.2" x2="718.2" y2="725.2"/><line x1="474" y1="797.7" x2="718.2" y2="797.7"/><path d="m473.5,410.3c-11.5,0-20.8-16.2-20.8-36.3s9.3-36.3,20.8-36.3"/><path d="m717.8,337.8c11.5,0,20.8,16.2,20.8,36.3s-9.3,36.3-20.8,36.3"/><line x1="473.5" y1="337.8" x2="717.8" y2="337.8"/><line x1="473.5" y1="410.3" x2="717.8" y2="410.3"/><path d="m438.7,626.9c-14.8,0-26.8-26.5-26.8-59.1s12-59.1,26.8-59.1"/><path d="m752.6,508.6c14.8,0,26.8,26.5,26.8,59.1s-12,59.1-26.8,59.1"/><line x1="438.7" y1="508.6" x2="752.6" y2="508.6"/><line x1="438.7" y1="626.9" x2="752.6" y2="626.9"/></g></svg>