<svg height="1200" width="1200"
xmlns="http://www.w3.org/2000/svg" xmlns:svg="http://www.w3.org/2000/svg" xmlns:xlink="http://www.w3.org/1999/xlink"><style>    <!-- constant styles start -->    .twentyfourrows {      font: bold 60px sans-serif;    }    .fortyeightrows {      font: bold 30px sans-serif;    }    .eightyrows {      font: bold 14px sans-serif;    }    .blackcolor {      fill: #000000;      stroke: #000000;    }    .whitecolor {      fill: #fafafa;      stroke: #fafafa;    }    .blacklinecolor {      fill: none;      stroke: #000000;    }    .whitelinecolor {      fill: none;      stroke: #fafafa;    }  <!-- 1:1 colors -->    .blackstrokes {      stroke: #000000;      stroke-width:40;      stroke-linecap:round;    }    .whitestrokes {      stroke: #fafafa;      stroke-width:40;      stroke-linecap:round;    }    .darkstrokes {      stroke: #404040;      stroke-width:40;      stroke-linecap:round;    }    .mediumstrokes {      stroke: #808080;      stroke-width:30;      stroke-linecap:round;    }    .lightstrokes {      stroke: #c4c4c4;      stroke-width:20;      stroke-linecap:round;    }    .backgroundfill {      fill: #000000;    }    .backgroundcolor {      fill: none;      stroke: #808080;    }    .circlecolor {      fill: none;      stroke: #808080;      stroke-width:2;      stroke-miterlimit:10;    }    .skullcolor {      fill: none;       stroke: #fafafa;    }    .highlightcolor{        fill: none;        stroke: #fafafa;        stroke-width: 2;    }    .finalcolor{      fill: #010101;      stroke: #fafafa;      stroke-width: 1;    }<!-- 2:0 defs1 --></style><g class="mediumstrokes"><path opacity="0.2" d="M294 593 680 979"/><path opacity="0.2" d="M300 567 300 646"/><path opacity="0.2" d="M318 396 317 397"/><path opacity="0.2" d="M318 542 719 943"/><path opacity="0.2" d="M330 368 330 713"/><path opacity="0.2" d="M342 340 341 341"/><path opacity="0.2" d="M348 325 821 798"/><path opacity="0.2" d="M372 318 372 780"/><path opacity="0.2" d="M384 312 330 366"/><path opacity="0.2" d="M390 306 837 753"/><path opacity="0.2" d="M414 283 414 884"/><path opacity="0.2" d="M426 279 324 381"/><path opacity="0.2" d="M438 321 440 323"/><path opacity="0.2" d="M450 337 450 913"/><path opacity="0.2" d="M468 351 319 500"/><path opacity="0.2" d="M486 359 855 728"/><path opacity="0.2" d="M492 362 492 945"/><path opacity="0.2" d="M522 370 292 600"/><path opacity="0.2" d="M534 371 556 393"/><path opacity="0.2" d="M540 372 540 982"/><path opacity="0.2" d="M546 372 291 627"/><path opacity="0.2" d="M552 385 553 386"/><path opacity="0.2" d="M570 440 570 986"/><path opacity="0.2" d="M576 447 324 699"/><path opacity="0.2" d="M594 461 858 725"/><path opacity="0.2" d="M612 461 612 992"/><path opacity="0.2" d="M618 459 342 735"/><path opacity="0.2" d="M642 385 898 641"/><path opacity="0.2" d="M654 380 654 987"/><path opacity="0.2" d="M672 371 637 406"/><path opacity="0.2" d="M678 369 906 597"/><path opacity="0.2" d="M684 366 684 975"/><path opacity="0.2" d="M714 354 634 434"/><path opacity="0.2" d="M732 343 872 483"/><path opacity="0.2" d="M750 329 750 911"/><path opacity="0.2" d="M768 312 767 313"/><path opacity="0.2" d="M774 284 800 310"/><path opacity="0.2" d="M780 284 780 877"/><path opacity="0.2" d="M786 284 770 300"/><path opacity="0.2" d="M792 290 793 291"/><path opacity="0.2" d="M798 305 798 857"/><path opacity="0.2" d="M804 321 364 761"/><path opacity="0.2" d="M828 323 842 337"/><path opacity="0.2" d="M834 323 834 761"/><path opacity="0.2" d="M852 363 390 825"/><path opacity="0.2" d="M858 378 859 379"/><path opacity="0.2" d="M876 541 876 699"/><path opacity="0.2" d="M882 543 485 940"/><path opacity="0.2" d="M894 548 896 550"/><path opacity="0.2" d="M900 568 900 627"/></g></svg>