<svg height="1200" width="1200" 
xmlns="http://www.w3.org/2000/svg" xmlns:svg="http://www.w3.org/2000/svg" xmlns:xlink="http://www.w3.org/1999/xlink"> 
<g style="stroke:#000000;stroke-width:0.5;fill:none">
<path d="M 568.0,418.0 568.0,428.0 570.0,428.0 570.0,430.0 576.0,430.0 576.0,428.0 578.0,428.0 578.0,418.0 576.0,418.0 576.0,416.0 570.0,416.0 570.0,428.0 576.0,428.0 576.0,418.0 568.0,418.0 z"/>
<path d="M 588.0,416.0 588.0,418.0 590.0,418.0 590.0,428.0 588.0,428.0 588.0,430.0 594.0,430.0 594.0,428.0 592.0,428.0 592.0,416.0 588.0,416.0 z"/>
<path d="M 564.0,434.0 564.0,444.0 566.0,444.0 566.0,446.0 572.0,446.0 572.0,444.0 574.0,444.0 574.0,434.0 572.0,434.0 572.0,432.0 566.0,432.0 566.0,444.0 572.0,444.0 572.0,434.0 564.0,434.0 z"/>
<path d="M 576.0,434.0 576.0,444.0 578.0,444.0 578.0,446.0 584.0,446.0 584.0,444.0 586.0,444.0 586.0,434.0 584.0,434.0 584.0,432.0 578.0,432.0 578.0,444.0 584.0,444.0 584.0,434.0 576.0,434.0 z"/>
<path d="M 588.0,432.0 588.0,434.0 590.0,434.0 590.0,444.0 588.0,444.0 588.0,446.0 594.0,446.0 594.0,444.0 592.0,444.0 592.0,432.0 588.0,432.0 z"/>
<path d="M 596.0,434.0 596.0,444.0 598.0,444.0 598.0,446.0 604.0,446.0 604.0,444.0 606.0,444.0 606.0,434.0 604.0,434.0 604.0,432.0 598.0,432.0 598.0,444.0 604.0,444.0 604.0,434.0 596.0,434.0 z"/>
<path d="M 608.0,434.0 608.0,444.0 610.0,444.0 610.0,446.0 616.0,446.0 616.0,444.0 618.0,444.0 618.0,434.0 616.0,434.0 616.0,432.0 610.0,432.0 610.0,444.0 616.0,444.0 616.0,434.0 608.0,434.0 z"/>
<path d="M 620.0,434.0 620.0,444.0 622.0,444.0 622.0,446.0 628.0,446.0 628.0,444.0 630.0,444.0 630.0,434.0 628.0,434.0 628.0,432.0 622.0,432.0 622.0,444.0 628.0,444.0 628.0,434.0 620.0,434.0 z"/>
<path d="M 568.0,450.0 568.0,460.0 570.0,460.0 570.0,462.0 576.0,462.0 576.0,460.0 578.0,460.0 578.0,450.0 576.0,450.0 576.0,448.0 570.0,448.0 570.0,460.0 576.0,460.0 576.0,450.0 568.0,450.0 z"/>
<path d="M 580.0,450.0 580.0,460.0 582.0,460.0 582.0,462.0 588.0,462.0 588.0,460.0 590.0,460.0 590.0,450.0 588.0,450.0 588.0,448.0 582.0,448.0 582.0,460.0 588.0,460.0 588.0,450.0 580.0,450.0 z"/>
<path d="M 592.0,448.0 592.0,450.0 594.0,450.0 594.0,460.0 592.0,460.0 592.0,462.0 598.0,462.0 598.0,460.0 596.0,460.0 596.0,448.0 592.0,448.0 z"/>
<path d="M 600.0,450.0 600.0,460.0 602.0,460.0 602.0,462.0 608.0,462.0 608.0,460.0 610.0,460.0 610.0,450.0 608.0,450.0 608.0,448.0 602.0,448.0 602.0,460.0 608.0,460.0 608.0,450.0 600.0,450.0 z"/>
<path d="M 612.0,448.0 612.0,450.0 614.0,450.0 614.0,460.0 612.0,460.0 612.0,462.0 618.0,462.0 618.0,460.0 616.0,460.0 616.0,448.0 612.0,448.0 z"/>
<path d="M 620.0,450.0 620.0,460.0 622.0,460.0 622.0,462.0 628.0,462.0 628.0,460.0 630.0,460.0 630.0,450.0 628.0,450.0 628.0,448.0 622.0,448.0 622.0,460.0 628.0,460.0 628.0,450.0 620.0,450.0 z"/>
<path d="M 632.0,448.0 632.0,450.0 634.0,450.0 634.0,460.0 632.0,460.0 632.0,462.0 638.0,462.0 638.0,460.0 636.0,460.0 636.0,448.0 632.0,448.0 z"/>
<path d="M 564.0,464.0 564.0,466.0 566.0,466.0 566.0,476.0 564.0,476.0 564.0,478.0 570.0,478.0 570.0,476.0 568.0,476.0 568.0,464.0 564.0,464.0 z"/>
<path d="M 572.0,466.0 572.0,476.0 574.0,476.0 574.0,478.0 580.0,478.0 580.0,476.0 582.0,476.0 582.0,466.0 580.0,466.0 580.0,464.0 574.0,464.0 574.0,476.0 580.0,476.0 580.0,466.0 572.0,466.0 z"/>
<path d="M 584.0,464.0 584.0,466.0 586.0,466.0 586.0,476.0 584.0,476.0 584.0,478.0 590.0,478.0 590.0,476.0 588.0,476.0 588.0,464.0 584.0,464.0 z"/>
<path d="M 592.0,464.0 592.0,466.0 594.0,466.0 594.0,476.0 592.0,476.0 592.0,478.0 598.0,478.0 598.0,476.0 596.0,476.0 596.0,464.0 592.0,464.0 z"/>
<path d="M 600.0,466.0 600.0,476.0 602.0,476.0 602.0,478.0 608.0,478.0 608.0,476.0 610.0,476.0 610.0,466.0 608.0,466.0 608.0,464.0 602.0,464.0 602.0,476.0 608.0,476.0 608.0,466.0 600.0,466.0 z"/>
<path d="M 612.0,464.0 612.0,466.0 614.0,466.0 614.0,476.0 612.0,476.0 612.0,478.0 618.0,478.0 618.0,476.0 616.0,476.0 616.0,464.0 612.0,464.0 z"/>
<path d="M 620.0,464.0 620.0,466.0 622.0,466.0 622.0,476.0 620.0,476.0 620.0,478.0 626.0,478.0 626.0,476.0 624.0,476.0 624.0,464.0 620.0,464.0 z"/>
<path d="M 628.0,464.0 628.0,466.0 630.0,466.0 630.0,476.0 628.0,476.0 628.0,478.0 634.0,478.0 634.0,476.0 632.0,476.0 632.0,464.0 628.0,464.0 z"/>
<path d="M 564.0,482.0 564.0,492.0 566.0,492.0 566.0,494.0 572.0,494.0 572.0,492.0 574.0,492.0 574.0,482.0 572.0,482.0 572.0,480.0 566.0,480.0 566.0,492.0 572.0,492.0 572.0,482.0 564.0,482.0 z"/>
<path d="M 576.0,480.0 576.0,482.0 578.0,482.0 578.0,492.0 576.0,492.0 576.0,494.0 582.0,494.0 582.0,492.0 580.0,492.0 580.0,480.0 576.0,480.0 z"/>
<path d="M 584.0,482.0 584.0,492.0 586.0,492.0 586.0,494.0 592.0,494.0 592.0,492.0 594.0,492.0 594.0,482.0 592.0,482.0 592.0,480.0 586.0,480.0 586.0,492.0 592.0,492.0 592.0,482.0 584.0,482.0 z"/>
<path d="M 596.0,480.0 596.0,482.0 598.0,482.0 598.0,492.0 596.0,492.0 596.0,494.0 602.0,494.0 602.0,492.0 600.0,492.0 600.0,480.0 596.0,480.0 z"/>
<path d="M 604.0,482.0 604.0,492.0 606.0,492.0 606.0,494.0 612.0,494.0 612.0,492.0 614.0,492.0 614.0,482.0 612.0,482.0 612.0,480.0 606.0,480.0 606.0,492.0 612.0,492.0 612.0,482.0 604.0,482.0 z"/>
<path d="M 616.0,480.0 616.0,482.0 618.0,482.0 618.0,492.0 616.0,492.0 616.0,494.0 622.0,494.0 622.0,492.0 620.0,492.0 620.0,480.0 616.0,480.0 z"/>
<path d="M 624.0,480.0 624.0,482.0 626.0,482.0 626.0,492.0 624.0,492.0 624.0,494.0 630.0,494.0 630.0,492.0 628.0,492.0 628.0,480.0 624.0,480.0 z"/>
<path d="M 632.0,480.0 632.0,482.0 634.0,482.0 634.0,492.0 632.0,492.0 632.0,494.0 638.0,494.0 638.0,492.0 636.0,492.0 636.0,480.0 632.0,480.0 z"/>
<path d="M 500.0,498.0 500.0,508.0 502.0,508.0 502.0,510.0 508.0,510.0 508.0,508.0 510.0,508.0 510.0,498.0 508.0,498.0 508.0,496.0 502.0,496.0 502.0,508.0 508.0,508.0 508.0,498.0 500.0,498.0 z"/>
<path d="M 512.0,498.0 512.0,508.0 514.0,508.0 514.0,510.0 520.0,510.0 520.0,508.0 522.0,508.0 522.0,498.0 520.0,498.0 520.0,496.0 514.0,496.0 514.0,508.0 520.0,508.0 520.0,498.0 512.0,498.0 z"/>
<path d="M 524.0,496.0 524.0,498.0 526.0,498.0 526.0,508.0 524.0,508.0 524.0,510.0 530.0,510.0 530.0,508.0 528.0,508.0 528.0,496.0 524.0,496.0 z"/>
<path d="M 532.0,496.0 532.0,498.0 534.0,498.0 534.0,508.0 532.0,508.0 532.0,510.0 538.0,510.0 538.0,508.0 536.0,508.0 536.0,496.0 532.0,496.0 z"/>
<path d="M 540.0,496.0 540.0,498.0 542.0,498.0 542.0,508.0 540.0,508.0 540.0,510.0 546.0,510.0 546.0,508.0 544.0,508.0 544.0,496.0 540.0,496.0 z"/>
<path d="M 548.0,498.0 548.0,508.0 550.0,508.0 550.0,510.0 556.0,510.0 556.0,508.0 558.0,508.0 558.0,498.0 556.0,498.0 556.0,496.0 550.0,496.0 550.0,508.0 556.0,508.0 556.0,498.0 548.0,498.0 z"/>
<path d="M 560.0,498.0 560.0,508.0 562.0,508.0 562.0,510.0 568.0,510.0 568.0,508.0 570.0,508.0 570.0,498.0 568.0,498.0 568.0,496.0 562.0,496.0 562.0,508.0 568.0,508.0 568.0,498.0 560.0,498.0 z"/>
<path d="M 572.0,498.0 572.0,508.0 574.0,508.0 574.0,510.0 580.0,510.0 580.0,508.0 582.0,508.0 582.0,498.0 580.0,498.0 580.0,496.0 574.0,496.0 574.0,508.0 580.0,508.0 580.0,498.0 572.0,498.0 z"/>
<path d="M 584.0,496.0 584.0,498.0 586.0,498.0 586.0,508.0 584.0,508.0 584.0,510.0 590.0,510.0 590.0,508.0 588.0,508.0 588.0,496.0 584.0,496.0 z"/>
<path d="M 592.0,498.0 592.0,508.0 594.0,508.0 594.0,510.0 600.0,510.0 600.0,508.0 602.0,508.0 602.0,498.0 600.0,498.0 600.0,496.0 594.0,496.0 594.0,508.0 600.0,508.0 600.0,498.0 592.0,498.0 z"/>
<path d="M 604.0,498.0 604.0,508.0 606.0,508.0 606.0,510.0 612.0,510.0 612.0,508.0 614.0,508.0 614.0,498.0 612.0,498.0 612.0,496.0 606.0,496.0 606.0,508.0 612.0,508.0 612.0,498.0 604.0,498.0 z"/>
<path d="M 616.0,498.0 616.0,508.0 618.0,508.0 618.0,510.0 624.0,510.0 624.0,508.0 626.0,508.0 626.0,498.0 624.0,498.0 624.0,496.0 618.0,496.0 618.0,508.0 624.0,508.0 624.0,498.0 616.0,498.0 z"/>
<path d="M 628.0,498.0 628.0,508.0 630.0,508.0 630.0,510.0 636.0,510.0 636.0,508.0 638.0,508.0 638.0,498.0 636.0,498.0 636.0,496.0 630.0,496.0 630.0,508.0 636.0,508.0 636.0,498.0 628.0,498.0 z"/>
<path d="M 648.0,498.0 648.0,508.0 650.0,508.0 650.0,510.0 656.0,510.0 656.0,508.0 658.0,508.0 658.0,498.0 656.0,498.0 656.0,496.0 650.0,496.0 650.0,508.0 656.0,508.0 656.0,498.0 648.0,498.0 z"/>
<path d="M 660.0,496.0 660.0,498.0 662.0,498.0 662.0,508.0 660.0,508.0 660.0,510.0 666.0,510.0 666.0,508.0 664.0,508.0 664.0,496.0 660.0,496.0 z"/>
<path d="M 668.0,496.0 668.0,498.0 670.0,498.0 670.0,508.0 668.0,508.0 668.0,510.0 674.0,510.0 674.0,508.0 672.0,508.0 672.0,496.0 668.0,496.0 z"/>
<path d="M 676.0,496.0 676.0,498.0 678.0,498.0 678.0,508.0 676.0,508.0 676.0,510.0 682.0,510.0 682.0,508.0 680.0,508.0 680.0,496.0 676.0,496.0 z"/>
<path d="M 684.0,498.0 684.0,508.0 686.0,508.0 686.0,510.0 692.0,510.0 692.0,508.0 694.0,508.0 694.0,498.0 692.0,498.0 692.0,496.0 686.0,496.0 686.0,508.0 692.0,508.0 692.0,498.0 684.0,498.0 z"/>
<path d="M 696.0,498.0 696.0,508.0 698.0,508.0 698.0,510.0 704.0,510.0 704.0,508.0 706.0,508.0 706.0,498.0 704.0,498.0 704.0,496.0 698.0,496.0 698.0,508.0 704.0,508.0 704.0,498.0 696.0,498.0 z"/>
<path d="M 708.0,498.0 708.0,508.0 710.0,508.0 710.0,510.0 716.0,510.0 716.0,508.0 718.0,508.0 718.0,498.0 716.0,498.0 716.0,496.0 710.0,496.0 710.0,508.0 716.0,508.0 716.0,498.0 708.0,498.0 z"/>
<path d="M 720.0,496.0 720.0,498.0 722.0,498.0 722.0,508.0 720.0,508.0 720.0,510.0 726.0,510.0 726.0,508.0 724.0,508.0 724.0,496.0 720.0,496.0 z"/>
<path d="M 436.0,514.0 436.0,524.0 438.0,524.0 438.0,526.0 444.0,526.0 444.0,524.0 446.0,524.0 446.0,514.0 444.0,514.0 444.0,512.0 438.0,512.0 438.0,524.0 444.0,524.0 444.0,514.0 436.0,514.0 z"/>
<path d="M 448.0,512.0 448.0,514.0 450.0,514.0 450.0,524.0 448.0,524.0 448.0,526.0 454.0,526.0 454.0,524.0 452.0,524.0 452.0,512.0 448.0,512.0 z"/>
<path d="M 456.0,512.0 456.0,514.0 458.0,514.0 458.0,524.0 456.0,524.0 456.0,526.0 462.0,526.0 462.0,524.0 460.0,524.0 460.0,512.0 456.0,512.0 z"/>
<path d="M 464.0,512.0 464.0,514.0 466.0,514.0 466.0,524.0 464.0,524.0 464.0,526.0 470.0,526.0 470.0,524.0 468.0,524.0 468.0,512.0 464.0,512.0 z"/>
<path d="M 472.0,512.0 472.0,514.0 474.0,514.0 474.0,524.0 472.0,524.0 472.0,526.0 478.0,526.0 478.0,524.0 476.0,524.0 476.0,512.0 472.0,512.0 z"/>
<path d="M 480.0,512.0 480.0,514.0 482.0,514.0 482.0,524.0 480.0,524.0 480.0,526.0 486.0,526.0 486.0,524.0 484.0,524.0 484.0,512.0 480.0,512.0 z"/>
<path d="M 488.0,512.0 488.0,514.0 490.0,514.0 490.0,524.0 488.0,524.0 488.0,526.0 494.0,526.0 494.0,524.0 492.0,524.0 492.0,512.0 488.0,512.0 z"/>
<path d="M 496.0,514.0 496.0,524.0 498.0,524.0 498.0,526.0 504.0,526.0 504.0,524.0 506.0,524.0 506.0,514.0 504.0,514.0 504.0,512.0 498.0,512.0 498.0,524.0 504.0,524.0 504.0,514.0 496.0,514.0 z"/>
<path d="M 508.0,512.0 508.0,514.0 510.0,514.0 510.0,524.0 508.0,524.0 508.0,526.0 514.0,526.0 514.0,524.0 512.0,524.0 512.0,512.0 508.0,512.0 z"/>
<path d="M 516.0,512.0 516.0,514.0 518.0,514.0 518.0,524.0 516.0,524.0 516.0,526.0 522.0,526.0 522.0,524.0 520.0,524.0 520.0,512.0 516.0,512.0 z"/>
<path d="M 524.0,514.0 524.0,524.0 526.0,524.0 526.0,526.0 532.0,526.0 532.0,524.0 534.0,524.0 534.0,514.0 532.0,514.0 532.0,512.0 526.0,512.0 526.0,524.0 532.0,524.0 532.0,514.0 524.0,514.0 z"/>
<path d="M 536.0,512.0 536.0,514.0 538.0,514.0 538.0,524.0 536.0,524.0 536.0,526.0 542.0,526.0 542.0,524.0 540.0,524.0 540.0,512.0 536.0,512.0 z"/>
<path d="M 544.0,512.0 544.0,514.0 546.0,514.0 546.0,524.0 544.0,524.0 544.0,526.0 550.0,526.0 550.0,524.0 548.0,524.0 548.0,512.0 544.0,512.0 z"/>
<path d="M 552.0,514.0 552.0,524.0 554.0,524.0 554.0,526.0 560.0,526.0 560.0,524.0 562.0,524.0 562.0,514.0 560.0,514.0 560.0,512.0 554.0,512.0 554.0,524.0 560.0,524.0 560.0,514.0 552.0,514.0 z"/>
<path d="M 564.0,514.0 564.0,524.0 566.0,524.0 566.0,526.0 572.0,526.0 572.0,524.0 574.0,524.0 574.0,514.0 572.0,514.0 572.0,512.0 566.0,512.0 566.0,524.0 572.0,524.0 572.0,514.0 564.0,514.0 z"/>
<path d="M 576.0,514.0 576.0,524.0 578.0,524.0 578.0,526.0 584.0,526.0 584.0,524.0 586.0,524.0 586.0,514.0 584.0,514.0 584.0,512.0 578.0,512.0 578.0,524.0 584.0,524.0 584.0,514.0 576.0,514.0 z"/>
<path d="M 588.0,514.0 588.0,524.0 590.0,524.0 590.0,526.0 596.0,526.0 596.0,524.0 598.0,524.0 598.0,514.0 596.0,514.0 596.0,512.0 590.0,512.0 590.0,524.0 596.0,524.0 596.0,514.0 588.0,514.0 z"/>
<path d="M 600.0,512.0 600.0,514.0 602.0,514.0 602.0,524.0 600.0,524.0 600.0,526.0 606.0,526.0 606.0,524.0 604.0,524.0 604.0,512.0 600.0,512.0 z"/>
<path d="M 608.0,514.0 608.0,524.0 610.0,524.0 610.0,526.0 616.0,526.0 616.0,524.0 618.0,524.0 618.0,514.0 616.0,514.0 616.0,512.0 610.0,512.0 610.0,524.0 616.0,524.0 616.0,514.0 608.0,514.0 z"/>
<path d="M 620.0,514.0 620.0,524.0 622.0,524.0 622.0,526.0 628.0,526.0 628.0,524.0 630.0,524.0 630.0,514.0 628.0,514.0 628.0,512.0 622.0,512.0 622.0,524.0 628.0,524.0 628.0,514.0 620.0,514.0 z"/>
<path d="M 632.0,512.0 632.0,514.0 634.0,514.0 634.0,524.0 632.0,524.0 632.0,526.0 638.0,526.0 638.0,524.0 636.0,524.0 636.0,512.0 632.0,512.0 z"/>
<path d="M 640.0,514.0 640.0,524.0 642.0,524.0 642.0,526.0 648.0,526.0 648.0,524.0 650.0,524.0 650.0,514.0 648.0,514.0 648.0,512.0 642.0,512.0 642.0,524.0 648.0,524.0 648.0,514.0 640.0,514.0 z"/>
<path d="M 652.0,514.0 652.0,524.0 654.0,524.0 654.0,526.0 660.0,526.0 660.0,524.0 662.0,524.0 662.0,514.0 660.0,514.0 660.0,512.0 654.0,512.0 654.0,524.0 660.0,524.0 660.0,514.0 652.0,514.0 z"/>
<path d="M 664.0,514.0 664.0,524.0 666.0,524.0 666.0,526.0 672.0,526.0 672.0,524.0 674.0,524.0 674.0,514.0 672.0,514.0 672.0,512.0 666.0,512.0 666.0,524.0 672.0,524.0 672.0,514.0 664.0,514.0 z"/>
<path d="M 676.0,512.0 676.0,514.0 678.0,514.0 678.0,524.0 676.0,524.0 676.0,526.0 682.0,526.0 682.0,524.0 680.0,524.0 680.0,512.0 676.0,512.0 z"/>
<path d="M 684.0,512.0 684.0,514.0 686.0,514.0 686.0,524.0 684.0,524.0 684.0,526.0 690.0,526.0 690.0,524.0 688.0,524.0 688.0,512.0 684.0,512.0 z"/>
<path d="M 692.0,512.0 692.0,514.0 694.0,514.0 694.0,524.0 692.0,524.0 692.0,526.0 698.0,526.0 698.0,524.0 696.0,524.0 696.0,512.0 692.0,512.0 z"/>
<path d="M 700.0,512.0 700.0,514.0 702.0,514.0 702.0,524.0 700.0,524.0 700.0,526.0 706.0,526.0 706.0,524.0 704.0,524.0 704.0,512.0 700.0,512.0 z"/>
<path d="M 708.0,512.0 708.0,514.0 710.0,514.0 710.0,524.0 708.0,524.0 708.0,526.0 714.0,526.0 714.0,524.0 712.0,524.0 712.0,512.0 708.0,512.0 z"/>
<path d="M 716.0,514.0 716.0,524.0 718.0,524.0 718.0,526.0 724.0,526.0 724.0,524.0 726.0,524.0 726.0,514.0 724.0,514.0 724.0,512.0 718.0,512.0 718.0,524.0 724.0,524.0 724.0,514.0 716.0,514.0 z"/>
<path d="M 728.0,512.0 728.0,514.0 730.0,514.0 730.0,524.0 728.0,524.0 728.0,526.0 734.0,526.0 734.0,524.0 732.0,524.0 732.0,512.0 728.0,512.0 z"/>
<path d="M 736.0,514.0 736.0,524.0 738.0,524.0 738.0,526.0 744.0,526.0 744.0,524.0 746.0,524.0 746.0,514.0 744.0,514.0 744.0,512.0 738.0,512.0 738.0,524.0 744.0,524.0 744.0,514.0 736.0,514.0 z"/>
<path d="M 748.0,512.0 748.0,514.0 750.0,514.0 750.0,524.0 748.0,524.0 748.0,526.0 754.0,526.0 754.0,524.0 752.0,524.0 752.0,512.0 748.0,512.0 z"/>
<path d="M 756.0,514.0 756.0,524.0 758.0,524.0 758.0,526.0 764.0,526.0 764.0,524.0 766.0,524.0 766.0,514.0 764.0,514.0 764.0,512.0 758.0,512.0 758.0,524.0 764.0,524.0 764.0,514.0 756.0,514.0 z"/>
<path d="M 452.0,528.0 452.0,530.0 454.0,530.0 454.0,540.0 452.0,540.0 452.0,542.0 458.0,542.0 458.0,540.0 456.0,540.0 456.0,528.0 452.0,528.0 z"/>
<path d="M 460.0,530.0 460.0,540.0 462.0,540.0 462.0,542.0 468.0,542.0 468.0,540.0 470.0,540.0 470.0,530.0 468.0,530.0 468.0,528.0 462.0,528.0 462.0,540.0 468.0,540.0 468.0,530.0 460.0,530.0 z"/>
<path d="M 472.0,528.0 472.0,530.0 474.0,530.0 474.0,540.0 472.0,540.0 472.0,542.0 478.0,542.0 478.0,540.0 476.0,540.0 476.0,528.0 472.0,528.0 z"/>
<path d="M 480.0,528.0 480.0,530.0 482.0,530.0 482.0,540.0 480.0,540.0 480.0,542.0 486.0,542.0 486.0,540.0 484.0,540.0 484.0,528.0 480.0,528.0 z"/>
<path d="M 488.0,528.0 488.0,530.0 490.0,530.0 490.0,540.0 488.0,540.0 488.0,542.0 494.0,542.0 494.0,540.0 492.0,540.0 492.0,528.0 488.0,528.0 z"/>
<path d="M 496.0,528.0 496.0,530.0 498.0,530.0 498.0,540.0 496.0,540.0 496.0,542.0 502.0,542.0 502.0,540.0 500.0,540.0 500.0,528.0 496.0,528.0 z"/>
<path d="M 504.0,528.0 504.0,530.0 506.0,530.0 506.0,540.0 504.0,540.0 504.0,542.0 510.0,542.0 510.0,540.0 508.0,540.0 508.0,528.0 504.0,528.0 z"/>
<path d="M 512.0,528.0 512.0,530.0 514.0,530.0 514.0,540.0 512.0,540.0 512.0,542.0 518.0,542.0 518.0,540.0 516.0,540.0 516.0,528.0 512.0,528.0 z"/>
<path d="M 520.0,530.0 520.0,540.0 522.0,540.0 522.0,542.0 528.0,542.0 528.0,540.0 530.0,540.0 530.0,530.0 528.0,530.0 528.0,528.0 522.0,528.0 522.0,540.0 528.0,540.0 528.0,530.0 520.0,530.0 z"/>
<path d="M 532.0,528.0 532.0,530.0 534.0,530.0 534.0,540.0 532.0,540.0 532.0,542.0 538.0,542.0 538.0,540.0 536.0,540.0 536.0,528.0 532.0,528.0 z"/>
<path d="M 540.0,528.0 540.0,530.0 542.0,530.0 542.0,540.0 540.0,540.0 540.0,542.0 546.0,542.0 546.0,540.0 544.0,540.0 544.0,528.0 540.0,528.0 z"/>
<path d="M 548.0,530.0 548.0,540.0 550.0,540.0 550.0,542.0 556.0,542.0 556.0,540.0 558.0,540.0 558.0,530.0 556.0,530.0 556.0,528.0 550.0,528.0 550.0,540.0 556.0,540.0 556.0,530.0 548.0,530.0 z"/>
<path d="M 560.0,528.0 560.0,530.0 562.0,530.0 562.0,540.0 560.0,540.0 560.0,542.0 566.0,542.0 566.0,540.0 564.0,540.0 564.0,528.0 560.0,528.0 z"/>
<path d="M 568.0,530.0 568.0,540.0 570.0,540.0 570.0,542.0 576.0,542.0 576.0,540.0 578.0,540.0 578.0,530.0 576.0,530.0 576.0,528.0 570.0,528.0 570.0,540.0 576.0,540.0 576.0,530.0 568.0,530.0 z"/>
<path d="M 580.0,530.0 580.0,540.0 582.0,540.0 582.0,542.0 588.0,542.0 588.0,540.0 590.0,540.0 590.0,530.0 588.0,530.0 588.0,528.0 582.0,528.0 582.0,540.0 588.0,540.0 588.0,530.0 580.0,530.0 z"/>
<path d="M 592.0,530.0 592.0,540.0 594.0,540.0 594.0,542.0 600.0,542.0 600.0,540.0 602.0,540.0 602.0,530.0 600.0,530.0 600.0,528.0 594.0,528.0 594.0,540.0 600.0,540.0 600.0,530.0 592.0,530.0 z"/>
<path d="M 604.0,530.0 604.0,540.0 606.0,540.0 606.0,542.0 612.0,542.0 612.0,540.0 614.0,540.0 614.0,530.0 612.0,530.0 612.0,528.0 606.0,528.0 606.0,540.0 612.0,540.0 612.0,530.0 604.0,530.0 z"/>
<path d="M 616.0,530.0 616.0,540.0 618.0,540.0 618.0,542.0 624.0,542.0 624.0,540.0 626.0,540.0 626.0,530.0 624.0,530.0 624.0,528.0 618.0,528.0 618.0,540.0 624.0,540.0 624.0,530.0 616.0,530.0 z"/>
<path d="M 628.0,528.0 628.0,530.0 630.0,530.0 630.0,540.0 628.0,540.0 628.0,542.0 634.0,542.0 634.0,540.0 632.0,540.0 632.0,528.0 628.0,528.0 z"/>
<path d="M 636.0,528.0 636.0,530.0 638.0,530.0 638.0,540.0 636.0,540.0 636.0,542.0 642.0,542.0 642.0,540.0 640.0,540.0 640.0,528.0 636.0,528.0 z"/>
<path d="M 644.0,530.0 644.0,540.0 646.0,540.0 646.0,542.0 652.0,542.0 652.0,540.0 654.0,540.0 654.0,530.0 652.0,530.0 652.0,528.0 646.0,528.0 646.0,540.0 652.0,540.0 652.0,530.0 644.0,530.0 z"/>
<path d="M 656.0,530.0 656.0,540.0 658.0,540.0 658.0,542.0 664.0,542.0 664.0,540.0 666.0,540.0 666.0,530.0 664.0,530.0 664.0,528.0 658.0,528.0 658.0,540.0 664.0,540.0 664.0,530.0 656.0,530.0 z"/>
<path d="M 668.0,528.0 668.0,530.0 670.0,530.0 670.0,540.0 668.0,540.0 668.0,542.0 674.0,542.0 674.0,540.0 672.0,540.0 672.0,528.0 668.0,528.0 z"/>
<path d="M 676.0,528.0 676.0,530.0 678.0,530.0 678.0,540.0 676.0,540.0 676.0,542.0 682.0,542.0 682.0,540.0 680.0,540.0 680.0,528.0 676.0,528.0 z"/>
<path d="M 684.0,530.0 684.0,540.0 686.0,540.0 686.0,542.0 692.0,542.0 692.0,540.0 694.0,540.0 694.0,530.0 692.0,530.0 692.0,528.0 686.0,528.0 686.0,540.0 692.0,540.0 692.0,530.0 684.0,530.0 z"/>
<path d="M 696.0,530.0 696.0,540.0 698.0,540.0 698.0,542.0 704.0,542.0 704.0,540.0 706.0,540.0 706.0,530.0 704.0,530.0 704.0,528.0 698.0,528.0 698.0,540.0 704.0,540.0 704.0,530.0 696.0,530.0 z"/>
<path d="M 708.0,528.0 708.0,530.0 710.0,530.0 710.0,540.0 708.0,540.0 708.0,542.0 714.0,542.0 714.0,540.0 712.0,540.0 712.0,528.0 708.0,528.0 z"/>
<path d="M 716.0,528.0 716.0,530.0 718.0,530.0 718.0,540.0 716.0,540.0 716.0,542.0 722.0,542.0 722.0,540.0 720.0,540.0 720.0,528.0 716.0,528.0 z"/>
<path d="M 724.0,530.0 724.0,540.0 726.0,540.0 726.0,542.0 732.0,542.0 732.0,540.0 734.0,540.0 734.0,530.0 732.0,530.0 732.0,528.0 726.0,528.0 726.0,540.0 732.0,540.0 732.0,530.0 724.0,530.0 z"/>
<path d="M 736.0,528.0 736.0,530.0 738.0,530.0 738.0,540.0 736.0,540.0 736.0,542.0 742.0,542.0 742.0,540.0 740.0,540.0 740.0,528.0 736.0,528.0 z"/>
<path d="M 452.0,544.0 452.0,546.0 454.0,546.0 454.0,556.0 452.0,556.0 452.0,558.0 458.0,558.0 458.0,556.0 456.0,556.0 456.0,544.0 452.0,544.0 z"/>
<path d="M 460.0,544.0 460.0,546.0 462.0,546.0 462.0,556.0 460.0,556.0 460.0,558.0 466.0,558.0 466.0,556.0 464.0,556.0 464.0,544.0 460.0,544.0 z"/>
<path d="M 468.0,546.0 468.0,556.0 470.0,556.0 470.0,558.0 476.0,558.0 476.0,556.0 478.0,556.0 478.0,546.0 476.0,546.0 476.0,544.0 470.0,544.0 470.0,556.0 476.0,556.0 476.0,546.0 468.0,546.0 z"/>
<path d="M 480.0,544.0 480.0,546.0 482.0,546.0 482.0,556.0 480.0,556.0 480.0,558.0 486.0,558.0 486.0,556.0 484.0,556.0 484.0,544.0 480.0,544.0 z"/>
<path d="M 488.0,546.0 488.0,556.0 490.0,556.0 490.0,558.0 496.0,558.0 496.0,556.0 498.0,556.0 498.0,546.0 496.0,546.0 496.0,544.0 490.0,544.0 490.0,556.0 496.0,556.0 496.0,546.0 488.0,546.0 z"/>
<path d="M 500.0,546.0 500.0,556.0 502.0,556.0 502.0,558.0 508.0,558.0 508.0,556.0 510.0,556.0 510.0,546.0 508.0,546.0 508.0,544.0 502.0,544.0 502.0,556.0 508.0,556.0 508.0,546.0 500.0,546.0 z"/>
<path d="M 512.0,546.0 512.0,556.0 514.0,556.0 514.0,558.0 520.0,558.0 520.0,556.0 522.0,556.0 522.0,546.0 520.0,546.0 520.0,544.0 514.0,544.0 514.0,556.0 520.0,556.0 520.0,546.0 512.0,546.0 z"/>
<path d="M 524.0,544.0 524.0,546.0 526.0,546.0 526.0,556.0 524.0,556.0 524.0,558.0 530.0,558.0 530.0,556.0 528.0,556.0 528.0,544.0 524.0,544.0 z"/>
<path d="M 532.0,544.0 532.0,546.0 534.0,546.0 534.0,556.0 532.0,556.0 532.0,558.0 538.0,558.0 538.0,556.0 536.0,556.0 536.0,544.0 532.0,544.0 z"/>
<path d="M 540.0,544.0 540.0,546.0 542.0,546.0 542.0,556.0 540.0,556.0 540.0,558.0 546.0,558.0 546.0,556.0 544.0,556.0 544.0,544.0 540.0,544.0 z"/>
<path d="M 548.0,546.0 548.0,556.0 550.0,556.0 550.0,558.0 556.0,558.0 556.0,556.0 558.0,556.0 558.0,546.0 556.0,546.0 556.0,544.0 550.0,544.0 550.0,556.0 556.0,556.0 556.0,546.0 548.0,546.0 z"/>
<path d="M 560.0,544.0 560.0,546.0 562.0,546.0 562.0,556.0 560.0,556.0 560.0,558.0 566.0,558.0 566.0,556.0 564.0,556.0 564.0,544.0 560.0,544.0 z"/>
<path d="M 568.0,544.0 568.0,546.0 570.0,546.0 570.0,556.0 568.0,556.0 568.0,558.0 574.0,558.0 574.0,556.0 572.0,556.0 572.0,544.0 568.0,544.0 z"/>
<path d="M 576.0,546.0 576.0,556.0 578.0,556.0 578.0,558.0 584.0,558.0 584.0,556.0 586.0,556.0 586.0,546.0 584.0,546.0 584.0,544.0 578.0,544.0 578.0,556.0 584.0,556.0 584.0,546.0 576.0,546.0 z"/>
<path d="M 588.0,544.0 588.0,546.0 590.0,546.0 590.0,556.0 588.0,556.0 588.0,558.0 594.0,558.0 594.0,556.0 592.0,556.0 592.0,544.0 588.0,544.0 z"/>
<path d="M 596.0,544.0 596.0,546.0 598.0,546.0 598.0,556.0 596.0,556.0 596.0,558.0 602.0,558.0 602.0,556.0 600.0,556.0 600.0,544.0 596.0,544.0 z"/>
<path d="M 604.0,544.0 604.0,546.0 606.0,546.0 606.0,556.0 604.0,556.0 604.0,558.0 610.0,558.0 610.0,556.0 608.0,556.0 608.0,544.0 604.0,544.0 z"/>
<path d="M 612.0,546.0 612.0,556.0 614.0,556.0 614.0,558.0 620.0,558.0 620.0,556.0 622.0,556.0 622.0,546.0 620.0,546.0 620.0,544.0 614.0,544.0 614.0,556.0 620.0,556.0 620.0,546.0 612.0,546.0 z"/>
<path d="M 624.0,546.0 624.0,556.0 626.0,556.0 626.0,558.0 632.0,558.0 632.0,556.0 634.0,556.0 634.0,546.0 632.0,546.0 632.0,544.0 626.0,544.0 626.0,556.0 632.0,556.0 632.0,546.0 624.0,546.0 z"/>
<path d="M 636.0,544.0 636.0,546.0 638.0,546.0 638.0,556.0 636.0,556.0 636.0,558.0 642.0,558.0 642.0,556.0 640.0,556.0 640.0,544.0 636.0,544.0 z"/>
<path d="M 644.0,544.0 644.0,546.0 646.0,546.0 646.0,556.0 644.0,556.0 644.0,558.0 650.0,558.0 650.0,556.0 648.0,556.0 648.0,544.0 644.0,544.0 z"/>
<path d="M 652.0,546.0 652.0,556.0 654.0,556.0 654.0,558.0 660.0,558.0 660.0,556.0 662.0,556.0 662.0,546.0 660.0,546.0 660.0,544.0 654.0,544.0 654.0,556.0 660.0,556.0 660.0,546.0 652.0,546.0 z"/>
<path d="M 664.0,546.0 664.0,556.0 666.0,556.0 666.0,558.0 672.0,558.0 672.0,556.0 674.0,556.0 674.0,546.0 672.0,546.0 672.0,544.0 666.0,544.0 666.0,556.0 672.0,556.0 672.0,546.0 664.0,546.0 z"/>
<path d="M 676.0,546.0 676.0,556.0 678.0,556.0 678.0,558.0 684.0,558.0 684.0,556.0 686.0,556.0 686.0,546.0 684.0,546.0 684.0,544.0 678.0,544.0 678.0,556.0 684.0,556.0 684.0,546.0 676.0,546.0 z"/>
<path d="M 688.0,546.0 688.0,556.0 690.0,556.0 690.0,558.0 696.0,558.0 696.0,556.0 698.0,556.0 698.0,546.0 696.0,546.0 696.0,544.0 690.0,544.0 690.0,556.0 696.0,556.0 696.0,546.0 688.0,546.0 z"/>
<path d="M 700.0,546.0 700.0,556.0 702.0,556.0 702.0,558.0 708.0,558.0 708.0,556.0 710.0,556.0 710.0,546.0 708.0,546.0 708.0,544.0 702.0,544.0 702.0,556.0 708.0,556.0 708.0,546.0 700.0,546.0 z"/>
<path d="M 712.0,544.0 712.0,546.0 714.0,546.0 714.0,556.0 712.0,556.0 712.0,558.0 718.0,558.0 718.0,556.0 716.0,556.0 716.0,544.0 712.0,544.0 z"/>
<path d="M 720.0,546.0 720.0,556.0 722.0,556.0 722.0,558.0 728.0,558.0 728.0,556.0 730.0,556.0 730.0,546.0 728.0,546.0 728.0,544.0 722.0,544.0 722.0,556.0 728.0,556.0 728.0,546.0 720.0,546.0 z"/>
<path d="M 732.0,546.0 732.0,556.0 734.0,556.0 734.0,558.0 740.0,558.0 740.0,556.0 742.0,556.0 742.0,546.0 740.0,546.0 740.0,544.0 734.0,544.0 734.0,556.0 740.0,556.0 740.0,546.0 732.0,546.0 z"/>
<path d="M 744.0,546.0 744.0,556.0 746.0,556.0 746.0,558.0 752.0,558.0 752.0,556.0 754.0,556.0 754.0,546.0 752.0,546.0 752.0,544.0 746.0,544.0 746.0,556.0 752.0,556.0 752.0,546.0 744.0,546.0 z"/>
<path d="M 452.0,562.0 452.0,572.0 454.0,572.0 454.0,574.0 460.0,574.0 460.0,572.0 462.0,572.0 462.0,562.0 460.0,562.0 460.0,560.0 454.0,560.0 454.0,572.0 460.0,572.0 460.0,562.0 452.0,562.0 z"/>
<path d="M 484.0,560.0 484.0,562.0 486.0,562.0 486.0,572.0 484.0,572.0 484.0,574.0 490.0,574.0 490.0,572.0 488.0,572.0 488.0,560.0 484.0,560.0 z"/>
<path d="M 492.0,560.0 492.0,562.0 494.0,562.0 494.0,572.0 492.0,572.0 492.0,574.0 498.0,574.0 498.0,572.0 496.0,572.0 496.0,560.0 492.0,560.0 z"/>
<path d="M 500.0,560.0 500.0,562.0 502.0,562.0 502.0,572.0 500.0,572.0 500.0,574.0 506.0,574.0 506.0,572.0 504.0,572.0 504.0,560.0 500.0,560.0 z"/>
<path d="M 508.0,562.0 508.0,572.0 510.0,572.0 510.0,574.0 516.0,574.0 516.0,572.0 518.0,572.0 518.0,562.0 516.0,562.0 516.0,560.0 510.0,560.0 510.0,572.0 516.0,572.0 516.0,562.0 508.0,562.0 z"/>
<path d="M 520.0,560.0 520.0,562.0 522.0,562.0 522.0,572.0 520.0,572.0 520.0,574.0 526.0,574.0 526.0,572.0 524.0,572.0 524.0,560.0 520.0,560.0 z"/>
<path d="M 528.0,560.0 528.0,562.0 530.0,562.0 530.0,572.0 528.0,572.0 528.0,574.0 534.0,574.0 534.0,572.0 532.0,572.0 532.0,560.0 528.0,560.0 z"/>
<path d="M 536.0,562.0 536.0,572.0 538.0,572.0 538.0,574.0 544.0,574.0 544.0,572.0 546.0,572.0 546.0,562.0 544.0,562.0 544.0,560.0 538.0,560.0 538.0,572.0 544.0,572.0 544.0,562.0 536.0,562.0 z"/>
<path d="M 548.0,560.0 548.0,562.0 550.0,562.0 550.0,572.0 548.0,572.0 548.0,574.0 554.0,574.0 554.0,572.0 552.0,572.0 552.0,560.0 548.0,560.0 z"/>
<path d="M 556.0,562.0 556.0,572.0 558.0,572.0 558.0,574.0 564.0,574.0 564.0,572.0 566.0,572.0 566.0,562.0 564.0,562.0 564.0,560.0 558.0,560.0 558.0,572.0 564.0,572.0 564.0,562.0 556.0,562.0 z"/>
<path d="M 568.0,562.0 568.0,572.0 570.0,572.0 570.0,574.0 576.0,574.0 576.0,572.0 578.0,572.0 578.0,562.0 576.0,562.0 576.0,560.0 570.0,560.0 570.0,572.0 576.0,572.0 576.0,562.0 568.0,562.0 z"/>
<path d="M 580.0,560.0 580.0,562.0 582.0,562.0 582.0,572.0 580.0,572.0 580.0,574.0 586.0,574.0 586.0,572.0 584.0,572.0 584.0,560.0 580.0,560.0 z"/>
<path d="M 588.0,562.0 588.0,572.0 590.0,572.0 590.0,574.0 596.0,574.0 596.0,572.0 598.0,572.0 598.0,562.0 596.0,562.0 596.0,560.0 590.0,560.0 590.0,572.0 596.0,572.0 596.0,562.0 588.0,562.0 z"/>
<path d="M 608.0,562.0 608.0,572.0 610.0,572.0 610.0,574.0 616.0,574.0 616.0,572.0 618.0,572.0 618.0,562.0 616.0,562.0 616.0,560.0 610.0,560.0 610.0,572.0 616.0,572.0 616.0,562.0 608.0,562.0 z"/>
<path d="M 620.0,560.0 620.0,562.0 622.0,562.0 622.0,572.0 620.0,572.0 620.0,574.0 626.0,574.0 626.0,572.0 624.0,572.0 624.0,560.0 620.0,560.0 z"/>
<path d="M 628.0,560.0 628.0,562.0 630.0,562.0 630.0,572.0 628.0,572.0 628.0,574.0 634.0,574.0 634.0,572.0 632.0,572.0 632.0,560.0 628.0,560.0 z"/>
<path d="M 636.0,562.0 636.0,572.0 638.0,572.0 638.0,574.0 644.0,574.0 644.0,572.0 646.0,572.0 646.0,562.0 644.0,562.0 644.0,560.0 638.0,560.0 638.0,572.0 644.0,572.0 644.0,562.0 636.0,562.0 z"/>
<path d="M 648.0,562.0 648.0,572.0 650.0,572.0 650.0,574.0 656.0,574.0 656.0,572.0 658.0,572.0 658.0,562.0 656.0,562.0 656.0,560.0 650.0,560.0 650.0,572.0 656.0,572.0 656.0,562.0 648.0,562.0 z"/>
<path d="M 660.0,560.0 660.0,562.0 662.0,562.0 662.0,572.0 660.0,572.0 660.0,574.0 666.0,574.0 666.0,572.0 664.0,572.0 664.0,560.0 660.0,560.0 z"/>
<path d="M 668.0,562.0 668.0,572.0 670.0,572.0 670.0,574.0 676.0,574.0 676.0,572.0 678.0,572.0 678.0,562.0 676.0,562.0 676.0,560.0 670.0,560.0 670.0,572.0 676.0,572.0 676.0,562.0 668.0,562.0 z"/>
<path d="M 680.0,562.0 680.0,572.0 682.0,572.0 682.0,574.0 688.0,574.0 688.0,572.0 690.0,572.0 690.0,562.0 688.0,562.0 688.0,560.0 682.0,560.0 682.0,572.0 688.0,572.0 688.0,562.0 680.0,562.0 z"/>
<path d="M 692.0,560.0 692.0,562.0 694.0,562.0 694.0,572.0 692.0,572.0 692.0,574.0 698.0,574.0 698.0,572.0 696.0,572.0 696.0,560.0 692.0,560.0 z"/>
<path d="M 700.0,560.0 700.0,562.0 702.0,562.0 702.0,572.0 700.0,572.0 700.0,574.0 706.0,574.0 706.0,572.0 704.0,572.0 704.0,560.0 700.0,560.0 z"/>
<path d="M 476.0,578.0 476.0,588.0 478.0,588.0 478.0,590.0 484.0,590.0 484.0,588.0 486.0,588.0 486.0,578.0 484.0,578.0 484.0,576.0 478.0,576.0 478.0,588.0 484.0,588.0 484.0,578.0 476.0,578.0 z"/>
<path d="M 488.0,576.0 488.0,578.0 490.0,578.0 490.0,588.0 488.0,588.0 488.0,590.0 494.0,590.0 494.0,588.0 492.0,588.0 492.0,576.0 488.0,576.0 z"/>
<path d="M 496.0,578.0 496.0,588.0 498.0,588.0 498.0,590.0 504.0,590.0 504.0,588.0 506.0,588.0 506.0,578.0 504.0,578.0 504.0,576.0 498.0,576.0 498.0,588.0 504.0,588.0 504.0,578.0 496.0,578.0 z"/>
<path d="M 508.0,578.0 508.0,588.0 510.0,588.0 510.0,590.0 516.0,590.0 516.0,588.0 518.0,588.0 518.0,578.0 516.0,578.0 516.0,576.0 510.0,576.0 510.0,588.0 516.0,588.0 516.0,578.0 508.0,578.0 z"/>
<path d="M 520.0,578.0 520.0,588.0 522.0,588.0 522.0,590.0 528.0,590.0 528.0,588.0 530.0,588.0 530.0,578.0 528.0,578.0 528.0,576.0 522.0,576.0 522.0,588.0 528.0,588.0 528.0,578.0 520.0,578.0 z"/>
<path d="M 532.0,578.0 532.0,588.0 534.0,588.0 534.0,590.0 540.0,590.0 540.0,588.0 542.0,588.0 542.0,578.0 540.0,578.0 540.0,576.0 534.0,576.0 534.0,588.0 540.0,588.0 540.0,578.0 532.0,578.0 z"/>
<path d="M 544.0,578.0 544.0,588.0 546.0,588.0 546.0,590.0 552.0,590.0 552.0,588.0 554.0,588.0 554.0,578.0 552.0,578.0 552.0,576.0 546.0,576.0 546.0,588.0 552.0,588.0 552.0,578.0 544.0,578.0 z"/>
<path d="M 556.0,576.0 556.0,578.0 558.0,578.0 558.0,588.0 556.0,588.0 556.0,590.0 562.0,590.0 562.0,588.0 560.0,588.0 560.0,576.0 556.0,576.0 z"/>
<path d="M 584.0,578.0 584.0,588.0 586.0,588.0 586.0,590.0 592.0,590.0 592.0,588.0 594.0,588.0 594.0,578.0 592.0,578.0 592.0,576.0 586.0,576.0 586.0,588.0 592.0,588.0 592.0,578.0 584.0,578.0 z"/>
<path d="M 608.0,576.0 608.0,578.0 610.0,578.0 610.0,588.0 608.0,588.0 608.0,590.0 614.0,590.0 614.0,588.0 612.0,588.0 612.0,576.0 608.0,576.0 z"/>
<path d="M 640.0,578.0 640.0,588.0 642.0,588.0 642.0,590.0 648.0,590.0 648.0,588.0 650.0,588.0 650.0,578.0 648.0,578.0 648.0,576.0 642.0,576.0 642.0,588.0 648.0,588.0 648.0,578.0 640.0,578.0 z"/>
<path d="M 652.0,578.0 652.0,588.0 654.0,588.0 654.0,590.0 660.0,590.0 660.0,588.0 662.0,588.0 662.0,578.0 660.0,578.0 660.0,576.0 654.0,576.0 654.0,588.0 660.0,588.0 660.0,578.0 652.0,578.0 z"/>
<path d="M 664.0,578.0 664.0,588.0 666.0,588.0 666.0,590.0 672.0,590.0 672.0,588.0 674.0,588.0 674.0,578.0 672.0,578.0 672.0,576.0 666.0,576.0 666.0,588.0 672.0,588.0 672.0,578.0 664.0,578.0 z"/>
<path d="M 676.0,576.0 676.0,578.0 678.0,578.0 678.0,588.0 676.0,588.0 676.0,590.0 682.0,590.0 682.0,588.0 680.0,588.0 680.0,576.0 676.0,576.0 z"/>
<path d="M 684.0,578.0 684.0,588.0 686.0,588.0 686.0,590.0 692.0,590.0 692.0,588.0 694.0,588.0 694.0,578.0 692.0,578.0 692.0,576.0 686.0,576.0 686.0,588.0 692.0,588.0 692.0,578.0 684.0,578.0 z"/>
<path d="M 696.0,578.0 696.0,588.0 698.0,588.0 698.0,590.0 704.0,590.0 704.0,588.0 706.0,588.0 706.0,578.0 704.0,578.0 704.0,576.0 698.0,576.0 698.0,588.0 704.0,588.0 704.0,578.0 696.0,578.0 z"/>
<path d="M 720.0,576.0 720.0,578.0 722.0,578.0 722.0,588.0 720.0,588.0 720.0,590.0 726.0,590.0 726.0,588.0 724.0,588.0 724.0,576.0 720.0,576.0 z"/>
<path d="M 728.0,576.0 728.0,578.0 730.0,578.0 730.0,588.0 728.0,588.0 728.0,590.0 734.0,590.0 734.0,588.0 732.0,588.0 732.0,576.0 728.0,576.0 z"/>
<path d="M 736.0,578.0 736.0,588.0 738.0,588.0 738.0,590.0 744.0,590.0 744.0,588.0 746.0,588.0 746.0,578.0 744.0,578.0 744.0,576.0 738.0,576.0 738.0,588.0 744.0,588.0 744.0,578.0 736.0,578.0 z"/>
<path d="M 464.0,594.0 464.0,604.0 466.0,604.0 466.0,606.0 472.0,606.0 472.0,604.0 474.0,604.0 474.0,594.0 472.0,594.0 472.0,592.0 466.0,592.0 466.0,604.0 472.0,604.0 472.0,594.0 464.0,594.0 z"/>
<path d="M 476.0,594.0 476.0,604.0 478.0,604.0 478.0,606.0 484.0,606.0 484.0,604.0 486.0,604.0 486.0,594.0 484.0,594.0 484.0,592.0 478.0,592.0 478.0,604.0 484.0,604.0 484.0,594.0 476.0,594.0 z"/>
<path d="M 488.0,594.0 488.0,604.0 490.0,604.0 490.0,606.0 496.0,606.0 496.0,604.0 498.0,604.0 498.0,594.0 496.0,594.0 496.0,592.0 490.0,592.0 490.0,604.0 496.0,604.0 496.0,594.0 488.0,594.0 z"/>
<path d="M 500.0,594.0 500.0,604.0 502.0,604.0 502.0,606.0 508.0,606.0 508.0,604.0 510.0,604.0 510.0,594.0 508.0,594.0 508.0,592.0 502.0,592.0 502.0,604.0 508.0,604.0 508.0,594.0 500.0,594.0 z"/>
<path d="M 512.0,592.0 512.0,594.0 514.0,594.0 514.0,604.0 512.0,604.0 512.0,606.0 518.0,606.0 518.0,604.0 516.0,604.0 516.0,592.0 512.0,592.0 z"/>
<path d="M 520.0,594.0 520.0,604.0 522.0,604.0 522.0,606.0 528.0,606.0 528.0,604.0 530.0,604.0 530.0,594.0 528.0,594.0 528.0,592.0 522.0,592.0 522.0,604.0 528.0,604.0 528.0,594.0 520.0,594.0 z"/>
<path d="M 532.0,594.0 532.0,604.0 534.0,604.0 534.0,606.0 540.0,606.0 540.0,604.0 542.0,604.0 542.0,594.0 540.0,594.0 540.0,592.0 534.0,592.0 534.0,604.0 540.0,604.0 540.0,594.0 532.0,594.0 z"/>
<path d="M 544.0,592.0 544.0,594.0 546.0,594.0 546.0,604.0 544.0,604.0 544.0,606.0 550.0,606.0 550.0,604.0 548.0,604.0 548.0,592.0 544.0,592.0 z"/>
<path d="M 552.0,592.0 552.0,594.0 554.0,594.0 554.0,604.0 552.0,604.0 552.0,606.0 558.0,606.0 558.0,604.0 556.0,604.0 556.0,592.0 552.0,592.0 z"/>
<path d="M 612.0,594.0 612.0,604.0 614.0,604.0 614.0,606.0 620.0,606.0 620.0,604.0 622.0,604.0 622.0,594.0 620.0,594.0 620.0,592.0 614.0,592.0 614.0,604.0 620.0,604.0 620.0,594.0 612.0,594.0 z"/>
<path d="M 644.0,594.0 644.0,604.0 646.0,604.0 646.0,606.0 652.0,606.0 652.0,604.0 654.0,604.0 654.0,594.0 652.0,594.0 652.0,592.0 646.0,592.0 646.0,604.0 652.0,604.0 652.0,594.0 644.0,594.0 z"/>
<path d="M 656.0,594.0 656.0,604.0 658.0,604.0 658.0,606.0 664.0,606.0 664.0,604.0 666.0,604.0 666.0,594.0 664.0,594.0 664.0,592.0 658.0,592.0 658.0,604.0 664.0,604.0 664.0,594.0 656.0,594.0 z"/>
<path d="M 668.0,592.0 668.0,594.0 670.0,594.0 670.0,604.0 668.0,604.0 668.0,606.0 674.0,606.0 674.0,604.0 672.0,604.0 672.0,592.0 668.0,592.0 z"/>
<path d="M 676.0,592.0 676.0,594.0 678.0,594.0 678.0,604.0 676.0,604.0 676.0,606.0 682.0,606.0 682.0,604.0 680.0,604.0 680.0,592.0 676.0,592.0 z"/>
<path d="M 684.0,594.0 684.0,604.0 686.0,604.0 686.0,606.0 692.0,606.0 692.0,604.0 694.0,604.0 694.0,594.0 692.0,594.0 692.0,592.0 686.0,592.0 686.0,604.0 692.0,604.0 692.0,594.0 684.0,594.0 z"/>
<path d="M 696.0,594.0 696.0,604.0 698.0,604.0 698.0,606.0 704.0,606.0 704.0,604.0 706.0,604.0 706.0,594.0 704.0,594.0 704.0,592.0 698.0,592.0 698.0,604.0 704.0,604.0 704.0,594.0 696.0,594.0 z"/>
<path d="M 708.0,594.0 708.0,604.0 710.0,604.0 710.0,606.0 716.0,606.0 716.0,604.0 718.0,604.0 718.0,594.0 716.0,594.0 716.0,592.0 710.0,592.0 710.0,604.0 716.0,604.0 716.0,594.0 708.0,594.0 z"/>
<path d="M 720.0,592.0 720.0,594.0 722.0,594.0 722.0,604.0 720.0,604.0 720.0,606.0 726.0,606.0 726.0,604.0 724.0,604.0 724.0,592.0 720.0,592.0 z"/>
<path d="M 728.0,594.0 728.0,604.0 730.0,604.0 730.0,606.0 736.0,606.0 736.0,604.0 738.0,604.0 738.0,594.0 736.0,594.0 736.0,592.0 730.0,592.0 730.0,604.0 736.0,604.0 736.0,594.0 728.0,594.0 z"/>
<path d="M 424.0,608.0 424.0,610.0 426.0,610.0 426.0,620.0 424.0,620.0 424.0,622.0 430.0,622.0 430.0,620.0 428.0,620.0 428.0,608.0 424.0,608.0 z"/>
<path d="M 432.0,608.0 432.0,610.0 434.0,610.0 434.0,620.0 432.0,620.0 432.0,622.0 438.0,622.0 438.0,620.0 436.0,620.0 436.0,608.0 432.0,608.0 z"/>
<path d="M 440.0,610.0 440.0,620.0 442.0,620.0 442.0,622.0 448.0,622.0 448.0,620.0 450.0,620.0 450.0,610.0 448.0,610.0 448.0,608.0 442.0,608.0 442.0,620.0 448.0,620.0 448.0,610.0 440.0,610.0 z"/>
<path d="M 452.0,608.0 452.0,610.0 454.0,610.0 454.0,620.0 452.0,620.0 452.0,622.0 458.0,622.0 458.0,620.0 456.0,620.0 456.0,608.0 452.0,608.0 z"/>
<path d="M 460.0,608.0 460.0,610.0 462.0,610.0 462.0,620.0 460.0,620.0 460.0,622.0 466.0,622.0 466.0,620.0 464.0,620.0 464.0,608.0 460.0,608.0 z"/>
<path d="M 468.0,608.0 468.0,610.0 470.0,610.0 470.0,620.0 468.0,620.0 468.0,622.0 474.0,622.0 474.0,620.0 472.0,620.0 472.0,608.0 468.0,608.0 z"/>
<path d="M 476.0,608.0 476.0,610.0 478.0,610.0 478.0,620.0 476.0,620.0 476.0,622.0 482.0,622.0 482.0,620.0 480.0,620.0 480.0,608.0 476.0,608.0 z"/>
<path d="M 484.0,608.0 484.0,610.0 486.0,610.0 486.0,620.0 484.0,620.0 484.0,622.0 490.0,622.0 490.0,620.0 488.0,620.0 488.0,608.0 484.0,608.0 z"/>
<path d="M 492.0,608.0 492.0,610.0 494.0,610.0 494.0,620.0 492.0,620.0 492.0,622.0 498.0,622.0 498.0,620.0 496.0,620.0 496.0,608.0 492.0,608.0 z"/>
<path d="M 500.0,608.0 500.0,610.0 502.0,610.0 502.0,620.0 500.0,620.0 500.0,622.0 506.0,622.0 506.0,620.0 504.0,620.0 504.0,608.0 500.0,608.0 z"/>
<path d="M 508.0,608.0 508.0,610.0 510.0,610.0 510.0,620.0 508.0,620.0 508.0,622.0 514.0,622.0 514.0,620.0 512.0,620.0 512.0,608.0 508.0,608.0 z"/>
<path d="M 516.0,610.0 516.0,620.0 518.0,620.0 518.0,622.0 524.0,622.0 524.0,620.0 526.0,620.0 526.0,610.0 524.0,610.0 524.0,608.0 518.0,608.0 518.0,620.0 524.0,620.0 524.0,610.0 516.0,610.0 z"/>
<path d="M 528.0,608.0 528.0,610.0 530.0,610.0 530.0,620.0 528.0,620.0 528.0,622.0 534.0,622.0 534.0,620.0 532.0,620.0 532.0,608.0 528.0,608.0 z"/>
<path d="M 536.0,610.0 536.0,620.0 538.0,620.0 538.0,622.0 544.0,622.0 544.0,620.0 546.0,620.0 546.0,610.0 544.0,610.0 544.0,608.0 538.0,608.0 538.0,620.0 544.0,620.0 544.0,610.0 536.0,610.0 z"/>
<path d="M 652.0,610.0 652.0,620.0 654.0,620.0 654.0,622.0 660.0,622.0 660.0,620.0 662.0,620.0 662.0,610.0 660.0,610.0 660.0,608.0 654.0,608.0 654.0,620.0 660.0,620.0 660.0,610.0 652.0,610.0 z"/>
<path d="M 664.0,610.0 664.0,620.0 666.0,620.0 666.0,622.0 672.0,622.0 672.0,620.0 674.0,620.0 674.0,610.0 672.0,610.0 672.0,608.0 666.0,608.0 666.0,620.0 672.0,620.0 672.0,610.0 664.0,610.0 z"/>
<path d="M 676.0,610.0 676.0,620.0 678.0,620.0 678.0,622.0 684.0,622.0 684.0,620.0 686.0,620.0 686.0,610.0 684.0,610.0 684.0,608.0 678.0,608.0 678.0,620.0 684.0,620.0 684.0,610.0 676.0,610.0 z"/>
<path d="M 688.0,610.0 688.0,620.0 690.0,620.0 690.0,622.0 696.0,622.0 696.0,620.0 698.0,620.0 698.0,610.0 696.0,610.0 696.0,608.0 690.0,608.0 690.0,620.0 696.0,620.0 696.0,610.0 688.0,610.0 z"/>
<path d="M 700.0,608.0 700.0,610.0 702.0,610.0 702.0,620.0 700.0,620.0 700.0,622.0 706.0,622.0 706.0,620.0 704.0,620.0 704.0,608.0 700.0,608.0 z"/>
<path d="M 708.0,608.0 708.0,610.0 710.0,610.0 710.0,620.0 708.0,620.0 708.0,622.0 714.0,622.0 714.0,620.0 712.0,620.0 712.0,608.0 708.0,608.0 z"/>
<path d="M 716.0,610.0 716.0,620.0 718.0,620.0 718.0,622.0 724.0,622.0 724.0,620.0 726.0,620.0 726.0,610.0 724.0,610.0 724.0,608.0 718.0,608.0 718.0,620.0 724.0,620.0 724.0,610.0 716.0,610.0 z"/>
<path d="M 728.0,610.0 728.0,620.0 730.0,620.0 730.0,622.0 736.0,622.0 736.0,620.0 738.0,620.0 738.0,610.0 736.0,610.0 736.0,608.0 730.0,608.0 730.0,620.0 736.0,620.0 736.0,610.0 728.0,610.0 z"/>
<path d="M 740.0,610.0 740.0,620.0 742.0,620.0 742.0,622.0 748.0,622.0 748.0,620.0 750.0,620.0 750.0,610.0 748.0,610.0 748.0,608.0 742.0,608.0 742.0,620.0 748.0,620.0 748.0,610.0 740.0,610.0 z"/>
<path d="M 752.0,610.0 752.0,620.0 754.0,620.0 754.0,622.0 760.0,622.0 760.0,620.0 762.0,620.0 762.0,610.0 760.0,610.0 760.0,608.0 754.0,608.0 754.0,620.0 760.0,620.0 760.0,610.0 752.0,610.0 z"/>
<path d="M 472.0,624.0 472.0,626.0 474.0,626.0 474.0,636.0 472.0,636.0 472.0,638.0 478.0,638.0 478.0,636.0 476.0,636.0 476.0,624.0 472.0,624.0 z"/>
<path d="M 480.0,624.0 480.0,626.0 482.0,626.0 482.0,636.0 480.0,636.0 480.0,638.0 486.0,638.0 486.0,636.0 484.0,636.0 484.0,624.0 480.0,624.0 z"/>
<path d="M 488.0,624.0 488.0,626.0 490.0,626.0 490.0,636.0 488.0,636.0 488.0,638.0 494.0,638.0 494.0,636.0 492.0,636.0 492.0,624.0 488.0,624.0 z"/>
<path d="M 496.0,624.0 496.0,626.0 498.0,626.0 498.0,636.0 496.0,636.0 496.0,638.0 502.0,638.0 502.0,636.0 500.0,636.0 500.0,624.0 496.0,624.0 z"/>
<path d="M 504.0,624.0 504.0,626.0 506.0,626.0 506.0,636.0 504.0,636.0 504.0,638.0 510.0,638.0 510.0,636.0 508.0,636.0 508.0,624.0 504.0,624.0 z"/>
<path d="M 512.0,626.0 512.0,636.0 514.0,636.0 514.0,638.0 520.0,638.0 520.0,636.0 522.0,636.0 522.0,626.0 520.0,626.0 520.0,624.0 514.0,624.0 514.0,636.0 520.0,636.0 520.0,626.0 512.0,626.0 z"/>
<path d="M 524.0,624.0 524.0,626.0 526.0,626.0 526.0,636.0 524.0,636.0 524.0,638.0 530.0,638.0 530.0,636.0 528.0,636.0 528.0,624.0 524.0,624.0 z"/>
<path d="M 532.0,626.0 532.0,636.0 534.0,636.0 534.0,638.0 540.0,638.0 540.0,636.0 542.0,636.0 542.0,626.0 540.0,626.0 540.0,624.0 534.0,624.0 534.0,636.0 540.0,636.0 540.0,626.0 532.0,626.0 z"/>
<path d="M 656.0,624.0 656.0,626.0 658.0,626.0 658.0,636.0 656.0,636.0 656.0,638.0 662.0,638.0 662.0,636.0 660.0,636.0 660.0,624.0 656.0,624.0 z"/>
<path d="M 664.0,624.0 664.0,626.0 666.0,626.0 666.0,636.0 664.0,636.0 664.0,638.0 670.0,638.0 670.0,636.0 668.0,636.0 668.0,624.0 664.0,624.0 z"/>
<path d="M 672.0,626.0 672.0,636.0 674.0,636.0 674.0,638.0 680.0,638.0 680.0,636.0 682.0,636.0 682.0,626.0 680.0,626.0 680.0,624.0 674.0,624.0 674.0,636.0 680.0,636.0 680.0,626.0 672.0,626.0 z"/>
<path d="M 684.0,626.0 684.0,636.0 686.0,636.0 686.0,638.0 692.0,638.0 692.0,636.0 694.0,636.0 694.0,626.0 692.0,626.0 692.0,624.0 686.0,624.0 686.0,636.0 692.0,636.0 692.0,626.0 684.0,626.0 z"/>
<path d="M 696.0,626.0 696.0,636.0 698.0,636.0 698.0,638.0 704.0,638.0 704.0,636.0 706.0,636.0 706.0,626.0 704.0,626.0 704.0,624.0 698.0,624.0 698.0,636.0 704.0,636.0 704.0,626.0 696.0,626.0 z"/>
<path d="M 708.0,624.0 708.0,626.0 710.0,626.0 710.0,636.0 708.0,636.0 708.0,638.0 714.0,638.0 714.0,636.0 712.0,636.0 712.0,624.0 708.0,624.0 z"/>
<path d="M 716.0,624.0 716.0,626.0 718.0,626.0 718.0,636.0 716.0,636.0 716.0,638.0 722.0,638.0 722.0,636.0 720.0,636.0 720.0,624.0 716.0,624.0 z"/>
<path d="M 504.0,642.0 504.0,652.0 506.0,652.0 506.0,654.0 512.0,654.0 512.0,652.0 514.0,652.0 514.0,642.0 512.0,642.0 512.0,640.0 506.0,640.0 506.0,652.0 512.0,652.0 512.0,642.0 504.0,642.0 z"/>
<path d="M 516.0,640.0 516.0,642.0 518.0,642.0 518.0,652.0 516.0,652.0 516.0,654.0 522.0,654.0 522.0,652.0 520.0,652.0 520.0,640.0 516.0,640.0 z"/>
<path d="M 668.0,642.0 668.0,652.0 670.0,652.0 670.0,654.0 676.0,654.0 676.0,652.0 678.0,652.0 678.0,642.0 676.0,642.0 676.0,640.0 670.0,640.0 670.0,652.0 676.0,652.0 676.0,642.0 668.0,642.0 z"/>
<path d="M 680.0,640.0 680.0,642.0 682.0,642.0 682.0,652.0 680.0,652.0 680.0,654.0 686.0,654.0 686.0,652.0 684.0,652.0 684.0,640.0 680.0,640.0 z"/>
<path d="M 688.0,642.0 688.0,652.0 690.0,652.0 690.0,654.0 696.0,654.0 696.0,652.0 698.0,652.0 698.0,642.0 696.0,642.0 696.0,640.0 690.0,640.0 690.0,652.0 696.0,652.0 696.0,642.0 688.0,642.0 z"/>
<path d="M 700.0,640.0 700.0,642.0 702.0,642.0 702.0,652.0 700.0,652.0 700.0,654.0 706.0,654.0 706.0,652.0 704.0,652.0 704.0,640.0 700.0,640.0 z"/>
<path d="M 496.0,658.0 496.0,668.0 498.0,668.0 498.0,670.0 504.0,670.0 504.0,668.0 506.0,668.0 506.0,658.0 504.0,658.0 504.0,656.0 498.0,656.0 498.0,668.0 504.0,668.0 504.0,658.0 496.0,658.0 z"/>
<path d="M 692.0,658.0 692.0,668.0 694.0,668.0 694.0,670.0 700.0,670.0 700.0,668.0 702.0,668.0 702.0,658.0 700.0,658.0 700.0,656.0 694.0,656.0 694.0,668.0 700.0,668.0 700.0,658.0 692.0,658.0 z"/>
<path d="M 712.0,672.0 712.0,674.0 714.0,674.0 714.0,684.0 712.0,684.0 712.0,686.0 718.0,686.0 718.0,684.0 716.0,684.0 716.0,672.0 712.0,672.0 z"/>
</g></svg>