<svg height="1200" width="1200" 
xmlns="http://www.w3.org/2000/svg" xmlns:svg="http://www.w3.org/2000/svg" xmlns:xlink="http://www.w3.org/1999/xlink"> 
<g style="stroke:#000000;stroke-width:0.5;fill:none">
<path d="M 560.0,288.0 560.0,290.0 562.0,290.0 562.0,300.0 560.0,300.0 560.0,302.0 566.0,302.0 566.0,300.0 564.0,300.0 564.0,288.0 560.0,288.0 z"/>
<path d="M 568.0,288.0 568.0,290.0 570.0,290.0 570.0,300.0 568.0,300.0 568.0,302.0 574.0,302.0 574.0,300.0 572.0,300.0 572.0,288.0 568.0,288.0 z"/>
<path d="M 576.0,288.0 576.0,290.0 578.0,290.0 578.0,300.0 576.0,300.0 576.0,302.0 582.0,302.0 582.0,300.0 580.0,300.0 580.0,288.0 576.0,288.0 z"/>
<path d="M 584.0,288.0 584.0,290.0 586.0,290.0 586.0,300.0 584.0,300.0 584.0,302.0 590.0,302.0 590.0,300.0 588.0,300.0 588.0,288.0 584.0,288.0 z"/>
<path d="M 592.0,288.0 592.0,290.0 594.0,290.0 594.0,300.0 592.0,300.0 592.0,302.0 598.0,302.0 598.0,300.0 596.0,300.0 596.0,288.0 592.0,288.0 z"/>
<path d="M 600.0,290.0 600.0,300.0 602.0,300.0 602.0,302.0 608.0,302.0 608.0,300.0 610.0,300.0 610.0,290.0 608.0,290.0 608.0,288.0 602.0,288.0 602.0,300.0 608.0,300.0 608.0,290.0 600.0,290.0 z"/>
<path d="M 612.0,290.0 612.0,300.0 614.0,300.0 614.0,302.0 620.0,302.0 620.0,300.0 622.0,300.0 622.0,290.0 620.0,290.0 620.0,288.0 614.0,288.0 614.0,300.0 620.0,300.0 620.0,290.0 612.0,290.0 z"/>
<path d="M 548.0,306.0 548.0,316.0 550.0,316.0 550.0,318.0 556.0,318.0 556.0,316.0 558.0,316.0 558.0,306.0 556.0,306.0 556.0,304.0 550.0,304.0 550.0,316.0 556.0,316.0 556.0,306.0 548.0,306.0 z"/>
<path d="M 560.0,304.0 560.0,306.0 562.0,306.0 562.0,316.0 560.0,316.0 560.0,318.0 566.0,318.0 566.0,316.0 564.0,316.0 564.0,304.0 560.0,304.0 z"/>
<path d="M 568.0,304.0 568.0,306.0 570.0,306.0 570.0,316.0 568.0,316.0 568.0,318.0 574.0,318.0 574.0,316.0 572.0,316.0 572.0,304.0 568.0,304.0 z"/>
<path d="M 576.0,306.0 576.0,316.0 578.0,316.0 578.0,318.0 584.0,318.0 584.0,316.0 586.0,316.0 586.0,306.0 584.0,306.0 584.0,304.0 578.0,304.0 578.0,316.0 584.0,316.0 584.0,306.0 576.0,306.0 z"/>
<path d="M 588.0,304.0 588.0,306.0 590.0,306.0 590.0,316.0 588.0,316.0 588.0,318.0 594.0,318.0 594.0,316.0 592.0,316.0 592.0,304.0 588.0,304.0 z"/>
<path d="M 596.0,304.0 596.0,306.0 598.0,306.0 598.0,316.0 596.0,316.0 596.0,318.0 602.0,318.0 602.0,316.0 600.0,316.0 600.0,304.0 596.0,304.0 z"/>
<path d="M 604.0,304.0 604.0,306.0 606.0,306.0 606.0,316.0 604.0,316.0 604.0,318.0 610.0,318.0 610.0,316.0 608.0,316.0 608.0,304.0 604.0,304.0 z"/>
<path d="M 612.0,304.0 612.0,306.0 614.0,306.0 614.0,316.0 612.0,316.0 612.0,318.0 618.0,318.0 618.0,316.0 616.0,316.0 616.0,304.0 612.0,304.0 z"/>
<path d="M 620.0,304.0 620.0,306.0 622.0,306.0 622.0,316.0 620.0,316.0 620.0,318.0 626.0,318.0 626.0,316.0 624.0,316.0 624.0,304.0 620.0,304.0 z"/>
<path d="M 628.0,306.0 628.0,316.0 630.0,316.0 630.0,318.0 636.0,318.0 636.0,316.0 638.0,316.0 638.0,306.0 636.0,306.0 636.0,304.0 630.0,304.0 630.0,316.0 636.0,316.0 636.0,306.0 628.0,306.0 z"/>
<path d="M 560.0,322.0 560.0,332.0 562.0,332.0 562.0,334.0 568.0,334.0 568.0,332.0 570.0,332.0 570.0,322.0 568.0,322.0 568.0,320.0 562.0,320.0 562.0,332.0 568.0,332.0 568.0,322.0 560.0,322.0 z"/>
<path d="M 572.0,322.0 572.0,332.0 574.0,332.0 574.0,334.0 580.0,334.0 580.0,332.0 582.0,332.0 582.0,322.0 580.0,322.0 580.0,320.0 574.0,320.0 574.0,332.0 580.0,332.0 580.0,322.0 572.0,322.0 z"/>
<path d="M 584.0,322.0 584.0,332.0 586.0,332.0 586.0,334.0 592.0,334.0 592.0,332.0 594.0,332.0 594.0,322.0 592.0,322.0 592.0,320.0 586.0,320.0 586.0,332.0 592.0,332.0 592.0,322.0 584.0,322.0 z"/>
<path d="M 596.0,320.0 596.0,322.0 598.0,322.0 598.0,332.0 596.0,332.0 596.0,334.0 602.0,334.0 602.0,332.0 600.0,332.0 600.0,320.0 596.0,320.0 z"/>
<path d="M 604.0,322.0 604.0,332.0 606.0,332.0 606.0,334.0 612.0,334.0 612.0,332.0 614.0,332.0 614.0,322.0 612.0,322.0 612.0,320.0 606.0,320.0 606.0,332.0 612.0,332.0 612.0,322.0 604.0,322.0 z"/>
<path d="M 616.0,320.0 616.0,322.0 618.0,322.0 618.0,332.0 616.0,332.0 616.0,334.0 622.0,334.0 622.0,332.0 620.0,332.0 620.0,320.0 616.0,320.0 z"/>
<path d="M 576.0,338.0 576.0,348.0 578.0,348.0 578.0,350.0 584.0,350.0 584.0,348.0 586.0,348.0 586.0,338.0 584.0,338.0 584.0,336.0 578.0,336.0 578.0,348.0 584.0,348.0 584.0,338.0 576.0,338.0 z"/>
<path d="M 588.0,336.0 588.0,338.0 590.0,338.0 590.0,348.0 588.0,348.0 588.0,350.0 594.0,350.0 594.0,348.0 592.0,348.0 592.0,336.0 588.0,336.0 z"/>
<path d="M 596.0,336.0 596.0,338.0 598.0,338.0 598.0,348.0 596.0,348.0 596.0,350.0 602.0,350.0 602.0,348.0 600.0,348.0 600.0,336.0 596.0,336.0 z"/>
<path d="M 604.0,338.0 604.0,348.0 606.0,348.0 606.0,350.0 612.0,350.0 612.0,348.0 614.0,348.0 614.0,338.0 612.0,338.0 612.0,336.0 606.0,336.0 606.0,348.0 612.0,348.0 612.0,338.0 604.0,338.0 z"/>
<path d="M 584.0,354.0 584.0,364.0 586.0,364.0 586.0,366.0 592.0,366.0 592.0,364.0 594.0,364.0 594.0,354.0 592.0,354.0 592.0,352.0 586.0,352.0 586.0,364.0 592.0,364.0 592.0,354.0 584.0,354.0 z"/>
<path d="M 596.0,352.0 596.0,354.0 598.0,354.0 598.0,364.0 596.0,364.0 596.0,366.0 602.0,366.0 602.0,364.0 600.0,364.0 600.0,352.0 596.0,352.0 z"/>
<path d="M 604.0,354.0 604.0,364.0 606.0,364.0 606.0,366.0 612.0,366.0 612.0,364.0 614.0,364.0 614.0,354.0 612.0,354.0 612.0,352.0 606.0,352.0 606.0,364.0 612.0,364.0 612.0,354.0 604.0,354.0 z"/>
<path d="M 588.0,370.0 588.0,380.0 590.0,380.0 590.0,382.0 596.0,382.0 596.0,380.0 598.0,380.0 598.0,370.0 596.0,370.0 596.0,368.0 590.0,368.0 590.0,380.0 596.0,380.0 596.0,370.0 588.0,370.0 z"/>
<path d="M 600.0,368.0 600.0,370.0 602.0,370.0 602.0,380.0 600.0,380.0 600.0,382.0 606.0,382.0 606.0,380.0 604.0,380.0 604.0,368.0 600.0,368.0 z"/>
<path d="M 608.0,368.0 608.0,370.0 610.0,370.0 610.0,380.0 608.0,380.0 608.0,382.0 614.0,382.0 614.0,380.0 612.0,380.0 612.0,368.0 608.0,368.0 z"/>
<path d="M 584.0,386.0 584.0,396.0 586.0,396.0 586.0,398.0 592.0,398.0 592.0,396.0 594.0,396.0 594.0,386.0 592.0,386.0 592.0,384.0 586.0,384.0 586.0,396.0 592.0,396.0 592.0,386.0 584.0,386.0 z"/>
<path d="M 596.0,386.0 596.0,396.0 598.0,396.0 598.0,398.0 604.0,398.0 604.0,396.0 606.0,396.0 606.0,386.0 604.0,386.0 604.0,384.0 598.0,384.0 598.0,396.0 604.0,396.0 604.0,386.0 596.0,386.0 z"/>
<path d="M 584.0,402.0 584.0,412.0 586.0,412.0 586.0,414.0 592.0,414.0 592.0,412.0 594.0,412.0 594.0,402.0 592.0,402.0 592.0,400.0 586.0,400.0 586.0,412.0 592.0,412.0 592.0,402.0 584.0,402.0 z"/>
<path d="M 596.0,400.0 596.0,402.0 598.0,402.0 598.0,412.0 596.0,412.0 596.0,414.0 602.0,414.0 602.0,412.0 600.0,412.0 600.0,400.0 596.0,400.0 z"/>
<path d="M 604.0,400.0 604.0,402.0 606.0,402.0 606.0,412.0 604.0,412.0 604.0,414.0 610.0,414.0 610.0,412.0 608.0,412.0 608.0,400.0 604.0,400.0 z"/>
<path d="M 588.0,418.0 588.0,428.0 590.0,428.0 590.0,430.0 596.0,430.0 596.0,428.0 598.0,428.0 598.0,418.0 596.0,418.0 596.0,416.0 590.0,416.0 590.0,428.0 596.0,428.0 596.0,418.0 588.0,418.0 z"/>
<path d="M 600.0,416.0 600.0,418.0 602.0,418.0 602.0,428.0 600.0,428.0 600.0,430.0 606.0,430.0 606.0,428.0 604.0,428.0 604.0,416.0 600.0,416.0 z"/>
<path d="M 588.0,434.0 588.0,444.0 590.0,444.0 590.0,446.0 596.0,446.0 596.0,444.0 598.0,444.0 598.0,434.0 596.0,434.0 596.0,432.0 590.0,432.0 590.0,444.0 596.0,444.0 596.0,434.0 588.0,434.0 z"/>
<path d="M 600.0,432.0 600.0,434.0 602.0,434.0 602.0,444.0 600.0,444.0 600.0,446.0 606.0,446.0 606.0,444.0 604.0,444.0 604.0,432.0 600.0,432.0 z"/>
<path d="M 588.0,450.0 588.0,460.0 590.0,460.0 590.0,462.0 596.0,462.0 596.0,460.0 598.0,460.0 598.0,450.0 596.0,450.0 596.0,448.0 590.0,448.0 590.0,460.0 596.0,460.0 596.0,450.0 588.0,450.0 z"/>
<path d="M 600.0,448.0 600.0,450.0 602.0,450.0 602.0,460.0 600.0,460.0 600.0,462.0 606.0,462.0 606.0,460.0 604.0,460.0 604.0,448.0 600.0,448.0 z"/>
<path d="M 588.0,464.0 588.0,466.0 590.0,466.0 590.0,476.0 588.0,476.0 588.0,478.0 594.0,478.0 594.0,476.0 592.0,476.0 592.0,464.0 588.0,464.0 z"/>
<path d="M 596.0,464.0 596.0,466.0 598.0,466.0 598.0,476.0 596.0,476.0 596.0,478.0 602.0,478.0 602.0,476.0 600.0,476.0 600.0,464.0 596.0,464.0 z"/>
<path d="M 604.0,464.0 604.0,466.0 606.0,466.0 606.0,476.0 604.0,476.0 604.0,478.0 610.0,478.0 610.0,476.0 608.0,476.0 608.0,464.0 604.0,464.0 z"/>
<path d="M 596.0,480.0 596.0,482.0 598.0,482.0 598.0,492.0 596.0,492.0 596.0,494.0 602.0,494.0 602.0,492.0 600.0,492.0 600.0,480.0 596.0,480.0 z"/>
<path d="M 604.0,482.0 604.0,492.0 606.0,492.0 606.0,494.0 612.0,494.0 612.0,492.0 614.0,492.0 614.0,482.0 612.0,482.0 612.0,480.0 606.0,480.0 606.0,492.0 612.0,492.0 612.0,482.0 604.0,482.0 z"/>
<path d="M 592.0,498.0 592.0,508.0 594.0,508.0 594.0,510.0 600.0,510.0 600.0,508.0 602.0,508.0 602.0,498.0 600.0,498.0 600.0,496.0 594.0,496.0 594.0,508.0 600.0,508.0 600.0,498.0 592.0,498.0 z"/>
<path d="M 620.0,578.0 620.0,588.0 622.0,588.0 622.0,590.0 628.0,590.0 628.0,588.0 630.0,588.0 630.0,578.0 628.0,578.0 628.0,576.0 622.0,576.0 622.0,588.0 628.0,588.0 628.0,578.0 620.0,578.0 z"/>
<path d="M 624.0,594.0 624.0,604.0 626.0,604.0 626.0,606.0 632.0,606.0 632.0,604.0 634.0,604.0 634.0,594.0 632.0,594.0 632.0,592.0 626.0,592.0 626.0,604.0 632.0,604.0 632.0,594.0 624.0,594.0 z"/>
<path d="M 624.0,608.0 624.0,610.0 626.0,610.0 626.0,620.0 624.0,620.0 624.0,622.0 630.0,622.0 630.0,620.0 628.0,620.0 628.0,608.0 624.0,608.0 z"/>
<path d="M 632.0,610.0 632.0,620.0 634.0,620.0 634.0,622.0 640.0,622.0 640.0,620.0 642.0,620.0 642.0,610.0 640.0,610.0 640.0,608.0 634.0,608.0 634.0,620.0 640.0,620.0 640.0,610.0 632.0,610.0 z"/>
<path d="M 628.0,624.0 628.0,626.0 630.0,626.0 630.0,636.0 628.0,636.0 628.0,638.0 634.0,638.0 634.0,636.0 632.0,636.0 632.0,624.0 628.0,624.0 z"/>
<path d="M 636.0,624.0 636.0,626.0 638.0,626.0 638.0,636.0 636.0,636.0 636.0,638.0 642.0,638.0 642.0,636.0 640.0,636.0 640.0,624.0 636.0,624.0 z"/>
<path d="M 644.0,626.0 644.0,636.0 646.0,636.0 646.0,638.0 652.0,638.0 652.0,636.0 654.0,636.0 654.0,626.0 652.0,626.0 652.0,624.0 646.0,624.0 646.0,636.0 652.0,636.0 652.0,626.0 644.0,626.0 z"/>
<path d="M 644.0,642.0 644.0,652.0 646.0,652.0 646.0,654.0 652.0,654.0 652.0,652.0 654.0,652.0 654.0,642.0 652.0,642.0 652.0,640.0 646.0,640.0 646.0,652.0 652.0,652.0 652.0,642.0 644.0,642.0 z"/>
<path d="M 656.0,642.0 656.0,652.0 658.0,652.0 658.0,654.0 664.0,654.0 664.0,652.0 666.0,652.0 666.0,642.0 664.0,642.0 664.0,640.0 658.0,640.0 658.0,652.0 664.0,652.0 664.0,642.0 656.0,642.0 z"/>
<path d="M 668.0,642.0 668.0,652.0 670.0,652.0 670.0,654.0 676.0,654.0 676.0,652.0 678.0,652.0 678.0,642.0 676.0,642.0 676.0,640.0 670.0,640.0 670.0,652.0 676.0,652.0 676.0,642.0 668.0,642.0 z"/>
<path d="M 664.0,656.0 664.0,658.0 666.0,658.0 666.0,668.0 664.0,668.0 664.0,670.0 670.0,670.0 670.0,668.0 668.0,668.0 668.0,656.0 664.0,656.0 z"/>
<path d="M 672.0,658.0 672.0,668.0 674.0,668.0 674.0,670.0 680.0,670.0 680.0,668.0 682.0,668.0 682.0,658.0 680.0,658.0 680.0,656.0 674.0,656.0 674.0,668.0 680.0,668.0 680.0,658.0 672.0,658.0 z"/>
<path d="M 684.0,658.0 684.0,668.0 686.0,668.0 686.0,670.0 692.0,670.0 692.0,668.0 694.0,668.0 694.0,658.0 692.0,658.0 692.0,656.0 686.0,656.0 686.0,668.0 692.0,668.0 692.0,658.0 684.0,658.0 z"/>
<path d="M 696.0,656.0 696.0,658.0 698.0,658.0 698.0,668.0 696.0,668.0 696.0,670.0 702.0,670.0 702.0,668.0 700.0,668.0 700.0,656.0 696.0,656.0 z"/>
<path d="M 720.0,498.0 720.0,508.0 722.0,508.0 722.0,510.0 728.0,510.0 728.0,508.0 730.0,508.0 730.0,498.0 728.0,498.0 728.0,496.0 722.0,496.0 722.0,508.0 728.0,508.0 728.0,498.0 720.0,498.0 z"/>
<path d="M 732.0,496.0 732.0,498.0 734.0,498.0 734.0,508.0 732.0,508.0 732.0,510.0 738.0,510.0 738.0,508.0 736.0,508.0 736.0,496.0 732.0,496.0 z"/>
<path d="M 740.0,496.0 740.0,498.0 742.0,498.0 742.0,508.0 740.0,508.0 740.0,510.0 746.0,510.0 746.0,508.0 744.0,508.0 744.0,496.0 740.0,496.0 z"/>
<path d="M 748.0,498.0 748.0,508.0 750.0,508.0 750.0,510.0 756.0,510.0 756.0,508.0 758.0,508.0 758.0,498.0 756.0,498.0 756.0,496.0 750.0,496.0 750.0,508.0 756.0,508.0 756.0,498.0 748.0,498.0 z"/>
<path d="M 760.0,498.0 760.0,508.0 762.0,508.0 762.0,510.0 768.0,510.0 768.0,508.0 770.0,508.0 770.0,498.0 768.0,498.0 768.0,496.0 762.0,496.0 762.0,508.0 768.0,508.0 768.0,498.0 760.0,498.0 z"/>
<path d="M 772.0,496.0 772.0,498.0 774.0,498.0 774.0,508.0 772.0,508.0 772.0,510.0 778.0,510.0 778.0,508.0 776.0,508.0 776.0,496.0 772.0,496.0 z"/>
<path d="M 780.0,498.0 780.0,508.0 782.0,508.0 782.0,510.0 788.0,510.0 788.0,508.0 790.0,508.0 790.0,498.0 788.0,498.0 788.0,496.0 782.0,496.0 782.0,508.0 788.0,508.0 788.0,498.0 780.0,498.0 z"/>
<path d="M 792.0,498.0 792.0,508.0 794.0,508.0 794.0,510.0 800.0,510.0 800.0,508.0 802.0,508.0 802.0,498.0 800.0,498.0 800.0,496.0 794.0,496.0 794.0,508.0 800.0,508.0 800.0,498.0 792.0,498.0 z"/>
<path d="M 784.0,514.0 784.0,524.0 786.0,524.0 786.0,526.0 792.0,526.0 792.0,524.0 794.0,524.0 794.0,514.0 792.0,514.0 792.0,512.0 786.0,512.0 786.0,524.0 792.0,524.0 792.0,514.0 784.0,514.0 z"/>
<path d="M 796.0,514.0 796.0,524.0 798.0,524.0 798.0,526.0 804.0,526.0 804.0,524.0 806.0,524.0 806.0,514.0 804.0,514.0 804.0,512.0 798.0,512.0 798.0,524.0 804.0,524.0 804.0,514.0 796.0,514.0 z"/>
<path d="M 808.0,514.0 808.0,524.0 810.0,524.0 810.0,526.0 816.0,526.0 816.0,524.0 818.0,524.0 818.0,514.0 816.0,514.0 816.0,512.0 810.0,512.0 810.0,524.0 816.0,524.0 816.0,514.0 808.0,514.0 z"/>
<path d="M 812.0,528.0 812.0,530.0 814.0,530.0 814.0,540.0 812.0,540.0 812.0,542.0 818.0,542.0 818.0,540.0 816.0,540.0 816.0,528.0 812.0,528.0 z"/>
<path d="M 820.0,530.0 820.0,540.0 822.0,540.0 822.0,542.0 828.0,542.0 828.0,540.0 830.0,540.0 830.0,530.0 828.0,530.0 828.0,528.0 822.0,528.0 822.0,540.0 828.0,540.0 828.0,530.0 820.0,530.0 z"/>
<path d="M 832.0,530.0 832.0,540.0 834.0,540.0 834.0,542.0 840.0,542.0 840.0,540.0 842.0,540.0 842.0,530.0 840.0,530.0 840.0,528.0 834.0,528.0 834.0,540.0 840.0,540.0 840.0,530.0 832.0,530.0 z"/>
<path d="M 832.0,546.0 832.0,556.0 834.0,556.0 834.0,558.0 840.0,558.0 840.0,556.0 842.0,556.0 842.0,546.0 840.0,546.0 840.0,544.0 834.0,544.0 834.0,556.0 840.0,556.0 840.0,546.0 832.0,546.0 z"/>
<path d="M 836.0,560.0 836.0,562.0 838.0,562.0 838.0,572.0 836.0,572.0 836.0,574.0 842.0,574.0 842.0,572.0 840.0,572.0 840.0,560.0 836.0,560.0 z"/>
<path d="M 836.0,578.0 836.0,588.0 838.0,588.0 838.0,590.0 844.0,590.0 844.0,588.0 846.0,588.0 846.0,578.0 844.0,578.0 844.0,576.0 838.0,576.0 838.0,588.0 844.0,588.0 844.0,578.0 836.0,578.0 z"/>
<path d="M 832.0,592.0 832.0,594.0 834.0,594.0 834.0,604.0 832.0,604.0 832.0,606.0 838.0,606.0 838.0,604.0 836.0,604.0 836.0,592.0 832.0,592.0 z"/>
<path d="M 840.0,594.0 840.0,604.0 842.0,604.0 842.0,606.0 848.0,606.0 848.0,604.0 850.0,604.0 850.0,594.0 848.0,594.0 848.0,592.0 842.0,592.0 842.0,604.0 848.0,604.0 848.0,594.0 840.0,594.0 z"/>
<path d="M 828.0,610.0 828.0,620.0 830.0,620.0 830.0,622.0 836.0,622.0 836.0,620.0 838.0,620.0 838.0,610.0 836.0,610.0 836.0,608.0 830.0,608.0 830.0,620.0 836.0,620.0 836.0,610.0 828.0,610.0 z"/>
<path d="M 840.0,608.0 840.0,610.0 842.0,610.0 842.0,620.0 840.0,620.0 840.0,622.0 846.0,622.0 846.0,620.0 844.0,620.0 844.0,608.0 840.0,608.0 z"/>
<path d="M 820.0,626.0 820.0,636.0 822.0,636.0 822.0,638.0 828.0,638.0 828.0,636.0 830.0,636.0 830.0,626.0 828.0,626.0 828.0,624.0 822.0,624.0 822.0,636.0 828.0,636.0 828.0,626.0 820.0,626.0 z"/>
<path d="M 832.0,626.0 832.0,636.0 834.0,636.0 834.0,638.0 840.0,638.0 840.0,636.0 842.0,636.0 842.0,626.0 840.0,626.0 840.0,624.0 834.0,624.0 834.0,636.0 840.0,636.0 840.0,626.0 832.0,626.0 z"/>
<path d="M 816.0,642.0 816.0,652.0 818.0,652.0 818.0,654.0 824.0,654.0 824.0,652.0 826.0,652.0 826.0,642.0 824.0,642.0 824.0,640.0 818.0,640.0 818.0,652.0 824.0,652.0 824.0,642.0 816.0,642.0 z"/>
<path d="M 828.0,642.0 828.0,652.0 830.0,652.0 830.0,654.0 836.0,654.0 836.0,652.0 838.0,652.0 838.0,642.0 836.0,642.0 836.0,640.0 830.0,640.0 830.0,652.0 836.0,652.0 836.0,642.0 828.0,642.0 z"/>
<path d="M 804.0,658.0 804.0,668.0 806.0,668.0 806.0,670.0 812.0,670.0 812.0,668.0 814.0,668.0 814.0,658.0 812.0,658.0 812.0,656.0 806.0,656.0 806.0,668.0 812.0,668.0 812.0,658.0 804.0,658.0 z"/>
<path d="M 816.0,656.0 816.0,658.0 818.0,658.0 818.0,668.0 816.0,668.0 816.0,670.0 822.0,670.0 822.0,668.0 820.0,668.0 820.0,656.0 816.0,656.0 z"/>
<path d="M 736.0,672.0 736.0,674.0 738.0,674.0 738.0,684.0 736.0,684.0 736.0,686.0 742.0,686.0 742.0,684.0 740.0,684.0 740.0,672.0 736.0,672.0 z"/>
<path d="M 744.0,672.0 744.0,674.0 746.0,674.0 746.0,684.0 744.0,684.0 744.0,686.0 750.0,686.0 750.0,684.0 748.0,684.0 748.0,672.0 744.0,672.0 z"/>
<path d="M 752.0,672.0 752.0,674.0 754.0,674.0 754.0,684.0 752.0,684.0 752.0,686.0 758.0,686.0 758.0,684.0 756.0,684.0 756.0,672.0 752.0,672.0 z"/>
<path d="M 760.0,672.0 760.0,674.0 762.0,674.0 762.0,684.0 760.0,684.0 760.0,686.0 766.0,686.0 766.0,684.0 764.0,684.0 764.0,672.0 760.0,672.0 z"/>
<path d="M 768.0,674.0 768.0,684.0 770.0,684.0 770.0,686.0 776.0,686.0 776.0,684.0 778.0,684.0 778.0,674.0 776.0,674.0 776.0,672.0 770.0,672.0 770.0,684.0 776.0,684.0 776.0,674.0 768.0,674.0 z"/>
<path d="M 780.0,672.0 780.0,674.0 782.0,674.0 782.0,684.0 780.0,684.0 780.0,686.0 786.0,686.0 786.0,684.0 784.0,684.0 784.0,672.0 780.0,672.0 z"/>
<path d="M 788.0,674.0 788.0,684.0 790.0,684.0 790.0,686.0 796.0,686.0 796.0,684.0 798.0,684.0 798.0,674.0 796.0,674.0 796.0,672.0 790.0,672.0 790.0,684.0 796.0,684.0 796.0,674.0 788.0,674.0 z"/>
<path d="M 804.0,578.0 804.0,588.0 806.0,588.0 806.0,590.0 812.0,590.0 812.0,588.0 814.0,588.0 814.0,578.0 812.0,578.0 812.0,576.0 806.0,576.0 806.0,588.0 812.0,588.0 812.0,578.0 804.0,578.0 z"/>
<path d="M 800.0,592.0 800.0,594.0 802.0,594.0 802.0,604.0 800.0,604.0 800.0,606.0 806.0,606.0 806.0,604.0 804.0,604.0 804.0,592.0 800.0,592.0 z"/>
<path d="M 808.0,594.0 808.0,604.0 810.0,604.0 810.0,606.0 816.0,606.0 816.0,604.0 818.0,604.0 818.0,594.0 816.0,594.0 816.0,592.0 810.0,592.0 810.0,604.0 816.0,604.0 816.0,594.0 808.0,594.0 z"/>
<path d="M 784.0,608.0 784.0,610.0 786.0,610.0 786.0,620.0 784.0,620.0 784.0,622.0 790.0,622.0 790.0,620.0 788.0,620.0 788.0,608.0 784.0,608.0 z"/>
<path d="M 792.0,608.0 792.0,610.0 794.0,610.0 794.0,620.0 792.0,620.0 792.0,622.0 798.0,622.0 798.0,620.0 796.0,620.0 796.0,608.0 792.0,608.0 z"/>
<path d="M 800.0,608.0 800.0,610.0 802.0,610.0 802.0,620.0 800.0,620.0 800.0,622.0 806.0,622.0 806.0,620.0 804.0,620.0 804.0,608.0 800.0,608.0 z"/>
<path d="M 764.0,626.0 764.0,636.0 766.0,636.0 766.0,638.0 772.0,638.0 772.0,636.0 774.0,636.0 774.0,626.0 772.0,626.0 772.0,624.0 766.0,624.0 766.0,636.0 772.0,636.0 772.0,626.0 764.0,626.0 z"/>
<path d="M 776.0,626.0 776.0,636.0 778.0,636.0 778.0,638.0 784.0,638.0 784.0,636.0 786.0,636.0 786.0,626.0 784.0,626.0 784.0,624.0 778.0,624.0 778.0,636.0 784.0,636.0 784.0,626.0 776.0,626.0 z"/>
<path d="M 788.0,626.0 788.0,636.0 790.0,636.0 790.0,638.0 796.0,638.0 796.0,636.0 798.0,636.0 798.0,626.0 796.0,626.0 796.0,624.0 790.0,624.0 790.0,636.0 796.0,636.0 796.0,626.0 788.0,626.0 z"/>
<path d="M 732.0,642.0 732.0,652.0 734.0,652.0 734.0,654.0 740.0,654.0 740.0,652.0 742.0,652.0 742.0,642.0 740.0,642.0 740.0,640.0 734.0,640.0 734.0,652.0 740.0,652.0 740.0,642.0 732.0,642.0 z"/>
<path d="M 744.0,642.0 744.0,652.0 746.0,652.0 746.0,654.0 752.0,654.0 752.0,652.0 754.0,652.0 754.0,642.0 752.0,642.0 752.0,640.0 746.0,640.0 746.0,652.0 752.0,652.0 752.0,642.0 744.0,642.0 z"/>
<path d="M 756.0,642.0 756.0,652.0 758.0,652.0 758.0,654.0 764.0,654.0 764.0,652.0 766.0,652.0 766.0,642.0 764.0,642.0 764.0,640.0 758.0,640.0 758.0,652.0 764.0,652.0 764.0,642.0 756.0,642.0 z"/>
<path d="M 768.0,640.0 768.0,642.0 770.0,642.0 770.0,652.0 768.0,652.0 768.0,654.0 774.0,654.0 774.0,652.0 772.0,652.0 772.0,640.0 768.0,640.0 z"/>
<path d="M 596.0,610.0 596.0,620.0 598.0,620.0 598.0,622.0 604.0,622.0 604.0,620.0 606.0,620.0 606.0,610.0 604.0,610.0 604.0,608.0 598.0,608.0 598.0,620.0 604.0,620.0 604.0,610.0 596.0,610.0 z"/>
<path d="M 604.0,626.0 604.0,636.0 606.0,636.0 606.0,638.0 612.0,638.0 612.0,636.0 614.0,636.0 614.0,626.0 612.0,626.0 612.0,624.0 606.0,624.0 606.0,636.0 612.0,636.0 612.0,626.0 604.0,626.0 z"/>
<path d="M 600.0,642.0 600.0,652.0 602.0,652.0 602.0,654.0 608.0,654.0 608.0,652.0 610.0,652.0 610.0,642.0 608.0,642.0 608.0,640.0 602.0,640.0 602.0,652.0 608.0,652.0 608.0,642.0 600.0,642.0 z"/>
<path d="M 612.0,640.0 612.0,642.0 614.0,642.0 614.0,652.0 612.0,652.0 612.0,654.0 618.0,654.0 618.0,652.0 616.0,652.0 616.0,640.0 612.0,640.0 z"/>
<path d="M 600.0,658.0 600.0,668.0 602.0,668.0 602.0,670.0 608.0,670.0 608.0,668.0 610.0,668.0 610.0,658.0 608.0,658.0 608.0,656.0 602.0,656.0 602.0,668.0 608.0,668.0 608.0,658.0 600.0,658.0 z"/>
<path d="M 612.0,656.0 612.0,658.0 614.0,658.0 614.0,668.0 612.0,668.0 612.0,670.0 618.0,670.0 618.0,668.0 616.0,668.0 616.0,656.0 612.0,656.0 z"/>
<path d="M 604.0,672.0 604.0,674.0 606.0,674.0 606.0,684.0 604.0,684.0 604.0,686.0 610.0,686.0 610.0,684.0 608.0,684.0 608.0,672.0 604.0,672.0 z"/>
<path d="M 612.0,672.0 612.0,674.0 614.0,674.0 614.0,684.0 612.0,684.0 612.0,686.0 618.0,686.0 618.0,684.0 616.0,684.0 616.0,672.0 612.0,672.0 z"/>
<path d="M 620.0,672.0 620.0,674.0 622.0,674.0 622.0,684.0 620.0,684.0 620.0,686.0 626.0,686.0 626.0,684.0 624.0,684.0 624.0,672.0 620.0,672.0 z"/>
<path d="M 604.0,688.0 604.0,690.0 606.0,690.0 606.0,700.0 604.0,700.0 604.0,702.0 610.0,702.0 610.0,700.0 608.0,700.0 608.0,688.0 604.0,688.0 z"/>
<path d="M 612.0,688.0 612.0,690.0 614.0,690.0 614.0,700.0 612.0,700.0 612.0,702.0 618.0,702.0 618.0,700.0 616.0,700.0 616.0,688.0 612.0,688.0 z"/>
<path d="M 620.0,688.0 620.0,690.0 622.0,690.0 622.0,700.0 620.0,700.0 620.0,702.0 626.0,702.0 626.0,700.0 624.0,700.0 624.0,688.0 620.0,688.0 z"/>
<path d="M 600.0,706.0 600.0,716.0 602.0,716.0 602.0,718.0 608.0,718.0 608.0,716.0 610.0,716.0 610.0,706.0 608.0,706.0 608.0,704.0 602.0,704.0 602.0,716.0 608.0,716.0 608.0,706.0 600.0,706.0 z"/>
<path d="M 612.0,704.0 612.0,706.0 614.0,706.0 614.0,716.0 612.0,716.0 612.0,718.0 618.0,718.0 618.0,716.0 616.0,716.0 616.0,704.0 612.0,704.0 z"/>
<path d="M 620.0,704.0 620.0,706.0 622.0,706.0 622.0,716.0 620.0,716.0 620.0,718.0 626.0,718.0 626.0,716.0 624.0,716.0 624.0,704.0 620.0,704.0 z"/>
<path d="M 628.0,704.0 628.0,706.0 630.0,706.0 630.0,716.0 628.0,716.0 628.0,718.0 634.0,718.0 634.0,716.0 632.0,716.0 632.0,704.0 628.0,704.0 z"/>
<path d="M 620.0,720.0 620.0,722.0 622.0,722.0 622.0,732.0 620.0,732.0 620.0,734.0 626.0,734.0 626.0,732.0 624.0,732.0 624.0,720.0 620.0,720.0 z"/>
<path d="M 628.0,722.0 628.0,732.0 630.0,732.0 630.0,734.0 636.0,734.0 636.0,732.0 638.0,732.0 638.0,722.0 636.0,722.0 636.0,720.0 630.0,720.0 630.0,732.0 636.0,732.0 636.0,722.0 628.0,722.0 z"/>
<path d="M 640.0,720.0 640.0,722.0 642.0,722.0 642.0,732.0 640.0,732.0 640.0,734.0 646.0,734.0 646.0,732.0 644.0,732.0 644.0,720.0 640.0,720.0 z"/>
<path d="M 616.0,768.0 616.0,770.0 618.0,770.0 618.0,780.0 616.0,780.0 616.0,782.0 622.0,782.0 622.0,780.0 620.0,780.0 620.0,768.0 616.0,768.0 z"/>
<path d="M 624.0,770.0 624.0,780.0 626.0,780.0 626.0,782.0 632.0,782.0 632.0,780.0 634.0,780.0 634.0,770.0 632.0,770.0 632.0,768.0 626.0,768.0 626.0,780.0 632.0,780.0 632.0,770.0 624.0,770.0 z"/>
<path d="M 608.0,784.0 608.0,786.0 610.0,786.0 610.0,796.0 608.0,796.0 608.0,798.0 614.0,798.0 614.0,796.0 612.0,796.0 612.0,784.0 608.0,784.0 z"/>
<path d="M 616.0,784.0 616.0,786.0 618.0,786.0 618.0,796.0 616.0,796.0 616.0,798.0 622.0,798.0 622.0,796.0 620.0,796.0 620.0,784.0 616.0,784.0 z"/>
<path d="M 624.0,786.0 624.0,796.0 626.0,796.0 626.0,798.0 632.0,798.0 632.0,796.0 634.0,796.0 634.0,786.0 632.0,786.0 632.0,784.0 626.0,784.0 626.0,796.0 632.0,796.0 632.0,786.0 624.0,786.0 z"/>
<path d="M 636.0,784.0 636.0,786.0 638.0,786.0 638.0,796.0 636.0,796.0 636.0,798.0 642.0,798.0 642.0,796.0 640.0,796.0 640.0,784.0 636.0,784.0 z"/>
<path d="M 644.0,784.0 644.0,786.0 646.0,786.0 646.0,796.0 644.0,796.0 644.0,798.0 650.0,798.0 650.0,796.0 648.0,796.0 648.0,784.0 644.0,784.0 z"/>
<path d="M 620.0,800.0 620.0,802.0 622.0,802.0 622.0,812.0 620.0,812.0 620.0,814.0 626.0,814.0 626.0,812.0 624.0,812.0 624.0,800.0 620.0,800.0 z"/>
<path d="M 628.0,800.0 628.0,802.0 630.0,802.0 630.0,812.0 628.0,812.0 628.0,814.0 634.0,814.0 634.0,812.0 632.0,812.0 632.0,800.0 628.0,800.0 z"/>
<path d="M 636.0,800.0 636.0,802.0 638.0,802.0 638.0,812.0 636.0,812.0 636.0,814.0 642.0,814.0 642.0,812.0 640.0,812.0 640.0,800.0 636.0,800.0 z"/>
<path d="M 644.0,800.0 644.0,802.0 646.0,802.0 646.0,812.0 644.0,812.0 644.0,814.0 650.0,814.0 650.0,812.0 648.0,812.0 648.0,800.0 644.0,800.0 z"/>
<path d="M 652.0,802.0 652.0,812.0 654.0,812.0 654.0,814.0 660.0,814.0 660.0,812.0 662.0,812.0 662.0,802.0 660.0,802.0 660.0,800.0 654.0,800.0 654.0,812.0 660.0,812.0 660.0,802.0 652.0,802.0 z"/>
<path d="M 664.0,800.0 664.0,802.0 666.0,802.0 666.0,812.0 664.0,812.0 664.0,814.0 670.0,814.0 670.0,812.0 668.0,812.0 668.0,800.0 664.0,800.0 z"/>
<path d="M 616.0,850.0 616.0,860.0 618.0,860.0 618.0,862.0 624.0,862.0 624.0,860.0 626.0,860.0 626.0,850.0 624.0,850.0 624.0,848.0 618.0,848.0 618.0,860.0 624.0,860.0 624.0,850.0 616.0,850.0 z"/>
<path d="M 628.0,850.0 628.0,860.0 630.0,860.0 630.0,862.0 636.0,862.0 636.0,860.0 638.0,860.0 638.0,850.0 636.0,850.0 636.0,848.0 630.0,848.0 630.0,860.0 636.0,860.0 636.0,850.0 628.0,850.0 z"/>
<path d="M 640.0,850.0 640.0,860.0 642.0,860.0 642.0,862.0 648.0,862.0 648.0,860.0 650.0,860.0 650.0,850.0 648.0,850.0 648.0,848.0 642.0,848.0 642.0,860.0 648.0,860.0 648.0,850.0 640.0,850.0 z"/>
<path d="M 652.0,848.0 652.0,850.0 654.0,850.0 654.0,860.0 652.0,860.0 652.0,862.0 658.0,862.0 658.0,860.0 656.0,860.0 656.0,848.0 652.0,848.0 z"/>
</g></svg>