<svg height="1200" width="1200" 
xmlns="http://www.w3.org/2000/svg" xmlns:svg="http://www.w3.org/2000/svg" xmlns:xlink="http://www.w3.org/1999/xlink"> 
<g style="stroke:#000000;stroke-width:0.5;fill:none">
<path d="M 546.0,315.0 546.0,321.0 549.0,321.0 549.0,324.0 549.0,324.0 558.0,324.0 558.0,330.0 549.0,330.0 549.0,327.0 546.0,327.0 546.0,330.0 549.0,330.0 549.0,333.0 558.0,333.0 558.0,330.0 561.0,330.0 561.0,315.0 558.0,315.0 558.0,312.0 549.0,312.0 549.0,321.0 558.0,321.0 558.0,315.0 546.0,315.0 z"/>
<path d="M 564.0,315.0 564.0,333.0 567.0,333.0 567.0,324.0 576.0,324.0 576.0,333.0 579.0,333.0 579.0,315.0 576.0,315.0 576.0,312.0 567.0,312.0 567.0,321.0 576.0,321.0 576.0,315.0 564.0,315.0 z"/>
<path d="M 582.0,312.0 582.0,321.0 585.0,321.0 585.0,324.0 594.0,324.0 594.0,330.0 585.0,330.0 585.0,327.0 582.0,327.0 582.0,330.0 585.0,330.0 585.0,333.0 594.0,333.0 594.0,330.0 597.0,330.0 597.0,324.0 594.0,324.0 594.0,321.0 585.0,321.0 585.0,315.0 597.0,315.0 597.0,312.0 582.0,312.0 z"/>
<path d="M 600.0,315.0 600.0,330.0 615.0,330.0 615.0,327.0 612.0,327.0 612.0,333.0 603.0,333.0 603.0,312.0 612.0,312.0 612.0,318.0 615.0,318.0 615.0,315.0 600.0,315.0 z"/>
<path d="M 618.0,315.0 618.0,330.0 633.0,330.0 633.0,327.0 630.0,327.0 630.0,333.0 621.0,333.0 621.0,312.0 630.0,312.0 630.0,318.0 633.0,318.0 633.0,315.0 618.0,315.0 z"/>
<path d="M 636.0,312.0 636.0,324.0 645.0,324.0 645.0,333.0 648.0,333.0 648.0,324.0 651.0,324.0 651.0,321.0 648.0,321.0 648.0,312.0 645.0,312.0 645.0,321.0 639.0,321.0 639.0,312.0 636.0,312.0 z"/>
<path d="M 654.0,312.0 654.0,321.0 657.0,321.0 657.0,324.0 666.0,324.0 666.0,330.0 657.0,330.0 657.0,327.0 654.0,327.0 654.0,330.0 657.0,330.0 657.0,333.0 666.0,333.0 666.0,330.0 669.0,330.0 669.0,324.0 666.0,324.0 666.0,321.0 657.0,321.0 657.0,315.0 669.0,315.0 669.0,312.0 654.0,312.0 z"/>
<path d="M 672.0,312.0 672.0,333.0 675.0,333.0 675.0,324.0 684.0,324.0 684.0,321.0 675.0,321.0 675.0,315.0 687.0,315.0 687.0,312.0 672.0,312.0 z"/>
<path d="M 690.0,312.0 690.0,333.0 693.0,333.0 693.0,324.0 702.0,324.0 702.0,321.0 693.0,321.0 693.0,315.0 705.0,315.0 705.0,312.0 690.0,312.0 z"/>
<path d="M 708.0,312.0 708.0,333.0 720.0,333.0 720.0,315.0 711.0,315.0 711.0,330.0 723.0,330.0 723.0,315.0 720.0,315.0 720.0,312.0 708.0,312.0 z"/>
<path d="M 516.0,339.0 516.0,345.0 519.0,345.0 519.0,348.0 519.0,348.0 528.0,348.0 528.0,354.0 519.0,354.0 519.0,351.0 516.0,351.0 516.0,354.0 519.0,354.0 519.0,357.0 528.0,357.0 528.0,354.0 531.0,354.0 531.0,339.0 528.0,339.0 528.0,336.0 519.0,336.0 519.0,345.0 528.0,345.0 528.0,339.0 516.0,339.0 z"/>
<path d="M 534.0,339.0 534.0,357.0 537.0,357.0 537.0,348.0 546.0,348.0 546.0,357.0 549.0,357.0 549.0,339.0 546.0,339.0 546.0,336.0 537.0,336.0 537.0,345.0 546.0,345.0 546.0,339.0 534.0,339.0 z"/>
<path d="M 552.0,339.0 552.0,357.0 555.0,357.0 555.0,348.0 564.0,348.0 564.0,357.0 567.0,357.0 567.0,339.0 564.0,339.0 564.0,336.0 555.0,336.0 555.0,345.0 564.0,345.0 564.0,339.0 552.0,339.0 z"/>
<path d="M 570.0,336.0 570.0,339.0 573.0,339.0 573.0,354.0 570.0,354.0 570.0,357.0 579.0,357.0 579.0,354.0 576.0,354.0 576.0,336.0 570.0,336.0 z"/>
<path d="M 582.0,339.0 582.0,354.0 597.0,354.0 597.0,348.0 585.0,348.0 585.0,357.0 594.0,357.0 594.0,345.0 585.0,345.0 585.0,336.0 594.0,336.0 594.0,342.0 597.0,342.0 597.0,339.0 582.0,339.0 z"/>
<path d="M 600.0,339.0 600.0,354.0 615.0,354.0 615.0,351.0 612.0,351.0 612.0,357.0 603.0,357.0 603.0,336.0 612.0,336.0 612.0,342.0 615.0,342.0 615.0,339.0 600.0,339.0 z"/>
<path d="M 618.0,336.0 618.0,348.0 627.0,348.0 627.0,357.0 630.0,357.0 630.0,348.0 633.0,348.0 633.0,345.0 630.0,345.0 630.0,336.0 627.0,336.0 627.0,345.0 621.0,345.0 621.0,336.0 618.0,336.0 z"/>
<path d="M 636.0,339.0 636.0,357.0 639.0,357.0 639.0,348.0 648.0,348.0 648.0,357.0 651.0,357.0 651.0,339.0 648.0,339.0 648.0,336.0 639.0,336.0 639.0,345.0 648.0,345.0 648.0,339.0 636.0,339.0 z"/>
<path d="M 654.0,339.0 654.0,354.0 669.0,354.0 669.0,348.0 657.0,348.0 657.0,357.0 666.0,357.0 666.0,345.0 657.0,345.0 657.0,336.0 666.0,336.0 666.0,342.0 669.0,342.0 669.0,339.0 654.0,339.0 z"/>
<path d="M 672.0,339.0 672.0,354.0 687.0,354.0 687.0,351.0 684.0,351.0 684.0,357.0 675.0,357.0 675.0,336.0 684.0,336.0 684.0,342.0 687.0,342.0 687.0,339.0 672.0,339.0 z"/>
<path d="M 690.0,336.0 690.0,357.0 705.0,357.0 705.0,354.0 693.0,354.0 693.0,348.0 702.0,348.0 702.0,345.0 693.0,345.0 693.0,339.0 705.0,339.0 705.0,336.0 690.0,336.0 z"/>
<path d="M 708.0,339.0 708.0,345.0 711.0,345.0 711.0,348.0 711.0,348.0 720.0,348.0 720.0,354.0 711.0,354.0 711.0,351.0 708.0,351.0 708.0,354.0 711.0,354.0 711.0,357.0 720.0,357.0 720.0,354.0 723.0,354.0 723.0,339.0 720.0,339.0 720.0,336.0 711.0,336.0 711.0,345.0 720.0,345.0 720.0,339.0 708.0,339.0 z"/>
<path d="M 726.0,336.0 726.0,342.0 729.0,342.0 729.0,339.0 738.0,339.0 738.0,345.0 735.0,345.0 735.0,351.0 732.0,351.0 732.0,357.0 735.0,357.0 735.0,351.0 738.0,351.0 738.0,345.0 741.0,345.0 741.0,336.0 726.0,336.0 z"/>
<path d="M 492.0,363.0 492.0,369.0 495.0,369.0 495.0,372.0 492.0,372.0 492.0,378.0 495.0,378.0 495.0,381.0 504.0,381.0 504.0,372.0 495.0,372.0 495.0,378.0 507.0,378.0 507.0,372.0 504.0,372.0 504.0,369.0 507.0,369.0 507.0,363.0 504.0,363.0 504.0,360.0 495.0,360.0 495.0,369.0 504.0,369.0 504.0,363.0 492.0,363.0 z"/>
<path d="M 510.0,363.0 510.0,381.0 513.0,381.0 513.0,372.0 522.0,372.0 522.0,381.0 525.0,381.0 525.0,363.0 522.0,363.0 522.0,360.0 513.0,360.0 513.0,369.0 522.0,369.0 522.0,363.0 510.0,363.0 z"/>
<path d="M 528.0,360.0 528.0,381.0 543.0,381.0 543.0,378.0 531.0,378.0 531.0,372.0 540.0,372.0 540.0,369.0 531.0,369.0 531.0,363.0 543.0,363.0 543.0,360.0 528.0,360.0 z"/>
<path d="M 546.0,360.0 546.0,363.0 549.0,363.0 549.0,378.0 546.0,378.0 546.0,381.0 555.0,381.0 555.0,378.0 552.0,378.0 552.0,360.0 546.0,360.0 z"/>
<path d="M 558.0,363.0 558.0,366.0 561.0,366.0 561.0,363.0 570.0,363.0 570.0,369.0 564.0,369.0 564.0,372.0 570.0,372.0 570.0,378.0 561.0,378.0 561.0,375.0 558.0,375.0 558.0,378.0 561.0,378.0 561.0,381.0 570.0,381.0 570.0,378.0 573.0,378.0 573.0,372.0 570.0,372.0 570.0,369.0 573.0,369.0 573.0,363.0 570.0,363.0 570.0,360.0 561.0,360.0 561.0,363.0 558.0,363.0 z"/>
<path d="M 576.0,363.0 576.0,369.0 579.0,369.0 579.0,372.0 576.0,372.0 576.0,378.0 579.0,378.0 579.0,381.0 588.0,381.0 588.0,372.0 579.0,372.0 579.0,378.0 591.0,378.0 591.0,372.0 588.0,372.0 588.0,369.0 591.0,369.0 591.0,363.0 588.0,363.0 588.0,360.0 579.0,360.0 579.0,369.0 588.0,369.0 588.0,363.0 576.0,363.0 z"/>
<path d="M 594.0,360.0 594.0,372.0 603.0,372.0 603.0,381.0 606.0,381.0 606.0,372.0 609.0,372.0 609.0,369.0 606.0,369.0 606.0,360.0 603.0,360.0 603.0,369.0 597.0,369.0 597.0,360.0 594.0,360.0 z"/>
<path d="M 612.0,363.0 612.0,366.0 615.0,366.0 615.0,363.0 624.0,363.0 624.0,369.0 618.0,369.0 618.0,372.0 624.0,372.0 624.0,378.0 615.0,378.0 615.0,375.0 612.0,375.0 612.0,378.0 615.0,378.0 615.0,381.0 624.0,381.0 624.0,378.0 627.0,378.0 627.0,372.0 624.0,372.0 624.0,369.0 627.0,369.0 627.0,363.0 624.0,363.0 624.0,360.0 615.0,360.0 615.0,363.0 612.0,363.0 z"/>
<path d="M 630.0,360.0 630.0,369.0 633.0,369.0 633.0,372.0 642.0,372.0 642.0,378.0 633.0,378.0 633.0,375.0 630.0,375.0 630.0,378.0 633.0,378.0 633.0,381.0 642.0,381.0 642.0,378.0 645.0,378.0 645.0,372.0 642.0,372.0 642.0,369.0 633.0,369.0 633.0,363.0 645.0,363.0 645.0,360.0 630.0,360.0 z"/>
<path d="M 648.0,363.0 648.0,369.0 651.0,369.0 651.0,372.0 651.0,372.0 660.0,372.0 660.0,378.0 651.0,378.0 651.0,375.0 648.0,375.0 648.0,378.0 651.0,378.0 651.0,381.0 660.0,381.0 660.0,378.0 663.0,378.0 663.0,363.0 660.0,363.0 660.0,360.0 651.0,360.0 651.0,369.0 660.0,369.0 660.0,363.0 648.0,363.0 z"/>
<path d="M 666.0,363.0 666.0,378.0 669.0,378.0 669.0,381.0 678.0,381.0 678.0,378.0 681.0,378.0 681.0,363.0 678.0,363.0 678.0,360.0 669.0,360.0 669.0,378.0 678.0,378.0 678.0,363.0 666.0,363.0 z"/>
<path d="M 684.0,363.0 684.0,366.0 687.0,366.0 687.0,363.0 696.0,363.0 696.0,369.0 690.0,369.0 690.0,372.0 687.0,372.0 687.0,375.0 684.0,375.0 684.0,381.0 699.0,381.0 699.0,378.0 687.0,378.0 687.0,375.0 690.0,375.0 690.0,372.0 696.0,372.0 696.0,369.0 699.0,369.0 699.0,363.0 696.0,363.0 696.0,360.0 687.0,360.0 687.0,363.0 684.0,363.0 z"/>
<path d="M 702.0,360.0 702.0,381.0 714.0,381.0 714.0,363.0 705.0,363.0 705.0,378.0 717.0,378.0 717.0,363.0 714.0,363.0 714.0,360.0 702.0,360.0 z"/>
<path d="M 720.0,363.0 720.0,378.0 735.0,378.0 735.0,375.0 732.0,375.0 732.0,381.0 723.0,381.0 723.0,360.0 732.0,360.0 732.0,366.0 735.0,366.0 735.0,363.0 720.0,363.0 z"/>
<path d="M 738.0,360.0 738.0,372.0 747.0,372.0 747.0,381.0 750.0,381.0 750.0,372.0 753.0,372.0 753.0,369.0 750.0,369.0 750.0,360.0 747.0,360.0 747.0,369.0 741.0,369.0 741.0,360.0 738.0,360.0 z"/>
<path d="M 498.0,387.0 498.0,390.0 501.0,390.0 501.0,387.0 510.0,387.0 510.0,393.0 504.0,393.0 504.0,396.0 510.0,396.0 510.0,402.0 501.0,402.0 501.0,399.0 498.0,399.0 498.0,402.0 501.0,402.0 501.0,405.0 510.0,405.0 510.0,402.0 513.0,402.0 513.0,396.0 510.0,396.0 510.0,393.0 513.0,393.0 513.0,387.0 510.0,387.0 510.0,384.0 501.0,384.0 501.0,387.0 498.0,387.0 z"/>
<path d="M 516.0,384.0 516.0,396.0 525.0,396.0 525.0,405.0 528.0,405.0 528.0,396.0 531.0,396.0 531.0,393.0 528.0,393.0 528.0,384.0 525.0,384.0 525.0,393.0 519.0,393.0 519.0,384.0 516.0,384.0 z"/>
<path d="M 534.0,384.0 534.0,405.0 546.0,405.0 546.0,387.0 537.0,387.0 537.0,402.0 549.0,402.0 549.0,387.0 546.0,387.0 546.0,384.0 534.0,384.0 z"/>
<path d="M 552.0,387.0 552.0,402.0 555.0,402.0 555.0,405.0 564.0,405.0 564.0,402.0 567.0,402.0 567.0,387.0 564.0,387.0 564.0,384.0 555.0,384.0 555.0,402.0 564.0,402.0 564.0,387.0 552.0,387.0 z"/>
<path d="M 570.0,384.0 570.0,405.0 573.0,405.0 573.0,396.0 582.0,396.0 582.0,393.0 573.0,393.0 573.0,387.0 585.0,387.0 585.0,384.0 570.0,384.0 z"/>
<path d="M 588.0,387.0 588.0,390.0 591.0,390.0 591.0,387.0 600.0,387.0 600.0,393.0 594.0,393.0 594.0,396.0 591.0,396.0 591.0,399.0 588.0,399.0 588.0,405.0 603.0,405.0 603.0,402.0 591.0,402.0 591.0,399.0 594.0,399.0 594.0,396.0 600.0,396.0 600.0,393.0 603.0,393.0 603.0,387.0 600.0,387.0 600.0,384.0 591.0,384.0 591.0,387.0 588.0,387.0 z"/>
<path d="M 606.0,384.0 606.0,387.0 609.0,387.0 609.0,402.0 606.0,402.0 606.0,405.0 615.0,405.0 615.0,402.0 612.0,402.0 612.0,384.0 606.0,384.0 z"/>
<path d="M 618.0,384.0 618.0,405.0 630.0,405.0 630.0,387.0 621.0,387.0 621.0,402.0 633.0,402.0 633.0,387.0 630.0,387.0 630.0,384.0 618.0,384.0 z"/>
<path d="M 636.0,387.0 636.0,402.0 639.0,402.0 639.0,405.0 648.0,405.0 648.0,402.0 651.0,402.0 651.0,387.0 648.0,387.0 648.0,384.0 639.0,384.0 639.0,402.0 648.0,402.0 648.0,387.0 636.0,387.0 z"/>
<path d="M 654.0,387.0 654.0,390.0 657.0,390.0 657.0,387.0 666.0,387.0 666.0,393.0 660.0,393.0 660.0,396.0 666.0,396.0 666.0,402.0 657.0,402.0 657.0,399.0 654.0,399.0 654.0,402.0 657.0,402.0 657.0,405.0 666.0,405.0 666.0,402.0 669.0,402.0 669.0,396.0 666.0,396.0 666.0,393.0 669.0,393.0 669.0,387.0 666.0,387.0 666.0,384.0 657.0,384.0 657.0,387.0 654.0,387.0 z"/>
<path d="M 672.0,384.0 672.0,405.0 675.0,405.0 675.0,396.0 684.0,396.0 684.0,393.0 675.0,393.0 675.0,387.0 687.0,387.0 687.0,384.0 672.0,384.0 z"/>
<path d="M 690.0,384.0 690.0,405.0 702.0,405.0 702.0,402.0 705.0,402.0 705.0,396.0 693.0,396.0 693.0,402.0 702.0,402.0 702.0,387.0 693.0,387.0 693.0,393.0 705.0,393.0 705.0,387.0 702.0,387.0 702.0,384.0 690.0,384.0 z"/>
<path d="M 708.0,384.0 708.0,405.0 711.0,405.0 711.0,396.0 720.0,396.0 720.0,393.0 711.0,393.0 711.0,387.0 723.0,387.0 723.0,384.0 708.0,384.0 z"/>
<path d="M 726.0,387.0 726.0,393.0 729.0,393.0 729.0,396.0 726.0,396.0 726.0,402.0 729.0,402.0 729.0,405.0 738.0,405.0 738.0,396.0 729.0,396.0 729.0,402.0 741.0,402.0 741.0,396.0 738.0,396.0 738.0,393.0 741.0,393.0 741.0,387.0 738.0,387.0 738.0,384.0 729.0,384.0 729.0,393.0 738.0,393.0 738.0,387.0 726.0,387.0 z"/>
<path d="M 504.0,408.0 504.0,414.0 507.0,414.0 507.0,411.0 516.0,411.0 516.0,417.0 513.0,417.0 513.0,423.0 510.0,423.0 510.0,429.0 513.0,429.0 513.0,423.0 516.0,423.0 516.0,417.0 519.0,417.0 519.0,408.0 504.0,408.0 z"/>
<path d="M 522.0,408.0 522.0,429.0 525.0,429.0 525.0,420.0 534.0,420.0 534.0,417.0 525.0,417.0 525.0,411.0 537.0,411.0 537.0,408.0 522.0,408.0 z"/>
<path d="M 540.0,411.0 540.0,414.0 543.0,414.0 543.0,411.0 552.0,411.0 552.0,417.0 546.0,417.0 546.0,420.0 543.0,420.0 543.0,423.0 540.0,423.0 540.0,429.0 555.0,429.0 555.0,426.0 543.0,426.0 543.0,423.0 546.0,423.0 546.0,420.0 552.0,420.0 552.0,417.0 555.0,417.0 555.0,411.0 552.0,411.0 552.0,408.0 543.0,408.0 543.0,411.0 540.0,411.0 z"/>
<path d="M 558.0,408.0 558.0,414.0 561.0,414.0 561.0,411.0 570.0,411.0 570.0,417.0 567.0,417.0 567.0,423.0 564.0,423.0 564.0,429.0 567.0,429.0 567.0,423.0 570.0,423.0 570.0,417.0 573.0,417.0 573.0,408.0 558.0,408.0 z"/>
<path d="M 576.0,411.0 576.0,417.0 579.0,417.0 579.0,420.0 579.0,420.0 588.0,420.0 588.0,426.0 579.0,426.0 579.0,423.0 576.0,423.0 576.0,426.0 579.0,426.0 579.0,429.0 588.0,429.0 588.0,426.0 591.0,426.0 591.0,411.0 588.0,411.0 588.0,408.0 579.0,408.0 579.0,417.0 588.0,417.0 588.0,411.0 576.0,411.0 z"/>
<path d="M 594.0,408.0 594.0,429.0 606.0,429.0 606.0,426.0 609.0,426.0 609.0,420.0 597.0,420.0 597.0,426.0 606.0,426.0 606.0,411.0 597.0,411.0 597.0,417.0 609.0,417.0 609.0,411.0 606.0,411.0 606.0,408.0 594.0,408.0 z"/>
<path d="M 612.0,408.0 612.0,414.0 615.0,414.0 615.0,411.0 624.0,411.0 624.0,417.0 621.0,417.0 621.0,423.0 618.0,423.0 618.0,429.0 621.0,429.0 621.0,423.0 624.0,423.0 624.0,417.0 627.0,417.0 627.0,408.0 612.0,408.0 z"/>
<path d="M 630.0,408.0 630.0,411.0 633.0,411.0 633.0,426.0 630.0,426.0 630.0,429.0 639.0,429.0 639.0,426.0 636.0,426.0 636.0,408.0 630.0,408.0 z"/>
<path d="M 642.0,408.0 642.0,429.0 654.0,429.0 654.0,426.0 657.0,426.0 657.0,420.0 645.0,420.0 645.0,426.0 654.0,426.0 654.0,411.0 645.0,411.0 645.0,417.0 657.0,417.0 657.0,411.0 654.0,411.0 654.0,408.0 642.0,408.0 z"/>
<path d="M 660.0,408.0 660.0,429.0 672.0,429.0 672.0,426.0 675.0,426.0 675.0,420.0 663.0,420.0 663.0,426.0 672.0,426.0 672.0,411.0 663.0,411.0 663.0,417.0 675.0,417.0 675.0,411.0 672.0,411.0 672.0,408.0 660.0,408.0 z"/>
<path d="M 474.0,432.0 474.0,441.0 477.0,441.0 477.0,444.0 486.0,444.0 486.0,450.0 477.0,450.0 477.0,447.0 474.0,447.0 474.0,450.0 477.0,450.0 477.0,453.0 486.0,453.0 486.0,450.0 489.0,450.0 489.0,444.0 486.0,444.0 486.0,441.0 477.0,441.0 477.0,435.0 489.0,435.0 489.0,432.0 474.0,432.0 z"/>
<path d="M 528.0,435.0 528.0,450.0 531.0,450.0 531.0,453.0 540.0,453.0 540.0,450.0 543.0,450.0 543.0,435.0 540.0,435.0 540.0,432.0 531.0,432.0 531.0,450.0 540.0,450.0 540.0,435.0 528.0,435.0 z"/>
<path d="M 546.0,435.0 546.0,441.0 549.0,441.0 549.0,444.0 546.0,444.0 546.0,450.0 549.0,450.0 549.0,453.0 558.0,453.0 558.0,444.0 549.0,444.0 549.0,450.0 561.0,450.0 561.0,444.0 558.0,444.0 558.0,441.0 561.0,441.0 561.0,435.0 558.0,435.0 558.0,432.0 549.0,432.0 549.0,441.0 558.0,441.0 558.0,435.0 546.0,435.0 z"/>
<path d="M 564.0,432.0 564.0,453.0 576.0,453.0 576.0,435.0 567.0,435.0 567.0,450.0 579.0,450.0 579.0,435.0 576.0,435.0 576.0,432.0 564.0,432.0 z"/>
<path d="M 582.0,435.0 582.0,453.0 585.0,453.0 585.0,444.0 594.0,444.0 594.0,453.0 597.0,453.0 597.0,435.0 594.0,435.0 594.0,432.0 585.0,432.0 585.0,441.0 594.0,441.0 594.0,435.0 582.0,435.0 z"/>
<path d="M 600.0,432.0 600.0,453.0 612.0,453.0 612.0,450.0 615.0,450.0 615.0,444.0 603.0,444.0 603.0,450.0 612.0,450.0 612.0,435.0 603.0,435.0 603.0,441.0 615.0,441.0 615.0,435.0 612.0,435.0 612.0,432.0 600.0,432.0 z"/>
<path d="M 618.0,435.0 618.0,441.0 621.0,441.0 621.0,444.0 621.0,444.0 630.0,444.0 630.0,450.0 621.0,450.0 621.0,447.0 618.0,447.0 618.0,450.0 621.0,450.0 621.0,453.0 630.0,453.0 630.0,450.0 633.0,450.0 633.0,435.0 630.0,435.0 630.0,432.0 621.0,432.0 621.0,441.0 630.0,441.0 630.0,435.0 618.0,435.0 z"/>
<path d="M 636.0,432.0 636.0,453.0 648.0,453.0 648.0,435.0 639.0,435.0 639.0,450.0 651.0,450.0 651.0,435.0 648.0,435.0 648.0,432.0 636.0,432.0 z"/>
<path d="M 654.0,435.0 654.0,450.0 669.0,450.0 669.0,444.0 657.0,444.0 657.0,453.0 666.0,453.0 666.0,441.0 657.0,441.0 657.0,432.0 666.0,432.0 666.0,438.0 669.0,438.0 669.0,435.0 654.0,435.0 z"/>
<path d="M 708.0,435.0 708.0,441.0 711.0,441.0 711.0,444.0 708.0,444.0 708.0,450.0 711.0,450.0 711.0,453.0 720.0,453.0 720.0,444.0 711.0,444.0 711.0,450.0 723.0,450.0 723.0,444.0 720.0,444.0 720.0,441.0 723.0,441.0 723.0,435.0 720.0,435.0 720.0,432.0 711.0,432.0 711.0,441.0 720.0,441.0 720.0,435.0 708.0,435.0 z"/>
<path d="M 474.0,459.0 474.0,474.0 489.0,474.0 489.0,468.0 477.0,468.0 477.0,477.0 486.0,477.0 486.0,465.0 477.0,465.0 477.0,456.0 486.0,456.0 486.0,462.0 489.0,462.0 489.0,459.0 474.0,459.0 z"/>
<path d="M 492.0,456.0 492.0,477.0 504.0,477.0 504.0,459.0 495.0,459.0 495.0,474.0 507.0,474.0 507.0,459.0 504.0,459.0 504.0,456.0 492.0,456.0 z"/>
<path d="M 510.0,456.0 510.0,462.0 513.0,462.0 513.0,459.0 522.0,459.0 522.0,465.0 519.0,465.0 519.0,471.0 516.0,471.0 516.0,477.0 519.0,477.0 519.0,471.0 522.0,471.0 522.0,465.0 525.0,465.0 525.0,456.0 510.0,456.0 z"/>
<path d="M 528.0,456.0 528.0,477.0 540.0,477.0 540.0,474.0 543.0,474.0 543.0,468.0 531.0,468.0 531.0,474.0 540.0,474.0 540.0,459.0 531.0,459.0 531.0,465.0 543.0,465.0 543.0,459.0 540.0,459.0 540.0,456.0 528.0,456.0 z"/>
<path d="M 546.0,459.0 546.0,474.0 549.0,474.0 549.0,477.0 558.0,477.0 558.0,474.0 561.0,474.0 561.0,459.0 558.0,459.0 558.0,456.0 549.0,456.0 549.0,474.0 558.0,474.0 558.0,459.0 546.0,459.0 z"/>
<path d="M 564.0,459.0 564.0,462.0 567.0,462.0 567.0,459.0 576.0,459.0 576.0,465.0 570.0,465.0 570.0,468.0 567.0,468.0 567.0,471.0 564.0,471.0 564.0,477.0 579.0,477.0 579.0,474.0 567.0,474.0 567.0,471.0 570.0,471.0 570.0,468.0 576.0,468.0 576.0,465.0 579.0,465.0 579.0,459.0 576.0,459.0 576.0,456.0 567.0,456.0 567.0,459.0 564.0,459.0 z"/>
<path d="M 582.0,459.0 582.0,465.0 585.0,465.0 585.0,468.0 582.0,468.0 582.0,474.0 585.0,474.0 585.0,477.0 594.0,477.0 594.0,468.0 585.0,468.0 585.0,474.0 597.0,474.0 597.0,468.0 594.0,468.0 594.0,465.0 597.0,465.0 597.0,459.0 594.0,459.0 594.0,456.0 585.0,456.0 585.0,465.0 594.0,465.0 594.0,459.0 582.0,459.0 z"/>
<path d="M 600.0,456.0 600.0,459.0 603.0,459.0 603.0,474.0 600.0,474.0 600.0,477.0 609.0,477.0 609.0,474.0 606.0,474.0 606.0,456.0 600.0,456.0 z"/>
<path d="M 612.0,459.0 612.0,477.0 615.0,477.0 615.0,468.0 624.0,468.0 624.0,477.0 627.0,477.0 627.0,459.0 624.0,459.0 624.0,456.0 615.0,456.0 615.0,465.0 624.0,465.0 624.0,459.0 612.0,459.0 z"/>
<path d="M 630.0,456.0 630.0,477.0 645.0,477.0 645.0,474.0 633.0,474.0 633.0,468.0 642.0,468.0 642.0,465.0 633.0,465.0 633.0,459.0 645.0,459.0 645.0,456.0 630.0,456.0 z"/>
<path d="M 648.0,459.0 648.0,462.0 651.0,462.0 651.0,459.0 660.0,459.0 660.0,465.0 654.0,465.0 654.0,468.0 660.0,468.0 660.0,474.0 651.0,474.0 651.0,471.0 648.0,471.0 648.0,474.0 651.0,474.0 651.0,477.0 660.0,477.0 660.0,474.0 663.0,474.0 663.0,468.0 660.0,468.0 660.0,465.0 663.0,465.0 663.0,459.0 660.0,459.0 660.0,456.0 651.0,456.0 651.0,459.0 648.0,459.0 z"/>
<path d="M 666.0,459.0 666.0,474.0 681.0,474.0 681.0,471.0 678.0,471.0 678.0,477.0 669.0,477.0 669.0,456.0 678.0,456.0 678.0,462.0 681.0,462.0 681.0,459.0 666.0,459.0 z"/>
<path d="M 684.0,456.0 684.0,477.0 687.0,477.0 687.0,468.0 696.0,468.0 696.0,465.0 687.0,465.0 687.0,459.0 699.0,459.0 699.0,456.0 684.0,456.0 z"/>
<path d="M 702.0,459.0 702.0,465.0 705.0,465.0 705.0,468.0 702.0,468.0 702.0,474.0 705.0,474.0 705.0,477.0 714.0,477.0 714.0,468.0 705.0,468.0 705.0,474.0 717.0,474.0 717.0,468.0 714.0,468.0 714.0,465.0 717.0,465.0 717.0,459.0 714.0,459.0 714.0,456.0 705.0,456.0 705.0,465.0 714.0,465.0 714.0,459.0 702.0,459.0 z"/>
<path d="M 720.0,459.0 720.0,474.0 735.0,474.0 735.0,468.0 723.0,468.0 723.0,477.0 732.0,477.0 732.0,465.0 723.0,465.0 723.0,456.0 732.0,456.0 732.0,462.0 735.0,462.0 735.0,459.0 720.0,459.0 z"/>
<path d="M 504.0,483.0 504.0,486.0 507.0,486.0 507.0,483.0 516.0,483.0 516.0,489.0 510.0,489.0 510.0,492.0 507.0,492.0 507.0,495.0 504.0,495.0 504.0,501.0 519.0,501.0 519.0,498.0 507.0,498.0 507.0,495.0 510.0,495.0 510.0,492.0 516.0,492.0 516.0,489.0 519.0,489.0 519.0,483.0 516.0,483.0 516.0,480.0 507.0,480.0 507.0,483.0 504.0,483.0 z"/>
<path d="M 522.0,480.0 522.0,483.0 525.0,483.0 525.0,498.0 522.0,498.0 522.0,501.0 531.0,501.0 531.0,498.0 528.0,498.0 528.0,480.0 522.0,480.0 z"/>
<path d="M 534.0,483.0 534.0,498.0 549.0,498.0 549.0,492.0 537.0,492.0 537.0,501.0 546.0,501.0 546.0,489.0 537.0,489.0 537.0,480.0 546.0,480.0 546.0,486.0 549.0,486.0 549.0,483.0 534.0,483.0 z"/>
<path d="M 552.0,483.0 552.0,498.0 555.0,498.0 555.0,501.0 564.0,501.0 564.0,498.0 567.0,498.0 567.0,483.0 564.0,483.0 564.0,480.0 555.0,480.0 555.0,498.0 564.0,498.0 564.0,483.0 552.0,483.0 z"/>
<path d="M 570.0,480.0 570.0,501.0 573.0,501.0 573.0,492.0 582.0,492.0 582.0,489.0 573.0,489.0 573.0,483.0 585.0,483.0 585.0,480.0 570.0,480.0 z"/>
<path d="M 588.0,483.0 588.0,498.0 603.0,498.0 603.0,495.0 600.0,495.0 600.0,501.0 591.0,501.0 591.0,480.0 600.0,480.0 600.0,486.0 603.0,486.0 603.0,483.0 588.0,483.0 z"/>
<path d="M 606.0,483.0 606.0,498.0 621.0,498.0 621.0,495.0 618.0,495.0 618.0,501.0 609.0,501.0 609.0,480.0 618.0,480.0 618.0,486.0 621.0,486.0 621.0,483.0 606.0,483.0 z"/>
<path d="M 624.0,483.0 624.0,498.0 627.0,498.0 627.0,501.0 636.0,501.0 636.0,498.0 639.0,498.0 639.0,483.0 636.0,483.0 636.0,480.0 627.0,480.0 627.0,498.0 636.0,498.0 636.0,483.0 624.0,483.0 z"/>
<path d="M 642.0,483.0 642.0,486.0 645.0,486.0 645.0,483.0 654.0,483.0 654.0,489.0 648.0,489.0 648.0,492.0 654.0,492.0 654.0,498.0 645.0,498.0 645.0,495.0 642.0,495.0 642.0,498.0 645.0,498.0 645.0,501.0 654.0,501.0 654.0,498.0 657.0,498.0 657.0,492.0 654.0,492.0 654.0,489.0 657.0,489.0 657.0,483.0 654.0,483.0 654.0,480.0 645.0,480.0 645.0,483.0 642.0,483.0 z"/>
<path d="M 660.0,483.0 660.0,498.0 675.0,498.0 675.0,492.0 663.0,492.0 663.0,501.0 672.0,501.0 672.0,489.0 663.0,489.0 663.0,480.0 672.0,480.0 672.0,486.0 675.0,486.0 675.0,483.0 660.0,483.0 z"/>
<path d="M 810.0,384.0 810.0,405.0 825.0,405.0 825.0,402.0 813.0,402.0 813.0,396.0 822.0,396.0 822.0,393.0 813.0,393.0 813.0,387.0 825.0,387.0 825.0,384.0 810.0,384.0 z"/>
<path d="M 828.0,384.0 828.0,390.0 831.0,390.0 831.0,387.0 840.0,387.0 840.0,393.0 837.0,393.0 837.0,399.0 834.0,399.0 834.0,405.0 837.0,405.0 837.0,399.0 840.0,399.0 840.0,393.0 843.0,393.0 843.0,384.0 828.0,384.0 z"/>
<path d="M 798.0,408.0 798.0,429.0 801.0,429.0 801.0,420.0 810.0,420.0 810.0,417.0 801.0,417.0 801.0,411.0 813.0,411.0 813.0,408.0 798.0,408.0 z"/>
<path d="M 816.0,411.0 816.0,426.0 819.0,426.0 819.0,429.0 828.0,429.0 828.0,426.0 831.0,426.0 831.0,411.0 828.0,411.0 828.0,408.0 819.0,408.0 819.0,426.0 828.0,426.0 828.0,411.0 816.0,411.0 z"/>
<path d="M 834.0,408.0 834.0,414.0 837.0,414.0 837.0,411.0 846.0,411.0 846.0,417.0 843.0,417.0 843.0,423.0 840.0,423.0 840.0,429.0 843.0,429.0 843.0,423.0 846.0,423.0 846.0,417.0 849.0,417.0 849.0,408.0 834.0,408.0 z"/>
<path d="M 792.0,432.0 792.0,453.0 795.0,453.0 795.0,444.0 804.0,444.0 804.0,441.0 795.0,441.0 795.0,435.0 807.0,435.0 807.0,432.0 792.0,432.0 z"/>
<path d="M 810.0,432.0 810.0,453.0 825.0,453.0 825.0,450.0 813.0,450.0 813.0,444.0 822.0,444.0 822.0,441.0 813.0,441.0 813.0,435.0 825.0,435.0 825.0,432.0 810.0,432.0 z"/>
<path d="M 828.0,432.0 828.0,453.0 840.0,453.0 840.0,450.0 843.0,450.0 843.0,444.0 831.0,444.0 831.0,450.0 840.0,450.0 840.0,435.0 831.0,435.0 831.0,441.0 843.0,441.0 843.0,435.0 840.0,435.0 840.0,432.0 828.0,432.0 z"/>
<path d="M 846.0,432.0 846.0,453.0 858.0,453.0 858.0,450.0 861.0,450.0 861.0,444.0 849.0,444.0 849.0,450.0 858.0,450.0 858.0,435.0 849.0,435.0 849.0,441.0 861.0,441.0 861.0,435.0 858.0,435.0 858.0,432.0 846.0,432.0 z"/>
<path d="M 798.0,456.0 798.0,477.0 810.0,477.0 810.0,459.0 801.0,459.0 801.0,474.0 813.0,474.0 813.0,459.0 810.0,459.0 810.0,456.0 798.0,456.0 z"/>
<path d="M 816.0,456.0 816.0,477.0 819.0,477.0 819.0,468.0 828.0,468.0 828.0,465.0 819.0,465.0 819.0,459.0 831.0,459.0 831.0,456.0 816.0,456.0 z"/>
<path d="M 834.0,459.0 834.0,462.0 837.0,462.0 837.0,459.0 846.0,459.0 846.0,465.0 840.0,465.0 840.0,468.0 837.0,468.0 837.0,471.0 834.0,471.0 834.0,477.0 849.0,477.0 849.0,474.0 837.0,474.0 837.0,471.0 840.0,471.0 840.0,468.0 846.0,468.0 846.0,465.0 849.0,465.0 849.0,459.0 846.0,459.0 846.0,456.0 837.0,456.0 837.0,459.0 834.0,459.0 z"/>
<path d="M 852.0,459.0 852.0,462.0 855.0,462.0 855.0,459.0 864.0,459.0 864.0,465.0 858.0,465.0 858.0,468.0 855.0,468.0 855.0,471.0 852.0,471.0 852.0,477.0 867.0,477.0 867.0,474.0 855.0,474.0 855.0,471.0 858.0,471.0 858.0,468.0 864.0,468.0 864.0,465.0 867.0,465.0 867.0,459.0 864.0,459.0 864.0,456.0 855.0,456.0 855.0,459.0 852.0,459.0 z"/>
<path d="M 792.0,480.0 792.0,489.0 795.0,489.0 795.0,492.0 804.0,492.0 804.0,498.0 795.0,498.0 795.0,495.0 792.0,495.0 792.0,498.0 795.0,498.0 795.0,501.0 804.0,501.0 804.0,498.0 807.0,498.0 807.0,492.0 804.0,492.0 804.0,489.0 795.0,489.0 795.0,483.0 807.0,483.0 807.0,480.0 792.0,480.0 z"/>
<path d="M 810.0,480.0 810.0,501.0 825.0,501.0 825.0,498.0 813.0,498.0 813.0,492.0 822.0,492.0 822.0,489.0 813.0,489.0 813.0,483.0 825.0,483.0 825.0,480.0 810.0,480.0 z"/>
<path d="M 828.0,480.0 828.0,501.0 840.0,501.0 840.0,498.0 843.0,498.0 843.0,492.0 831.0,492.0 831.0,498.0 840.0,498.0 840.0,483.0 831.0,483.0 831.0,489.0 843.0,489.0 843.0,483.0 840.0,483.0 840.0,480.0 828.0,480.0 z"/>
<path d="M 846.0,483.0 846.0,489.0 849.0,489.0 849.0,492.0 846.0,492.0 846.0,498.0 849.0,498.0 849.0,501.0 858.0,501.0 858.0,492.0 849.0,492.0 849.0,498.0 861.0,498.0 861.0,492.0 858.0,492.0 858.0,489.0 861.0,489.0 861.0,483.0 858.0,483.0 858.0,480.0 849.0,480.0 849.0,489.0 858.0,489.0 858.0,483.0 846.0,483.0 z"/>
<path d="M 810.0,504.0 810.0,510.0 813.0,510.0 813.0,507.0 822.0,507.0 822.0,513.0 819.0,513.0 819.0,519.0 816.0,519.0 816.0,525.0 819.0,525.0 819.0,519.0 822.0,519.0 822.0,513.0 825.0,513.0 825.0,504.0 810.0,504.0 z"/>
<path d="M 828.0,504.0 828.0,525.0 831.0,525.0 831.0,516.0 840.0,516.0 840.0,513.0 831.0,513.0 831.0,507.0 843.0,507.0 843.0,504.0 828.0,504.0 z"/>
<path d="M 846.0,507.0 846.0,513.0 849.0,513.0 849.0,516.0 846.0,516.0 846.0,522.0 849.0,522.0 849.0,525.0 858.0,525.0 858.0,516.0 849.0,516.0 849.0,522.0 861.0,522.0 861.0,516.0 858.0,516.0 858.0,513.0 861.0,513.0 861.0,507.0 858.0,507.0 858.0,504.0 849.0,504.0 849.0,513.0 858.0,513.0 858.0,507.0 846.0,507.0 z"/>
<path d="M 864.0,507.0 864.0,513.0 867.0,513.0 867.0,516.0 867.0,516.0 876.0,516.0 876.0,522.0 867.0,522.0 867.0,519.0 864.0,519.0 864.0,522.0 867.0,522.0 867.0,525.0 876.0,525.0 876.0,522.0 879.0,522.0 879.0,507.0 876.0,507.0 876.0,504.0 867.0,504.0 867.0,513.0 876.0,513.0 876.0,507.0 864.0,507.0 z"/>
<path d="M 882.0,504.0 882.0,510.0 885.0,510.0 885.0,507.0 894.0,507.0 894.0,513.0 891.0,513.0 891.0,519.0 888.0,519.0 888.0,525.0 891.0,525.0 891.0,519.0 894.0,519.0 894.0,513.0 897.0,513.0 897.0,504.0 882.0,504.0 z"/>
<path d="M 822.0,531.0 822.0,549.0 825.0,549.0 825.0,540.0 834.0,540.0 834.0,549.0 837.0,549.0 837.0,531.0 834.0,531.0 834.0,528.0 825.0,528.0 825.0,537.0 834.0,537.0 834.0,531.0 822.0,531.0 z"/>
<path d="M 840.0,528.0 840.0,534.0 843.0,534.0 843.0,531.0 852.0,531.0 852.0,537.0 849.0,537.0 849.0,543.0 846.0,543.0 846.0,549.0 849.0,549.0 849.0,543.0 852.0,543.0 852.0,537.0 855.0,537.0 855.0,528.0 840.0,528.0 z"/>
<path d="M 858.0,531.0 858.0,534.0 861.0,534.0 861.0,531.0 870.0,531.0 870.0,537.0 864.0,537.0 864.0,540.0 861.0,540.0 861.0,543.0 858.0,543.0 858.0,549.0 873.0,549.0 873.0,546.0 861.0,546.0 861.0,543.0 864.0,543.0 864.0,540.0 870.0,540.0 870.0,537.0 873.0,537.0 873.0,531.0 870.0,531.0 870.0,528.0 861.0,528.0 861.0,531.0 858.0,531.0 z"/>
<path d="M 876.0,531.0 876.0,546.0 879.0,546.0 879.0,549.0 888.0,549.0 888.0,546.0 891.0,546.0 891.0,531.0 888.0,531.0 888.0,528.0 879.0,528.0 879.0,546.0 888.0,546.0 888.0,531.0 876.0,531.0 z"/>
<path d="M 894.0,528.0 894.0,549.0 897.0,549.0 897.0,540.0 906.0,540.0 906.0,537.0 897.0,537.0 897.0,531.0 909.0,531.0 909.0,528.0 894.0,528.0 z"/>
<path d="M 840.0,555.0 840.0,561.0 843.0,561.0 843.0,564.0 840.0,564.0 840.0,570.0 843.0,570.0 843.0,573.0 852.0,573.0 852.0,564.0 843.0,564.0 843.0,570.0 855.0,570.0 855.0,564.0 852.0,564.0 852.0,561.0 855.0,561.0 855.0,555.0 852.0,555.0 852.0,552.0 843.0,552.0 843.0,561.0 852.0,561.0 852.0,555.0 840.0,555.0 z"/>
<path d="M 858.0,552.0 858.0,573.0 861.0,573.0 861.0,564.0 870.0,564.0 870.0,561.0 861.0,561.0 861.0,555.0 873.0,555.0 873.0,552.0 858.0,552.0 z"/>
<path d="M 876.0,552.0 876.0,561.0 879.0,561.0 879.0,564.0 888.0,564.0 888.0,570.0 879.0,570.0 879.0,567.0 876.0,567.0 876.0,570.0 879.0,570.0 879.0,573.0 888.0,573.0 888.0,570.0 891.0,570.0 891.0,564.0 888.0,564.0 888.0,561.0 879.0,561.0 879.0,555.0 891.0,555.0 891.0,552.0 876.0,552.0 z"/>
<path d="M 894.0,552.0 894.0,573.0 897.0,573.0 897.0,564.0 906.0,564.0 906.0,561.0 897.0,561.0 897.0,555.0 909.0,555.0 909.0,552.0 894.0,552.0 z"/>
<path d="M 828.0,576.0 828.0,585.0 831.0,585.0 831.0,588.0 840.0,588.0 840.0,594.0 831.0,594.0 831.0,591.0 828.0,591.0 828.0,594.0 831.0,594.0 831.0,597.0 840.0,597.0 840.0,594.0 843.0,594.0 843.0,588.0 840.0,588.0 840.0,585.0 831.0,585.0 831.0,579.0 843.0,579.0 843.0,576.0 828.0,576.0 z"/>
<path d="M 846.0,579.0 846.0,582.0 849.0,582.0 849.0,579.0 858.0,579.0 858.0,585.0 852.0,585.0 852.0,588.0 858.0,588.0 858.0,594.0 849.0,594.0 849.0,591.0 846.0,591.0 846.0,594.0 849.0,594.0 849.0,597.0 858.0,597.0 858.0,594.0 861.0,594.0 861.0,588.0 858.0,588.0 858.0,585.0 861.0,585.0 861.0,579.0 858.0,579.0 858.0,576.0 849.0,576.0 849.0,579.0 846.0,579.0 z"/>
<path d="M 882.0,576.0 882.0,597.0 885.0,597.0 885.0,588.0 894.0,588.0 894.0,585.0 885.0,585.0 885.0,579.0 897.0,579.0 897.0,576.0 882.0,576.0 z"/>
<path d="M 900.0,579.0 900.0,585.0 903.0,585.0 903.0,588.0 903.0,588.0 912.0,588.0 912.0,594.0 903.0,594.0 903.0,591.0 900.0,591.0 900.0,594.0 903.0,594.0 903.0,597.0 912.0,597.0 912.0,594.0 915.0,594.0 915.0,579.0 912.0,579.0 912.0,576.0 903.0,576.0 903.0,585.0 912.0,585.0 912.0,579.0 900.0,579.0 z"/>
<path d="M 828.0,600.0 828.0,621.0 840.0,621.0 840.0,603.0 831.0,603.0 831.0,618.0 843.0,618.0 843.0,603.0 840.0,603.0 840.0,600.0 828.0,600.0 z"/>
<path d="M 846.0,603.0 846.0,618.0 861.0,618.0 861.0,612.0 849.0,612.0 849.0,621.0 858.0,621.0 858.0,609.0 849.0,609.0 849.0,600.0 858.0,600.0 858.0,606.0 861.0,606.0 861.0,603.0 846.0,603.0 z"/>
<path d="M 882.0,600.0 882.0,621.0 897.0,621.0 897.0,618.0 885.0,618.0 885.0,612.0 894.0,612.0 894.0,609.0 885.0,609.0 885.0,603.0 897.0,603.0 897.0,600.0 882.0,600.0 z"/>
<path d="M 900.0,600.0 900.0,603.0 903.0,603.0 903.0,618.0 900.0,618.0 900.0,621.0 909.0,621.0 909.0,618.0 906.0,618.0 906.0,600.0 900.0,600.0 z"/>
<path d="M 816.0,627.0 816.0,642.0 819.0,642.0 819.0,645.0 828.0,645.0 828.0,642.0 831.0,642.0 831.0,627.0 828.0,627.0 828.0,624.0 819.0,624.0 819.0,642.0 828.0,642.0 828.0,627.0 816.0,627.0 z"/>
<path d="M 834.0,624.0 834.0,645.0 837.0,645.0 837.0,636.0 846.0,636.0 846.0,633.0 837.0,633.0 837.0,627.0 849.0,627.0 849.0,624.0 834.0,624.0 z"/>
<path d="M 786.0,651.0 786.0,654.0 789.0,654.0 789.0,651.0 798.0,651.0 798.0,657.0 792.0,657.0 792.0,660.0 789.0,660.0 789.0,663.0 786.0,663.0 786.0,669.0 801.0,669.0 801.0,666.0 789.0,666.0 789.0,663.0 792.0,663.0 792.0,660.0 798.0,660.0 798.0,657.0 801.0,657.0 801.0,651.0 798.0,651.0 798.0,648.0 789.0,648.0 789.0,651.0 786.0,651.0 z"/>
<path d="M 804.0,648.0 804.0,669.0 816.0,669.0 816.0,651.0 807.0,651.0 807.0,666.0 819.0,666.0 819.0,651.0 816.0,651.0 816.0,648.0 804.0,648.0 z"/>
<path d="M 822.0,651.0 822.0,666.0 837.0,666.0 837.0,663.0 834.0,663.0 834.0,669.0 825.0,669.0 825.0,648.0 834.0,648.0 834.0,654.0 837.0,654.0 837.0,651.0 822.0,651.0 z"/>
<path d="M 840.0,651.0 840.0,666.0 843.0,666.0 843.0,669.0 852.0,669.0 852.0,666.0 855.0,666.0 855.0,651.0 852.0,651.0 852.0,648.0 843.0,648.0 843.0,666.0 852.0,666.0 852.0,651.0 840.0,651.0 z"/>
<path d="M 684.0,672.0 684.0,693.0 699.0,693.0 699.0,690.0 687.0,690.0 687.0,684.0 696.0,684.0 696.0,681.0 687.0,681.0 687.0,675.0 699.0,675.0 699.0,672.0 684.0,672.0 z"/>
<path d="M 702.0,672.0 702.0,693.0 705.0,693.0 705.0,684.0 714.0,684.0 714.0,681.0 705.0,681.0 705.0,675.0 717.0,675.0 717.0,672.0 702.0,672.0 z"/>
<path d="M 720.0,675.0 720.0,678.0 723.0,678.0 723.0,675.0 732.0,675.0 732.0,681.0 726.0,681.0 726.0,684.0 732.0,684.0 732.0,690.0 723.0,690.0 723.0,687.0 720.0,687.0 720.0,690.0 723.0,690.0 723.0,693.0 732.0,693.0 732.0,690.0 735.0,690.0 735.0,684.0 732.0,684.0 732.0,681.0 735.0,681.0 735.0,675.0 732.0,675.0 732.0,672.0 723.0,672.0 723.0,675.0 720.0,675.0 z"/>
<path d="M 792.0,672.0 792.0,681.0 795.0,681.0 795.0,684.0 804.0,684.0 804.0,690.0 795.0,690.0 795.0,687.0 792.0,687.0 792.0,690.0 795.0,690.0 795.0,693.0 804.0,693.0 804.0,690.0 807.0,690.0 807.0,684.0 804.0,684.0 804.0,681.0 795.0,681.0 795.0,675.0 807.0,675.0 807.0,672.0 792.0,672.0 z"/>
<path d="M 810.0,675.0 810.0,678.0 813.0,678.0 813.0,675.0 822.0,675.0 822.0,681.0 816.0,681.0 816.0,684.0 822.0,684.0 822.0,690.0 813.0,690.0 813.0,687.0 810.0,687.0 810.0,690.0 813.0,690.0 813.0,693.0 822.0,693.0 822.0,690.0 825.0,690.0 825.0,684.0 822.0,684.0 822.0,681.0 825.0,681.0 825.0,675.0 822.0,675.0 822.0,672.0 813.0,672.0 813.0,675.0 810.0,675.0 z"/>
<path d="M 828.0,675.0 828.0,681.0 831.0,681.0 831.0,684.0 828.0,684.0 828.0,690.0 831.0,690.0 831.0,693.0 840.0,693.0 840.0,684.0 831.0,684.0 831.0,690.0 843.0,690.0 843.0,684.0 840.0,684.0 840.0,681.0 843.0,681.0 843.0,675.0 840.0,675.0 840.0,672.0 831.0,672.0 831.0,681.0 840.0,681.0 840.0,675.0 828.0,675.0 z"/>
<path d="M 792.0,696.0 792.0,717.0 804.0,717.0 804.0,714.0 807.0,714.0 807.0,708.0 795.0,708.0 795.0,714.0 804.0,714.0 804.0,699.0 795.0,699.0 795.0,705.0 807.0,705.0 807.0,699.0 804.0,699.0 804.0,696.0 792.0,696.0 z"/>
<path d="M 810.0,696.0 810.0,702.0 813.0,702.0 813.0,699.0 822.0,699.0 822.0,705.0 819.0,705.0 819.0,711.0 816.0,711.0 816.0,717.0 819.0,717.0 819.0,711.0 822.0,711.0 822.0,705.0 825.0,705.0 825.0,696.0 810.0,696.0 z"/>
<path d="M 816.0,768.0 816.0,789.0 828.0,789.0 828.0,786.0 831.0,786.0 831.0,780.0 819.0,780.0 819.0,786.0 828.0,786.0 828.0,771.0 819.0,771.0 819.0,777.0 831.0,777.0 831.0,771.0 828.0,771.0 828.0,768.0 816.0,768.0 z"/>
<path d="M 810.0,795.0 810.0,801.0 813.0,801.0 813.0,804.0 810.0,804.0 810.0,810.0 813.0,810.0 813.0,813.0 822.0,813.0 822.0,804.0 813.0,804.0 813.0,810.0 825.0,810.0 825.0,804.0 822.0,804.0 822.0,801.0 825.0,801.0 825.0,795.0 822.0,795.0 822.0,792.0 813.0,792.0 813.0,801.0 822.0,801.0 822.0,795.0 810.0,795.0 z"/>
<path d="M 780.0,867.0 780.0,873.0 783.0,873.0 783.0,876.0 780.0,876.0 780.0,882.0 783.0,882.0 783.0,885.0 792.0,885.0 792.0,876.0 783.0,876.0 783.0,882.0 795.0,882.0 795.0,876.0 792.0,876.0 792.0,873.0 795.0,873.0 795.0,867.0 792.0,867.0 792.0,864.0 783.0,864.0 783.0,873.0 792.0,873.0 792.0,867.0 780.0,867.0 z"/>
<path d="M 720.0,888.0 720.0,909.0 735.0,909.0 735.0,906.0 723.0,906.0 723.0,900.0 732.0,900.0 732.0,897.0 723.0,897.0 723.0,891.0 735.0,891.0 735.0,888.0 720.0,888.0 z"/>
<path d="M 756.0,891.0 756.0,906.0 771.0,906.0 771.0,900.0 759.0,900.0 759.0,909.0 768.0,909.0 768.0,897.0 759.0,897.0 759.0,888.0 768.0,888.0 768.0,894.0 771.0,894.0 771.0,891.0 756.0,891.0 z"/>
<path d="M 696.0,915.0 696.0,930.0 711.0,930.0 711.0,924.0 699.0,924.0 699.0,933.0 708.0,933.0 708.0,921.0 699.0,921.0 699.0,912.0 708.0,912.0 708.0,918.0 711.0,918.0 711.0,915.0 696.0,915.0 z"/>
<path d="M 714.0,912.0 714.0,915.0 717.0,915.0 717.0,930.0 714.0,930.0 714.0,933.0 723.0,933.0 723.0,930.0 720.0,930.0 720.0,912.0 714.0,912.0 z"/>
<path d="M 726.0,915.0 726.0,921.0 729.0,921.0 729.0,924.0 726.0,924.0 726.0,930.0 729.0,930.0 729.0,933.0 738.0,933.0 738.0,924.0 729.0,924.0 729.0,930.0 741.0,930.0 741.0,924.0 738.0,924.0 738.0,921.0 741.0,921.0 741.0,915.0 738.0,915.0 738.0,912.0 729.0,912.0 729.0,921.0 738.0,921.0 738.0,915.0 726.0,915.0 z"/>
<path d="M 744.0,915.0 744.0,918.0 747.0,918.0 747.0,915.0 756.0,915.0 756.0,921.0 750.0,921.0 750.0,924.0 747.0,924.0 747.0,927.0 744.0,927.0 744.0,933.0 759.0,933.0 759.0,930.0 747.0,930.0 747.0,927.0 750.0,927.0 750.0,924.0 756.0,924.0 756.0,921.0 759.0,921.0 759.0,915.0 756.0,915.0 756.0,912.0 747.0,912.0 747.0,915.0 744.0,915.0 z"/>
<path d="M 684.0,936.0 684.0,957.0 699.0,957.0 699.0,954.0 687.0,954.0 687.0,948.0 696.0,948.0 696.0,945.0 687.0,945.0 687.0,939.0 699.0,939.0 699.0,936.0 684.0,936.0 z"/>
<path d="M 702.0,939.0 702.0,954.0 717.0,954.0 717.0,948.0 705.0,948.0 705.0,957.0 714.0,957.0 714.0,945.0 705.0,945.0 705.0,936.0 714.0,936.0 714.0,942.0 717.0,942.0 717.0,939.0 702.0,939.0 z"/>
<path d="M 372.0,336.0 372.0,345.0 375.0,345.0 375.0,348.0 384.0,348.0 384.0,354.0 375.0,354.0 375.0,351.0 372.0,351.0 372.0,354.0 375.0,354.0 375.0,357.0 384.0,357.0 384.0,354.0 387.0,354.0 387.0,348.0 384.0,348.0 384.0,345.0 375.0,345.0 375.0,339.0 387.0,339.0 387.0,336.0 372.0,336.0 z"/>
<path d="M 366.0,360.0 366.0,366.0 369.0,366.0 369.0,363.0 378.0,363.0 378.0,369.0 375.0,369.0 375.0,375.0 372.0,375.0 372.0,381.0 375.0,381.0 375.0,375.0 378.0,375.0 378.0,369.0 381.0,369.0 381.0,360.0 366.0,360.0 z"/>
<path d="M 384.0,363.0 384.0,378.0 399.0,378.0 399.0,372.0 387.0,372.0 387.0,381.0 396.0,381.0 396.0,369.0 387.0,369.0 387.0,360.0 396.0,360.0 396.0,366.0 399.0,366.0 399.0,363.0 384.0,363.0 z"/>
<path d="M 354.0,384.0 354.0,405.0 369.0,405.0 369.0,402.0 357.0,402.0 357.0,396.0 366.0,396.0 366.0,393.0 357.0,393.0 357.0,387.0 369.0,387.0 369.0,384.0 354.0,384.0 z"/>
<path d="M 372.0,384.0 372.0,405.0 384.0,405.0 384.0,402.0 387.0,402.0 387.0,396.0 375.0,396.0 375.0,402.0 384.0,402.0 384.0,387.0 375.0,387.0 375.0,393.0 387.0,393.0 387.0,387.0 384.0,387.0 384.0,384.0 372.0,384.0 z"/>
<path d="M 390.0,387.0 390.0,390.0 393.0,390.0 393.0,387.0 402.0,387.0 402.0,393.0 396.0,393.0 396.0,396.0 402.0,396.0 402.0,402.0 393.0,402.0 393.0,399.0 390.0,399.0 390.0,402.0 393.0,402.0 393.0,405.0 402.0,405.0 402.0,402.0 405.0,402.0 405.0,396.0 402.0,396.0 402.0,393.0 405.0,393.0 405.0,387.0 402.0,387.0 402.0,384.0 393.0,384.0 393.0,387.0 390.0,387.0 z"/>
<path d="M 348.0,411.0 348.0,426.0 363.0,426.0 363.0,420.0 351.0,420.0 351.0,429.0 360.0,429.0 360.0,417.0 351.0,417.0 351.0,408.0 360.0,408.0 360.0,414.0 363.0,414.0 363.0,411.0 348.0,411.0 z"/>
<path d="M 366.0,408.0 366.0,411.0 369.0,411.0 369.0,426.0 366.0,426.0 366.0,429.0 375.0,429.0 375.0,426.0 372.0,426.0 372.0,408.0 366.0,408.0 z"/>
<path d="M 378.0,408.0 378.0,429.0 393.0,429.0 393.0,426.0 381.0,426.0 381.0,420.0 390.0,420.0 390.0,417.0 381.0,417.0 381.0,411.0 393.0,411.0 393.0,408.0 378.0,408.0 z"/>
<path d="M 396.0,411.0 396.0,426.0 411.0,426.0 411.0,420.0 399.0,420.0 399.0,429.0 408.0,429.0 408.0,417.0 399.0,417.0 399.0,408.0 408.0,408.0 408.0,414.0 411.0,414.0 411.0,411.0 396.0,411.0 z"/>
<path d="M 336.0,432.0 336.0,435.0 339.0,435.0 339.0,450.0 336.0,450.0 336.0,453.0 345.0,453.0 345.0,450.0 342.0,450.0 342.0,432.0 336.0,432.0 z"/>
<path d="M 348.0,435.0 348.0,453.0 351.0,453.0 351.0,444.0 360.0,444.0 360.0,453.0 363.0,453.0 363.0,435.0 360.0,435.0 360.0,432.0 351.0,432.0 351.0,441.0 360.0,441.0 360.0,435.0 348.0,435.0 z"/>
<path d="M 366.0,435.0 366.0,450.0 381.0,450.0 381.0,447.0 378.0,447.0 378.0,453.0 369.0,453.0 369.0,432.0 378.0,432.0 378.0,438.0 381.0,438.0 381.0,435.0 366.0,435.0 z"/>
<path d="M 384.0,432.0 384.0,453.0 387.0,453.0 387.0,444.0 396.0,444.0 396.0,441.0 387.0,441.0 387.0,435.0 399.0,435.0 399.0,432.0 384.0,432.0 z"/>
<path d="M 342.0,456.0 342.0,465.0 345.0,465.0 345.0,468.0 354.0,468.0 354.0,474.0 345.0,474.0 345.0,471.0 342.0,471.0 342.0,474.0 345.0,474.0 345.0,477.0 354.0,477.0 354.0,474.0 357.0,474.0 357.0,468.0 354.0,468.0 354.0,465.0 345.0,465.0 345.0,459.0 357.0,459.0 357.0,456.0 342.0,456.0 z"/>
<path d="M 360.0,459.0 360.0,462.0 363.0,462.0 363.0,459.0 372.0,459.0 372.0,465.0 366.0,465.0 366.0,468.0 372.0,468.0 372.0,474.0 363.0,474.0 363.0,471.0 360.0,471.0 360.0,474.0 363.0,474.0 363.0,477.0 372.0,477.0 372.0,474.0 375.0,474.0 375.0,468.0 372.0,468.0 372.0,465.0 375.0,465.0 375.0,459.0 372.0,459.0 372.0,456.0 363.0,456.0 363.0,459.0 360.0,459.0 z"/>
<path d="M 378.0,459.0 378.0,462.0 381.0,462.0 381.0,459.0 390.0,459.0 390.0,465.0 384.0,465.0 384.0,468.0 381.0,468.0 381.0,471.0 378.0,471.0 378.0,477.0 393.0,477.0 393.0,474.0 381.0,474.0 381.0,471.0 384.0,471.0 384.0,468.0 390.0,468.0 390.0,465.0 393.0,465.0 393.0,459.0 390.0,459.0 390.0,456.0 381.0,456.0 381.0,459.0 378.0,459.0 z"/>
<path d="M 396.0,459.0 396.0,462.0 399.0,462.0 399.0,459.0 408.0,459.0 408.0,465.0 402.0,465.0 402.0,468.0 399.0,468.0 399.0,471.0 396.0,471.0 396.0,477.0 411.0,477.0 411.0,474.0 399.0,474.0 399.0,471.0 402.0,471.0 402.0,468.0 408.0,468.0 408.0,465.0 411.0,465.0 411.0,459.0 408.0,459.0 408.0,456.0 399.0,456.0 399.0,459.0 396.0,459.0 z"/>
<path d="M 342.0,480.0 342.0,501.0 354.0,501.0 354.0,483.0 345.0,483.0 345.0,498.0 357.0,498.0 357.0,483.0 354.0,483.0 354.0,480.0 342.0,480.0 z"/>
<path d="M 360.0,483.0 360.0,498.0 375.0,498.0 375.0,492.0 363.0,492.0 363.0,501.0 372.0,501.0 372.0,489.0 363.0,489.0 363.0,480.0 372.0,480.0 372.0,486.0 375.0,486.0 375.0,483.0 360.0,483.0 z"/>
<path d="M 378.0,480.0 378.0,501.0 390.0,501.0 390.0,483.0 381.0,483.0 381.0,498.0 393.0,498.0 393.0,483.0 390.0,483.0 390.0,480.0 378.0,480.0 z"/>
<path d="M 396.0,483.0 396.0,498.0 411.0,498.0 411.0,492.0 399.0,492.0 399.0,501.0 408.0,501.0 408.0,489.0 399.0,489.0 399.0,480.0 408.0,480.0 408.0,486.0 411.0,486.0 411.0,483.0 396.0,483.0 z"/>
<path d="M 288.0,504.0 288.0,525.0 303.0,525.0 303.0,522.0 291.0,522.0 291.0,516.0 300.0,516.0 300.0,513.0 291.0,513.0 291.0,507.0 303.0,507.0 303.0,504.0 288.0,504.0 z"/>
<path d="M 306.0,507.0 306.0,522.0 321.0,522.0 321.0,516.0 309.0,516.0 309.0,525.0 318.0,525.0 318.0,513.0 309.0,513.0 309.0,504.0 318.0,504.0 318.0,510.0 321.0,510.0 321.0,507.0 306.0,507.0 z"/>
<path d="M 324.0,507.0 324.0,513.0 327.0,513.0 327.0,516.0 324.0,516.0 324.0,522.0 327.0,522.0 327.0,525.0 336.0,525.0 336.0,516.0 327.0,516.0 327.0,522.0 339.0,522.0 339.0,516.0 336.0,516.0 336.0,513.0 339.0,513.0 339.0,507.0 336.0,507.0 336.0,504.0 327.0,504.0 327.0,513.0 336.0,513.0 336.0,507.0 324.0,507.0 z"/>
<path d="M 342.0,507.0 342.0,513.0 345.0,513.0 345.0,516.0 342.0,516.0 342.0,522.0 345.0,522.0 345.0,525.0 354.0,525.0 354.0,516.0 345.0,516.0 345.0,522.0 357.0,522.0 357.0,516.0 354.0,516.0 354.0,513.0 357.0,513.0 357.0,507.0 354.0,507.0 354.0,504.0 345.0,504.0 345.0,513.0 354.0,513.0 354.0,507.0 342.0,507.0 z"/>
<path d="M 360.0,507.0 360.0,525.0 363.0,525.0 363.0,516.0 372.0,516.0 372.0,525.0 375.0,525.0 375.0,507.0 372.0,507.0 372.0,504.0 363.0,504.0 363.0,513.0 372.0,513.0 372.0,507.0 360.0,507.0 z"/>
<path d="M 300.0,531.0 300.0,546.0 303.0,546.0 303.0,549.0 312.0,549.0 312.0,546.0 315.0,546.0 315.0,531.0 312.0,531.0 312.0,528.0 303.0,528.0 303.0,546.0 312.0,546.0 312.0,531.0 300.0,531.0 z"/>
<path d="M 318.0,531.0 318.0,546.0 333.0,546.0 333.0,543.0 330.0,543.0 330.0,549.0 321.0,549.0 321.0,528.0 330.0,528.0 330.0,534.0 333.0,534.0 333.0,531.0 318.0,531.0 z"/>
<path d="M 336.0,528.0 336.0,540.0 345.0,540.0 345.0,549.0 348.0,549.0 348.0,540.0 351.0,540.0 351.0,537.0 348.0,537.0 348.0,528.0 345.0,528.0 345.0,537.0 339.0,537.0 339.0,528.0 336.0,528.0 z"/>
<path d="M 354.0,528.0 354.0,549.0 369.0,549.0 369.0,546.0 357.0,546.0 357.0,540.0 366.0,540.0 366.0,537.0 357.0,537.0 357.0,531.0 369.0,531.0 369.0,528.0 354.0,528.0 z"/>
<path d="M 282.0,552.0 282.0,561.0 285.0,561.0 285.0,564.0 294.0,564.0 294.0,570.0 285.0,570.0 285.0,567.0 282.0,567.0 282.0,570.0 285.0,570.0 285.0,573.0 294.0,573.0 294.0,570.0 297.0,570.0 297.0,564.0 294.0,564.0 294.0,561.0 285.0,561.0 285.0,555.0 297.0,555.0 297.0,552.0 282.0,552.0 z"/>
<path d="M 300.0,555.0 300.0,573.0 303.0,573.0 303.0,564.0 312.0,564.0 312.0,573.0 315.0,573.0 315.0,555.0 312.0,555.0 312.0,552.0 303.0,552.0 303.0,561.0 312.0,561.0 312.0,555.0 300.0,555.0 z"/>
<path d="M 318.0,552.0 318.0,573.0 330.0,573.0 330.0,570.0 333.0,570.0 333.0,564.0 321.0,564.0 321.0,570.0 330.0,570.0 330.0,555.0 321.0,555.0 321.0,561.0 333.0,561.0 333.0,555.0 330.0,555.0 330.0,552.0 318.0,552.0 z"/>
<path d="M 336.0,555.0 336.0,561.0 339.0,561.0 339.0,564.0 336.0,564.0 336.0,570.0 339.0,570.0 339.0,573.0 348.0,573.0 348.0,564.0 339.0,564.0 339.0,570.0 351.0,570.0 351.0,564.0 348.0,564.0 348.0,561.0 351.0,561.0 351.0,555.0 348.0,555.0 348.0,552.0 339.0,552.0 339.0,561.0 348.0,561.0 348.0,555.0 336.0,555.0 z"/>
<path d="M 354.0,552.0 354.0,573.0 366.0,573.0 366.0,570.0 369.0,570.0 369.0,564.0 357.0,564.0 357.0,570.0 366.0,570.0 366.0,555.0 357.0,555.0 357.0,561.0 369.0,561.0 369.0,555.0 366.0,555.0 366.0,552.0 354.0,552.0 z"/>
<path d="M 300.0,579.0 300.0,594.0 303.0,594.0 303.0,597.0 312.0,597.0 312.0,594.0 315.0,594.0 315.0,579.0 312.0,579.0 312.0,576.0 303.0,576.0 303.0,594.0 312.0,594.0 312.0,579.0 300.0,579.0 z"/>
<path d="M 336.0,576.0 336.0,585.0 339.0,585.0 339.0,588.0 348.0,588.0 348.0,594.0 339.0,594.0 339.0,591.0 336.0,591.0 336.0,594.0 339.0,594.0 339.0,597.0 348.0,597.0 348.0,594.0 351.0,594.0 351.0,588.0 348.0,588.0 348.0,585.0 339.0,585.0 339.0,579.0 351.0,579.0 351.0,576.0 336.0,576.0 z"/>
<path d="M 354.0,576.0 354.0,597.0 357.0,597.0 357.0,588.0 366.0,588.0 366.0,585.0 357.0,585.0 357.0,579.0 369.0,579.0 369.0,576.0 354.0,576.0 z"/>
<path d="M 294.0,603.0 294.0,618.0 297.0,618.0 297.0,621.0 306.0,621.0 306.0,618.0 309.0,618.0 309.0,603.0 306.0,603.0 306.0,600.0 297.0,600.0 297.0,618.0 306.0,618.0 306.0,603.0 294.0,603.0 z"/>
<path d="M 348.0,603.0 348.0,606.0 351.0,606.0 351.0,603.0 360.0,603.0 360.0,609.0 354.0,609.0 354.0,612.0 351.0,612.0 351.0,615.0 348.0,615.0 348.0,621.0 363.0,621.0 363.0,618.0 351.0,618.0 351.0,615.0 354.0,615.0 354.0,612.0 360.0,612.0 360.0,609.0 363.0,609.0 363.0,603.0 360.0,603.0 360.0,600.0 351.0,600.0 351.0,603.0 348.0,603.0 z"/>
<path d="M 366.0,600.0 366.0,603.0 369.0,603.0 369.0,618.0 366.0,618.0 366.0,621.0 375.0,621.0 375.0,618.0 372.0,618.0 372.0,600.0 366.0,600.0 z"/>
<path d="M 354.0,627.0 354.0,630.0 357.0,630.0 357.0,627.0 366.0,627.0 366.0,633.0 360.0,633.0 360.0,636.0 357.0,636.0 357.0,639.0 354.0,639.0 354.0,645.0 369.0,645.0 369.0,642.0 357.0,642.0 357.0,639.0 360.0,639.0 360.0,636.0 366.0,636.0 366.0,633.0 369.0,633.0 369.0,627.0 366.0,627.0 366.0,624.0 357.0,624.0 357.0,627.0 354.0,627.0 z"/>
<path d="M 372.0,624.0 372.0,636.0 381.0,636.0 381.0,645.0 384.0,645.0 384.0,636.0 387.0,636.0 387.0,633.0 384.0,633.0 384.0,624.0 381.0,624.0 381.0,633.0 375.0,633.0 375.0,624.0 372.0,624.0 z"/>
<path d="M 342.0,651.0 342.0,657.0 345.0,657.0 345.0,660.0 342.0,660.0 342.0,666.0 345.0,666.0 345.0,669.0 354.0,669.0 354.0,660.0 345.0,660.0 345.0,666.0 357.0,666.0 357.0,660.0 354.0,660.0 354.0,657.0 357.0,657.0 357.0,651.0 354.0,651.0 354.0,648.0 345.0,648.0 345.0,657.0 354.0,657.0 354.0,651.0 342.0,651.0 z"/>
<path d="M 360.0,651.0 360.0,666.0 363.0,666.0 363.0,669.0 372.0,669.0 372.0,666.0 375.0,666.0 375.0,651.0 372.0,651.0 372.0,648.0 363.0,648.0 363.0,666.0 372.0,666.0 372.0,651.0 360.0,651.0 z"/>
<path d="M 378.0,648.0 378.0,669.0 390.0,669.0 390.0,651.0 381.0,651.0 381.0,666.0 393.0,666.0 393.0,651.0 390.0,651.0 390.0,648.0 378.0,648.0 z"/>
<path d="M 396.0,648.0 396.0,651.0 399.0,651.0 399.0,666.0 396.0,666.0 396.0,669.0 405.0,669.0 405.0,666.0 402.0,666.0 402.0,648.0 396.0,648.0 z"/>
<path d="M 408.0,648.0 408.0,669.0 420.0,669.0 420.0,651.0 411.0,651.0 411.0,666.0 423.0,666.0 423.0,651.0 420.0,651.0 420.0,648.0 408.0,648.0 z"/>
<path d="M 354.0,675.0 354.0,681.0 357.0,681.0 357.0,684.0 357.0,684.0 366.0,684.0 366.0,690.0 357.0,690.0 357.0,687.0 354.0,687.0 354.0,690.0 357.0,690.0 357.0,693.0 366.0,693.0 366.0,690.0 369.0,690.0 369.0,675.0 366.0,675.0 366.0,672.0 357.0,672.0 357.0,681.0 366.0,681.0 366.0,675.0 354.0,675.0 z"/>
<path d="M 372.0,672.0 372.0,675.0 375.0,675.0 375.0,690.0 372.0,690.0 372.0,693.0 381.0,693.0 381.0,690.0 378.0,690.0 378.0,672.0 372.0,672.0 z"/>
<path d="M 384.0,672.0 384.0,678.0 387.0,678.0 387.0,675.0 396.0,675.0 396.0,681.0 393.0,681.0 393.0,687.0 390.0,687.0 390.0,693.0 393.0,693.0 393.0,687.0 396.0,687.0 396.0,681.0 399.0,681.0 399.0,672.0 384.0,672.0 z"/>
<path d="M 486.0,675.0 486.0,681.0 489.0,681.0 489.0,684.0 486.0,684.0 486.0,690.0 489.0,690.0 489.0,693.0 498.0,693.0 498.0,684.0 489.0,684.0 489.0,690.0 501.0,690.0 501.0,684.0 498.0,684.0 498.0,681.0 501.0,681.0 501.0,675.0 498.0,675.0 498.0,672.0 489.0,672.0 489.0,681.0 498.0,681.0 498.0,675.0 486.0,675.0 z"/>
<path d="M 504.0,672.0 504.0,678.0 507.0,678.0 507.0,675.0 516.0,675.0 516.0,681.0 513.0,681.0 513.0,687.0 510.0,687.0 510.0,693.0 513.0,693.0 513.0,687.0 516.0,687.0 516.0,681.0 519.0,681.0 519.0,672.0 504.0,672.0 z"/>
<path d="M 384.0,699.0 384.0,705.0 387.0,705.0 387.0,708.0 384.0,708.0 384.0,714.0 387.0,714.0 387.0,717.0 396.0,717.0 396.0,708.0 387.0,708.0 387.0,714.0 399.0,714.0 399.0,708.0 396.0,708.0 396.0,705.0 399.0,705.0 399.0,699.0 396.0,699.0 396.0,696.0 387.0,696.0 387.0,705.0 396.0,705.0 396.0,699.0 384.0,699.0 z"/>
<path d="M 564.0,768.0 564.0,789.0 579.0,789.0 579.0,786.0 567.0,786.0 567.0,780.0 576.0,780.0 576.0,777.0 567.0,777.0 567.0,771.0 579.0,771.0 579.0,768.0 564.0,768.0 z"/>
<path d="M 618.0,768.0 618.0,789.0 633.0,789.0 633.0,786.0 621.0,786.0 621.0,780.0 630.0,780.0 630.0,777.0 621.0,777.0 621.0,771.0 633.0,771.0 633.0,768.0 618.0,768.0 z"/>
<path d="M 582.0,792.0 582.0,813.0 594.0,813.0 594.0,795.0 585.0,795.0 585.0,810.0 597.0,810.0 597.0,795.0 594.0,795.0 594.0,792.0 582.0,792.0 z"/>
<path d="M 600.0,795.0 600.0,798.0 603.0,798.0 603.0,795.0 612.0,795.0 612.0,801.0 606.0,801.0 606.0,804.0 612.0,804.0 612.0,810.0 603.0,810.0 603.0,807.0 600.0,807.0 600.0,810.0 603.0,810.0 603.0,813.0 612.0,813.0 612.0,810.0 615.0,810.0 615.0,804.0 612.0,804.0 612.0,801.0 615.0,801.0 615.0,795.0 612.0,795.0 612.0,792.0 603.0,792.0 603.0,795.0 600.0,795.0 z"/>
<path d="M 618.0,792.0 618.0,813.0 630.0,813.0 630.0,795.0 621.0,795.0 621.0,810.0 633.0,810.0 633.0,795.0 630.0,795.0 630.0,792.0 618.0,792.0 z"/>
<path d="M 570.0,891.0 570.0,906.0 585.0,906.0 585.0,903.0 582.0,903.0 582.0,909.0 573.0,909.0 573.0,888.0 582.0,888.0 582.0,894.0 585.0,894.0 585.0,891.0 570.0,891.0 z"/>
<path d="M 588.0,891.0 588.0,894.0 591.0,894.0 591.0,891.0 600.0,891.0 600.0,897.0 594.0,897.0 594.0,900.0 591.0,900.0 591.0,903.0 588.0,903.0 588.0,909.0 603.0,909.0 603.0,906.0 591.0,906.0 591.0,903.0 594.0,903.0 594.0,900.0 600.0,900.0 600.0,897.0 603.0,897.0 603.0,891.0 600.0,891.0 600.0,888.0 591.0,888.0 591.0,891.0 588.0,891.0 z"/>
<path d="M 606.0,891.0 606.0,897.0 609.0,897.0 609.0,900.0 609.0,900.0 618.0,900.0 618.0,906.0 609.0,906.0 609.0,903.0 606.0,903.0 606.0,906.0 609.0,906.0 609.0,909.0 618.0,909.0 618.0,906.0 621.0,906.0 621.0,891.0 618.0,891.0 618.0,888.0 609.0,888.0 609.0,897.0 618.0,897.0 618.0,891.0 606.0,891.0 z"/>
<path d="M 372.0,747.0 372.0,762.0 387.0,762.0 387.0,756.0 375.0,756.0 375.0,765.0 384.0,765.0 384.0,753.0 375.0,753.0 375.0,744.0 384.0,744.0 384.0,750.0 387.0,750.0 387.0,747.0 372.0,747.0 z"/>
<path d="M 372.0,771.0 372.0,774.0 375.0,774.0 375.0,771.0 384.0,771.0 384.0,777.0 378.0,777.0 378.0,780.0 384.0,780.0 384.0,786.0 375.0,786.0 375.0,783.0 372.0,783.0 372.0,786.0 375.0,786.0 375.0,789.0 384.0,789.0 384.0,786.0 387.0,786.0 387.0,780.0 384.0,780.0 384.0,777.0 387.0,777.0 387.0,771.0 384.0,771.0 384.0,768.0 375.0,768.0 375.0,771.0 372.0,771.0 z"/>
<path d="M 390.0,768.0 390.0,789.0 402.0,789.0 402.0,771.0 393.0,771.0 393.0,786.0 405.0,786.0 405.0,771.0 402.0,771.0 402.0,768.0 390.0,768.0 z"/>
<path d="M 384.0,792.0 384.0,801.0 387.0,801.0 387.0,804.0 396.0,804.0 396.0,810.0 387.0,810.0 387.0,807.0 384.0,807.0 384.0,810.0 387.0,810.0 387.0,813.0 396.0,813.0 396.0,810.0 399.0,810.0 399.0,804.0 396.0,804.0 396.0,801.0 387.0,801.0 387.0,795.0 399.0,795.0 399.0,792.0 384.0,792.0 z"/>
<path d="M 402.0,792.0 402.0,801.0 405.0,801.0 405.0,804.0 414.0,804.0 414.0,810.0 405.0,810.0 405.0,807.0 402.0,807.0 402.0,810.0 405.0,810.0 405.0,813.0 414.0,813.0 414.0,810.0 417.0,810.0 417.0,804.0 414.0,804.0 414.0,801.0 405.0,801.0 405.0,795.0 417.0,795.0 417.0,792.0 402.0,792.0 z"/>
<path d="M 384.0,816.0 384.0,825.0 387.0,825.0 387.0,828.0 396.0,828.0 396.0,834.0 387.0,834.0 387.0,831.0 384.0,831.0 384.0,834.0 387.0,834.0 387.0,837.0 396.0,837.0 396.0,834.0 399.0,834.0 399.0,828.0 396.0,828.0 396.0,825.0 387.0,825.0 387.0,819.0 399.0,819.0 399.0,816.0 384.0,816.0 z"/>
<path d="M 402.0,816.0 402.0,819.0 405.0,819.0 405.0,834.0 402.0,834.0 402.0,837.0 411.0,837.0 411.0,834.0 408.0,834.0 408.0,816.0 402.0,816.0 z"/>
<path d="M 396.0,840.0 396.0,861.0 399.0,861.0 399.0,852.0 408.0,852.0 408.0,849.0 399.0,849.0 399.0,843.0 411.0,843.0 411.0,840.0 396.0,840.0 z"/>
<path d="M 414.0,843.0 414.0,858.0 417.0,858.0 417.0,861.0 426.0,861.0 426.0,858.0 429.0,858.0 429.0,843.0 426.0,843.0 426.0,840.0 417.0,840.0 417.0,858.0 426.0,858.0 426.0,843.0 414.0,843.0 z"/>
<path d="M 408.0,864.0 408.0,876.0 417.0,876.0 417.0,885.0 420.0,885.0 420.0,876.0 423.0,876.0 423.0,873.0 420.0,873.0 420.0,864.0 417.0,864.0 417.0,873.0 411.0,873.0 411.0,864.0 408.0,864.0 z"/>
<path d="M 438.0,891.0 438.0,894.0 441.0,894.0 441.0,891.0 450.0,891.0 450.0,897.0 444.0,897.0 444.0,900.0 441.0,900.0 441.0,903.0 438.0,903.0 438.0,909.0 453.0,909.0 453.0,906.0 441.0,906.0 441.0,903.0 444.0,903.0 444.0,900.0 450.0,900.0 450.0,897.0 453.0,897.0 453.0,891.0 450.0,891.0 450.0,888.0 441.0,888.0 441.0,891.0 438.0,891.0 z"/>
<path d="M 456.0,891.0 456.0,909.0 459.0,909.0 459.0,900.0 468.0,900.0 468.0,909.0 471.0,909.0 471.0,891.0 468.0,891.0 468.0,888.0 459.0,888.0 459.0,897.0 468.0,897.0 468.0,891.0 456.0,891.0 z"/>
<path d="M 456.0,912.0 456.0,915.0 459.0,915.0 459.0,930.0 456.0,930.0 456.0,933.0 465.0,933.0 465.0,930.0 462.0,930.0 462.0,912.0 456.0,912.0 z"/>
<path d="M 468.0,912.0 468.0,918.0 471.0,918.0 471.0,915.0 480.0,915.0 480.0,921.0 477.0,921.0 477.0,927.0 474.0,927.0 474.0,933.0 477.0,933.0 477.0,927.0 480.0,927.0 480.0,921.0 483.0,921.0 483.0,912.0 468.0,912.0 z"/>
<path d="M 492.0,939.0 492.0,954.0 507.0,954.0 507.0,948.0 495.0,948.0 495.0,957.0 504.0,957.0 504.0,945.0 495.0,945.0 495.0,936.0 504.0,936.0 504.0,942.0 507.0,942.0 507.0,939.0 492.0,939.0 z"/>
<path d="M 582.0,576.0 582.0,597.0 597.0,597.0 597.0,594.0 585.0,594.0 585.0,588.0 594.0,588.0 594.0,585.0 585.0,585.0 585.0,579.0 597.0,579.0 597.0,576.0 582.0,576.0 z"/>
<path d="M 606.0,603.0 606.0,618.0 621.0,618.0 621.0,612.0 609.0,612.0 609.0,621.0 618.0,621.0 618.0,609.0 609.0,609.0 609.0,600.0 618.0,600.0 618.0,606.0 621.0,606.0 621.0,603.0 606.0,603.0 z"/>
<path d="M 588.0,624.0 588.0,627.0 591.0,627.0 591.0,642.0 588.0,642.0 588.0,645.0 597.0,645.0 597.0,642.0 594.0,642.0 594.0,624.0 588.0,624.0 z"/>
<path d="M 600.0,627.0 600.0,642.0 603.0,642.0 603.0,645.0 612.0,645.0 612.0,642.0 615.0,642.0 615.0,627.0 612.0,627.0 612.0,624.0 603.0,624.0 603.0,642.0 612.0,642.0 612.0,627.0 600.0,627.0 z"/>
<path d="M 570.0,651.0 570.0,669.0 573.0,669.0 573.0,660.0 582.0,660.0 582.0,669.0 585.0,669.0 585.0,651.0 582.0,651.0 582.0,648.0 573.0,648.0 573.0,657.0 582.0,657.0 582.0,651.0 570.0,651.0 z"/>
<path d="M 588.0,648.0 588.0,669.0 600.0,669.0 600.0,666.0 603.0,666.0 603.0,660.0 591.0,660.0 591.0,666.0 600.0,666.0 600.0,651.0 591.0,651.0 591.0,657.0 603.0,657.0 603.0,651.0 600.0,651.0 600.0,648.0 588.0,648.0 z"/>
<path d="M 606.0,651.0 606.0,666.0 609.0,666.0 609.0,669.0 618.0,669.0 618.0,666.0 621.0,666.0 621.0,651.0 618.0,651.0 618.0,648.0 609.0,648.0 609.0,666.0 618.0,666.0 618.0,651.0 606.0,651.0 z"/>
<path d="M 570.0,672.0 570.0,693.0 582.0,693.0 582.0,675.0 573.0,675.0 573.0,690.0 585.0,690.0 585.0,675.0 582.0,675.0 582.0,672.0 570.0,672.0 z"/>
<path d="M 588.0,672.0 588.0,693.0 600.0,693.0 600.0,675.0 591.0,675.0 591.0,690.0 603.0,690.0 603.0,675.0 600.0,675.0 600.0,672.0 588.0,672.0 z"/>
<path d="M 606.0,675.0 606.0,690.0 609.0,690.0 609.0,693.0 618.0,693.0 618.0,690.0 621.0,690.0 621.0,675.0 618.0,675.0 618.0,672.0 609.0,672.0 609.0,690.0 618.0,690.0 618.0,675.0 606.0,675.0 z"/>
<path d="M 564.0,696.0 564.0,717.0 576.0,717.0 576.0,699.0 567.0,699.0 567.0,714.0 579.0,714.0 579.0,699.0 576.0,699.0 576.0,696.0 564.0,696.0 z"/>
<path d="M 582.0,696.0 582.0,717.0 597.0,717.0 597.0,714.0 585.0,714.0 585.0,708.0 594.0,708.0 594.0,705.0 585.0,705.0 585.0,699.0 597.0,699.0 597.0,696.0 582.0,696.0 z"/>
<path d="M 600.0,699.0 600.0,705.0 603.0,705.0 603.0,708.0 603.0,708.0 612.0,708.0 612.0,714.0 603.0,714.0 603.0,711.0 600.0,711.0 600.0,714.0 603.0,714.0 603.0,717.0 612.0,717.0 612.0,714.0 615.0,714.0 615.0,699.0 612.0,699.0 612.0,696.0 603.0,696.0 603.0,705.0 612.0,705.0 612.0,699.0 600.0,699.0 z"/>
<path d="M 618.0,699.0 618.0,702.0 621.0,702.0 621.0,699.0 630.0,699.0 630.0,705.0 624.0,705.0 624.0,708.0 630.0,708.0 630.0,714.0 621.0,714.0 621.0,711.0 618.0,711.0 618.0,714.0 621.0,714.0 621.0,717.0 630.0,717.0 630.0,714.0 633.0,714.0 633.0,708.0 630.0,708.0 630.0,705.0 633.0,705.0 633.0,699.0 630.0,699.0 630.0,696.0 621.0,696.0 621.0,699.0 618.0,699.0 z"/>
<path d="M 636.0,720.0 636.0,726.0 639.0,726.0 639.0,723.0 648.0,723.0 648.0,729.0 645.0,729.0 645.0,735.0 642.0,735.0 642.0,741.0 645.0,741.0 645.0,735.0 648.0,735.0 648.0,729.0 651.0,729.0 651.0,720.0 636.0,720.0 z"/>
</g></svg>