<svg height="1200" width="1200" 
xmlns="http://www.w3.org/2000/svg" xmlns:svg="http://www.w3.org/2000/svg" xmlns:xlink="http://www.w3.org/1999/xlink"> 
<g style="stroke:#000000;stroke-width:0.5;fill:none">
<path d="M 600.0,120.0 600.0,160.0 610.0,160.0 610.0,150.0 620.0,150.0 620.0,170.0 630.0,170.0 630.0,150.0 640.0,150.0 640.0,160.0 650.0,160.0 650.0,120.0 600.0,120.0 z"/>
<path d="M 610.0,130.0 610.0,140.0 620.0,140.0 620.0,130.0 610.0,130.0 z"/>
<path d="M 630.0,130.0 630.0,140.0 640.0,140.0 640.0,130.0 630.0,130.0 z"/>
<path d="M 660.0,130.0 660.0,170.0 670.0,170.0 670.0,160.0 680.0,160.0 680.0,170.0 690.0,170.0 690.0,160.0 700.0,160.0 700.0,170.0 710.0,170.0 710.0,130.0 700.0,130.0 700.0,120.0 690.0,120.0 690.0,130.0 660.0,130.0 z"/>
<path d="M 670.0,140.0 670.0,150.0 700.0,150.0 700.0,140.0 670.0,140.0 z"/>
<path d="M 720.0,120.0 720.0,160.0 730.0,160.0 730.0,150.0 740.0,150.0 740.0,170.0 750.0,170.0 750.0,150.0 760.0,150.0 760.0,160.0 770.0,160.0 770.0,120.0 720.0,120.0 z"/>
<path d="M 730.0,130.0 730.0,140.0 740.0,140.0 740.0,130.0 730.0,130.0 z"/>
<path d="M 750.0,130.0 750.0,140.0 760.0,140.0 760.0,130.0 750.0,130.0 z"/>
<path d="M 780.0,130.0 780.0,170.0 790.0,170.0 790.0,160.0 800.0,160.0 800.0,170.0 810.0,170.0 810.0,160.0 820.0,160.0 820.0,170.0 830.0,170.0 830.0,130.0 820.0,130.0 820.0,120.0 810.0,120.0 810.0,130.0 780.0,130.0 z"/>
<path d="M 790.0,140.0 790.0,150.0 820.0,150.0 820.0,140.0 790.0,140.0 z"/>
<path d="M 360.0,190.0 360.0,220.0 370.0,220.0 370.0,230.0 380.0,230.0 380.0,220.0 390.0,220.0 390.0,230.0 400.0,230.0 400.0,220.0 410.0,220.0 410.0,190.0 400.0,190.0 400.0,180.0 370.0,180.0 370.0,190.0 360.0,190.0 z"/>
<path d="M 370.0,200.0 370.0,210.0 380.0,210.0 380.0,200.0 370.0,200.0 z"/>
<path d="M 390.0,200.0 390.0,210.0 400.0,210.0 400.0,200.0 390.0,200.0 z"/>
<path d="M 420.0,190.0 420.0,220.0 430.0,220.0 430.0,230.0 440.0,230.0 440.0,220.0 450.0,220.0 450.0,230.0 460.0,230.0 460.0,220.0 470.0,220.0 470.0,190.0 460.0,190.0 460.0,180.0 430.0,180.0 430.0,190.0 420.0,190.0 z"/>
<path d="M 430.0,200.0 430.0,210.0 440.0,210.0 440.0,200.0 430.0,200.0 z"/>
<path d="M 450.0,200.0 450.0,210.0 460.0,210.0 460.0,200.0 450.0,200.0 z"/>
<path d="M 480.0,190.0 480.0,220.0 490.0,220.0 490.0,230.0 500.0,230.0 500.0,220.0 510.0,220.0 510.0,230.0 520.0,230.0 520.0,220.0 530.0,220.0 530.0,190.0 520.0,190.0 520.0,180.0 490.0,180.0 490.0,190.0 480.0,190.0 z"/>
<path d="M 490.0,200.0 490.0,210.0 500.0,210.0 500.0,200.0 490.0,200.0 z"/>
<path d="M 510.0,200.0 510.0,210.0 520.0,210.0 520.0,200.0 510.0,200.0 z"/>
<path d="M 660.0,180.0 660.0,220.0 670.0,220.0 670.0,210.0 680.0,210.0 680.0,230.0 690.0,230.0 690.0,210.0 700.0,210.0 700.0,220.0 710.0,220.0 710.0,180.0 660.0,180.0 z"/>
<path d="M 670.0,190.0 670.0,200.0 680.0,200.0 680.0,190.0 670.0,190.0 z"/>
<path d="M 690.0,190.0 690.0,200.0 700.0,200.0 700.0,190.0 690.0,190.0 z"/>
<path d="M 720.0,190.0 720.0,230.0 730.0,230.0 730.0,220.0 740.0,220.0 740.0,230.0 750.0,230.0 750.0,220.0 760.0,220.0 760.0,230.0 770.0,230.0 770.0,190.0 760.0,190.0 760.0,180.0 750.0,180.0 750.0,190.0 720.0,190.0 z"/>
<path d="M 730.0,200.0 730.0,210.0 760.0,210.0 760.0,200.0 730.0,200.0 z"/>
<path d="M 780.0,180.0 780.0,220.0 790.0,220.0 790.0,210.0 800.0,210.0 800.0,230.0 810.0,230.0 810.0,210.0 820.0,210.0 820.0,220.0 830.0,220.0 830.0,180.0 780.0,180.0 z"/>
<path d="M 790.0,190.0 790.0,200.0 800.0,200.0 800.0,190.0 790.0,190.0 z"/>
<path d="M 810.0,190.0 810.0,200.0 820.0,200.0 820.0,190.0 810.0,190.0 z"/>
<path d="M 840.0,190.0 840.0,230.0 850.0,230.0 850.0,220.0 860.0,220.0 860.0,230.0 870.0,230.0 870.0,220.0 880.0,220.0 880.0,230.0 890.0,230.0 890.0,190.0 880.0,190.0 880.0,180.0 870.0,180.0 870.0,190.0 840.0,190.0 z"/>
<path d="M 850.0,200.0 850.0,210.0 880.0,210.0 880.0,200.0 850.0,200.0 z"/>
<path d="M 240.0,250.0 240.0,280.0 250.0,280.0 250.0,290.0 260.0,290.0 260.0,280.0 270.0,280.0 270.0,290.0 280.0,290.0 280.0,280.0 290.0,280.0 290.0,250.0 280.0,250.0 280.0,240.0 250.0,240.0 250.0,250.0 240.0,250.0 z"/>
<path d="M 250.0,260.0 250.0,270.0 260.0,270.0 260.0,260.0 250.0,260.0 z"/>
<path d="M 270.0,260.0 270.0,270.0 280.0,270.0 280.0,260.0 270.0,260.0 z"/>
<path d="M 300.0,250.0 300.0,280.0 310.0,280.0 310.0,290.0 320.0,290.0 320.0,280.0 330.0,280.0 330.0,290.0 340.0,290.0 340.0,280.0 350.0,280.0 350.0,250.0 340.0,250.0 340.0,240.0 310.0,240.0 310.0,250.0 300.0,250.0 z"/>
<path d="M 310.0,260.0 310.0,270.0 320.0,270.0 320.0,260.0 310.0,260.0 z"/>
<path d="M 330.0,260.0 330.0,270.0 340.0,270.0 340.0,260.0 330.0,260.0 z"/>
<path d="M 360.0,250.0 360.0,290.0 370.0,290.0 370.0,280.0 380.0,280.0 380.0,290.0 390.0,290.0 390.0,280.0 400.0,280.0 400.0,290.0 410.0,290.0 410.0,250.0 400.0,250.0 400.0,240.0 390.0,240.0 390.0,250.0 360.0,250.0 z"/>
<path d="M 370.0,260.0 370.0,270.0 400.0,270.0 400.0,260.0 370.0,260.0 z"/>
<path d="M 420.0,240.0 420.0,280.0 430.0,280.0 430.0,270.0 440.0,270.0 440.0,290.0 450.0,290.0 450.0,270.0 460.0,270.0 460.0,280.0 470.0,280.0 470.0,240.0 420.0,240.0 z"/>
<path d="M 430.0,250.0 430.0,260.0 440.0,260.0 440.0,250.0 430.0,250.0 z"/>
<path d="M 450.0,250.0 450.0,260.0 460.0,260.0 460.0,250.0 450.0,250.0 z"/>
<path d="M 180.0,310.0 180.0,350.0 190.0,350.0 190.0,340.0 200.0,340.0 200.0,350.0 210.0,350.0 210.0,340.0 220.0,340.0 220.0,350.0 230.0,350.0 230.0,310.0 220.0,310.0 220.0,300.0 210.0,300.0 210.0,310.0 180.0,310.0 z"/>
<path d="M 190.0,320.0 190.0,330.0 220.0,330.0 220.0,320.0 190.0,320.0 z"/>
<path d="M 240.0,310.0 240.0,340.0 250.0,340.0 250.0,350.0 260.0,350.0 260.0,340.0 270.0,340.0 270.0,350.0 280.0,350.0 280.0,340.0 290.0,340.0 290.0,310.0 280.0,310.0 280.0,300.0 250.0,300.0 250.0,310.0 240.0,310.0 z"/>
<path d="M 250.0,320.0 250.0,330.0 260.0,330.0 260.0,320.0 250.0,320.0 z"/>
<path d="M 270.0,320.0 270.0,330.0 280.0,330.0 280.0,320.0 270.0,320.0 z"/>
<path d="M 300.0,300.0 300.0,340.0 310.0,340.0 310.0,330.0 320.0,330.0 320.0,350.0 330.0,350.0 330.0,330.0 340.0,330.0 340.0,340.0 350.0,340.0 350.0,300.0 300.0,300.0 z"/>
<path d="M 310.0,310.0 310.0,320.0 320.0,320.0 320.0,310.0 310.0,310.0 z"/>
<path d="M 330.0,310.0 330.0,320.0 340.0,320.0 340.0,310.0 330.0,310.0 z"/>
<path d="M 360.0,310.0 360.0,340.0 370.0,340.0 370.0,350.0 380.0,350.0 380.0,340.0 390.0,340.0 390.0,350.0 400.0,350.0 400.0,340.0 410.0,340.0 410.0,310.0 400.0,310.0 400.0,300.0 370.0,300.0 370.0,310.0 360.0,310.0 z"/>
<path d="M 370.0,320.0 370.0,330.0 380.0,330.0 380.0,320.0 370.0,320.0 z"/>
<path d="M 390.0,320.0 390.0,330.0 400.0,330.0 400.0,320.0 390.0,320.0 z"/>
<path d="M 780.0,370.0 780.0,400.0 790.0,400.0 790.0,410.0 800.0,410.0 800.0,400.0 810.0,400.0 810.0,410.0 820.0,410.0 820.0,400.0 830.0,400.0 830.0,370.0 820.0,370.0 820.0,360.0 790.0,360.0 790.0,370.0 780.0,370.0 z"/>
<path d="M 790.0,380.0 790.0,390.0 800.0,390.0 800.0,380.0 790.0,380.0 z"/>
<path d="M 810.0,380.0 810.0,390.0 820.0,390.0 820.0,380.0 810.0,380.0 z"/>
<path d="M 840.0,370.0 840.0,400.0 850.0,400.0 850.0,410.0 860.0,410.0 860.0,400.0 870.0,400.0 870.0,410.0 880.0,410.0 880.0,400.0 890.0,400.0 890.0,370.0 880.0,370.0 880.0,360.0 850.0,360.0 850.0,370.0 840.0,370.0 z"/>
<path d="M 850.0,380.0 850.0,390.0 860.0,390.0 860.0,380.0 850.0,380.0 z"/>
<path d="M 870.0,380.0 870.0,390.0 880.0,390.0 880.0,380.0 870.0,380.0 z"/>
<path d="M 900.0,370.0 900.0,400.0 910.0,400.0 910.0,410.0 920.0,410.0 920.0,400.0 930.0,400.0 930.0,410.0 940.0,410.0 940.0,400.0 950.0,400.0 950.0,370.0 940.0,370.0 940.0,360.0 910.0,360.0 910.0,370.0 900.0,370.0 z"/>
<path d="M 910.0,380.0 910.0,390.0 920.0,390.0 920.0,380.0 910.0,380.0 z"/>
<path d="M 930.0,380.0 930.0,390.0 940.0,390.0 940.0,380.0 930.0,380.0 z"/>
<path d="M 780.0,430.0 780.0,470.0 790.0,470.0 790.0,460.0 800.0,460.0 800.0,470.0 810.0,470.0 810.0,460.0 820.0,460.0 820.0,470.0 830.0,470.0 830.0,430.0 820.0,430.0 820.0,420.0 810.0,420.0 810.0,430.0 780.0,430.0 z"/>
<path d="M 790.0,440.0 790.0,450.0 820.0,450.0 820.0,440.0 790.0,440.0 z"/>
<path d="M 840.0,430.0 840.0,460.0 850.0,460.0 850.0,470.0 860.0,470.0 860.0,460.0 870.0,460.0 870.0,470.0 880.0,470.0 880.0,460.0 890.0,460.0 890.0,430.0 880.0,430.0 880.0,420.0 850.0,420.0 850.0,430.0 840.0,430.0 z"/>
<path d="M 850.0,440.0 850.0,450.0 860.0,450.0 860.0,440.0 850.0,440.0 z"/>
<path d="M 870.0,440.0 870.0,450.0 880.0,450.0 880.0,440.0 870.0,440.0 z"/>
<path d="M 900.0,430.0 900.0,460.0 910.0,460.0 910.0,470.0 920.0,470.0 920.0,460.0 930.0,460.0 930.0,470.0 940.0,470.0 940.0,460.0 950.0,460.0 950.0,430.0 940.0,430.0 940.0,420.0 910.0,420.0 910.0,430.0 900.0,430.0 z"/>
<path d="M 910.0,440.0 910.0,450.0 920.0,450.0 920.0,440.0 910.0,440.0 z"/>
<path d="M 930.0,440.0 930.0,450.0 940.0,450.0 940.0,440.0 930.0,440.0 z"/>
<path d="M 960.0,420.0 960.0,460.0 970.0,460.0 970.0,450.0 980.0,450.0 980.0,470.0 990.0,470.0 990.0,450.0 1000.0,450.0 1000.0,460.0 1010.0,460.0 1010.0,420.0 960.0,420.0 z"/>
<path d="M 970.0,430.0 970.0,440.0 980.0,440.0 980.0,430.0 970.0,430.0 z"/>
<path d="M 990.0,430.0 990.0,440.0 1000.0,440.0 1000.0,430.0 990.0,430.0 z"/>
<path d="M 840.0,490.0 840.0,520.0 850.0,520.0 850.0,530.0 860.0,530.0 860.0,520.0 870.0,520.0 870.0,530.0 880.0,530.0 880.0,520.0 890.0,520.0 890.0,490.0 880.0,490.0 880.0,480.0 850.0,480.0 850.0,490.0 840.0,490.0 z"/>
<path d="M 850.0,500.0 850.0,510.0 860.0,510.0 860.0,500.0 850.0,500.0 z"/>
<path d="M 870.0,500.0 870.0,510.0 880.0,510.0 880.0,500.0 870.0,500.0 z"/>
<path d="M 900.0,490.0 900.0,520.0 910.0,520.0 910.0,530.0 920.0,530.0 920.0,520.0 930.0,520.0 930.0,530.0 940.0,530.0 940.0,520.0 950.0,520.0 950.0,490.0 940.0,490.0 940.0,480.0 910.0,480.0 910.0,490.0 900.0,490.0 z"/>
<path d="M 910.0,500.0 910.0,510.0 920.0,510.0 920.0,500.0 910.0,500.0 z"/>
<path d="M 930.0,500.0 930.0,510.0 940.0,510.0 940.0,500.0 930.0,500.0 z"/>
<path d="M 180.0,550.0 180.0,580.0 190.0,580.0 190.0,590.0 200.0,590.0 200.0,580.0 210.0,580.0 210.0,590.0 220.0,590.0 220.0,580.0 230.0,580.0 230.0,550.0 220.0,550.0 220.0,540.0 190.0,540.0 190.0,550.0 180.0,550.0 z"/>
<path d="M 190.0,560.0 190.0,570.0 200.0,570.0 200.0,560.0 190.0,560.0 z"/>
<path d="M 210.0,560.0 210.0,570.0 220.0,570.0 220.0,560.0 210.0,560.0 z"/>
<path d="M 240.0,550.0 240.0,580.0 250.0,580.0 250.0,590.0 260.0,590.0 260.0,580.0 270.0,580.0 270.0,590.0 280.0,590.0 280.0,580.0 290.0,580.0 290.0,550.0 280.0,550.0 280.0,540.0 250.0,540.0 250.0,550.0 240.0,550.0 z"/>
<path d="M 250.0,560.0 250.0,570.0 260.0,570.0 260.0,560.0 250.0,560.0 z"/>
<path d="M 270.0,560.0 270.0,570.0 280.0,570.0 280.0,560.0 270.0,560.0 z"/>
<path d="M 300.0,550.0 300.0,590.0 310.0,590.0 310.0,580.0 320.0,580.0 320.0,590.0 330.0,590.0 330.0,580.0 340.0,580.0 340.0,590.0 350.0,590.0 350.0,550.0 340.0,550.0 340.0,540.0 330.0,540.0 330.0,550.0 300.0,550.0 z"/>
<path d="M 310.0,560.0 310.0,570.0 340.0,570.0 340.0,560.0 310.0,560.0 z"/>
<path d="M 240.0,610.0 240.0,640.0 250.0,640.0 250.0,650.0 260.0,650.0 260.0,640.0 270.0,640.0 270.0,650.0 280.0,650.0 280.0,640.0 290.0,640.0 290.0,610.0 280.0,610.0 280.0,600.0 250.0,600.0 250.0,610.0 240.0,610.0 z"/>
<path d="M 250.0,620.0 250.0,630.0 260.0,630.0 260.0,620.0 250.0,620.0 z"/>
<path d="M 270.0,620.0 270.0,630.0 280.0,630.0 280.0,620.0 270.0,620.0 z"/>
<path d="M 300.0,610.0 300.0,650.0 310.0,650.0 310.0,640.0 320.0,640.0 320.0,650.0 330.0,650.0 330.0,640.0 340.0,640.0 340.0,650.0 350.0,650.0 350.0,610.0 340.0,610.0 340.0,600.0 330.0,600.0 330.0,610.0 300.0,610.0 z"/>
<path d="M 310.0,620.0 310.0,630.0 340.0,630.0 340.0,620.0 310.0,620.0 z"/>
<path d="M 360.0,610.0 360.0,650.0 370.0,650.0 370.0,640.0 380.0,640.0 380.0,650.0 390.0,650.0 390.0,640.0 400.0,640.0 400.0,650.0 410.0,650.0 410.0,610.0 400.0,610.0 400.0,600.0 390.0,600.0 390.0,610.0 360.0,610.0 z"/>
<path d="M 370.0,620.0 370.0,630.0 400.0,630.0 400.0,620.0 370.0,620.0 z"/>
<path d="M 840.0,670.0 840.0,700.0 850.0,700.0 850.0,710.0 860.0,710.0 860.0,700.0 870.0,700.0 870.0,710.0 880.0,710.0 880.0,700.0 890.0,700.0 890.0,670.0 880.0,670.0 880.0,660.0 850.0,660.0 850.0,670.0 840.0,670.0 z"/>
<path d="M 850.0,680.0 850.0,690.0 860.0,690.0 860.0,680.0 850.0,680.0 z"/>
<path d="M 870.0,680.0 870.0,690.0 880.0,690.0 880.0,680.0 870.0,680.0 z"/>
<path d="M 900.0,670.0 900.0,700.0 910.0,700.0 910.0,710.0 920.0,710.0 920.0,700.0 930.0,700.0 930.0,710.0 940.0,710.0 940.0,700.0 950.0,700.0 950.0,670.0 940.0,670.0 940.0,660.0 910.0,660.0 910.0,670.0 900.0,670.0 z"/>
<path d="M 910.0,680.0 910.0,690.0 920.0,690.0 920.0,680.0 910.0,680.0 z"/>
<path d="M 930.0,680.0 930.0,690.0 940.0,690.0 940.0,680.0 930.0,680.0 z"/>
<path d="M 300.0,850.0 300.0,890.0 310.0,890.0 310.0,880.0 320.0,880.0 320.0,890.0 330.0,890.0 330.0,880.0 340.0,880.0 340.0,890.0 350.0,890.0 350.0,850.0 340.0,850.0 340.0,840.0 330.0,840.0 330.0,850.0 300.0,850.0 z"/>
<path d="M 310.0,860.0 310.0,870.0 340.0,870.0 340.0,860.0 310.0,860.0 z"/>
<path d="M 360.0,850.0 360.0,890.0 370.0,890.0 370.0,880.0 380.0,880.0 380.0,890.0 390.0,890.0 390.0,880.0 400.0,880.0 400.0,890.0 410.0,890.0 410.0,850.0 400.0,850.0 400.0,840.0 390.0,840.0 390.0,850.0 360.0,850.0 z"/>
<path d="M 370.0,860.0 370.0,870.0 400.0,870.0 400.0,860.0 370.0,860.0 z"/>
<path d="M 780.0,850.0 780.0,890.0 790.0,890.0 790.0,880.0 800.0,880.0 800.0,890.0 810.0,890.0 810.0,880.0 820.0,880.0 820.0,890.0 830.0,890.0 830.0,850.0 820.0,850.0 820.0,840.0 810.0,840.0 810.0,850.0 780.0,850.0 z"/>
<path d="M 790.0,860.0 790.0,870.0 820.0,870.0 820.0,860.0 790.0,860.0 z"/>
<path d="M 840.0,850.0 840.0,880.0 850.0,880.0 850.0,890.0 860.0,890.0 860.0,880.0 870.0,880.0 870.0,890.0 880.0,890.0 880.0,880.0 890.0,880.0 890.0,850.0 880.0,850.0 880.0,840.0 850.0,840.0 850.0,850.0 840.0,850.0 z"/>
<path d="M 850.0,860.0 850.0,870.0 860.0,870.0 860.0,860.0 850.0,860.0 z"/>
<path d="M 870.0,860.0 870.0,870.0 880.0,870.0 880.0,860.0 870.0,860.0 z"/>
<path d="M 900.0,850.0 900.0,880.0 910.0,880.0 910.0,890.0 920.0,890.0 920.0,880.0 930.0,880.0 930.0,890.0 940.0,890.0 940.0,880.0 950.0,880.0 950.0,850.0 940.0,850.0 940.0,840.0 910.0,840.0 910.0,850.0 900.0,850.0 z"/>
<path d="M 910.0,860.0 910.0,870.0 920.0,870.0 920.0,860.0 910.0,860.0 z"/>
<path d="M 930.0,860.0 930.0,870.0 940.0,870.0 940.0,860.0 930.0,860.0 z"/>
<path d="M 240.0,900.0 240.0,940.0 250.0,940.0 250.0,930.0 260.0,930.0 260.0,950.0 270.0,950.0 270.0,930.0 280.0,930.0 280.0,940.0 290.0,940.0 290.0,900.0 240.0,900.0 z"/>
<path d="M 250.0,910.0 250.0,920.0 260.0,920.0 260.0,910.0 250.0,910.0 z"/>
<path d="M 270.0,910.0 270.0,920.0 280.0,920.0 280.0,910.0 270.0,910.0 z"/>
<path d="M 300.0,910.0 300.0,940.0 310.0,940.0 310.0,950.0 320.0,950.0 320.0,940.0 330.0,940.0 330.0,950.0 340.0,950.0 340.0,940.0 350.0,940.0 350.0,910.0 340.0,910.0 340.0,900.0 310.0,900.0 310.0,910.0 300.0,910.0 z"/>
<path d="M 310.0,920.0 310.0,930.0 320.0,930.0 320.0,920.0 310.0,920.0 z"/>
<path d="M 330.0,920.0 330.0,930.0 340.0,930.0 340.0,920.0 330.0,920.0 z"/>
<path d="M 360.0,900.0 360.0,940.0 370.0,940.0 370.0,930.0 380.0,930.0 380.0,950.0 390.0,950.0 390.0,930.0 400.0,930.0 400.0,940.0 410.0,940.0 410.0,900.0 360.0,900.0 z"/>
<path d="M 370.0,910.0 370.0,920.0 380.0,920.0 380.0,910.0 370.0,910.0 z"/>
<path d="M 390.0,910.0 390.0,920.0 400.0,920.0 400.0,910.0 390.0,910.0 z"/>
<path d="M 420.0,900.0 420.0,940.0 430.0,940.0 430.0,930.0 440.0,930.0 440.0,950.0 450.0,950.0 450.0,930.0 460.0,930.0 460.0,940.0 470.0,940.0 470.0,900.0 420.0,900.0 z"/>
<path d="M 430.0,910.0 430.0,920.0 440.0,920.0 440.0,910.0 430.0,910.0 z"/>
<path d="M 450.0,910.0 450.0,920.0 460.0,920.0 460.0,910.0 450.0,910.0 z"/>
<path d="M 720.0,900.0 720.0,940.0 730.0,940.0 730.0,930.0 740.0,930.0 740.0,950.0 750.0,950.0 750.0,930.0 760.0,930.0 760.0,940.0 770.0,940.0 770.0,900.0 720.0,900.0 z"/>
<path d="M 730.0,910.0 730.0,920.0 740.0,920.0 740.0,910.0 730.0,910.0 z"/>
<path d="M 750.0,910.0 750.0,920.0 760.0,920.0 760.0,910.0 750.0,910.0 z"/>
<path d="M 780.0,910.0 780.0,950.0 790.0,950.0 790.0,940.0 800.0,940.0 800.0,950.0 810.0,950.0 810.0,940.0 820.0,940.0 820.0,950.0 830.0,950.0 830.0,910.0 820.0,910.0 820.0,900.0 810.0,900.0 810.0,910.0 780.0,910.0 z"/>
<path d="M 790.0,920.0 790.0,930.0 820.0,930.0 820.0,920.0 790.0,920.0 z"/>
<path d="M 840.0,910.0 840.0,950.0 850.0,950.0 850.0,940.0 860.0,940.0 860.0,950.0 870.0,950.0 870.0,940.0 880.0,940.0 880.0,950.0 890.0,950.0 890.0,910.0 880.0,910.0 880.0,900.0 870.0,900.0 870.0,910.0 840.0,910.0 z"/>
<path d="M 850.0,920.0 850.0,930.0 880.0,930.0 880.0,920.0 850.0,920.0 z"/>
<path d="M 300.0,970.0 300.0,1010.0 310.0,1010.0 310.0,1000.0 320.0,1000.0 320.0,1010.0 330.0,1010.0 330.0,1000.0 340.0,1000.0 340.0,1010.0 350.0,1010.0 350.0,970.0 340.0,970.0 340.0,960.0 330.0,960.0 330.0,970.0 300.0,970.0 z"/>
<path d="M 310.0,980.0 310.0,990.0 340.0,990.0 340.0,980.0 310.0,980.0 z"/>
<path d="M 360.0,970.0 360.0,1010.0 370.0,1010.0 370.0,1000.0 380.0,1000.0 380.0,1010.0 390.0,1010.0 390.0,1000.0 400.0,1000.0 400.0,1010.0 410.0,1010.0 410.0,970.0 400.0,970.0 400.0,960.0 390.0,960.0 390.0,970.0 360.0,970.0 z"/>
<path d="M 370.0,980.0 370.0,990.0 400.0,990.0 400.0,980.0 370.0,980.0 z"/>
<path d="M 420.0,960.0 420.0,1000.0 430.0,1000.0 430.0,990.0 440.0,990.0 440.0,1010.0 450.0,1010.0 450.0,990.0 460.0,990.0 460.0,1000.0 470.0,1000.0 470.0,960.0 420.0,960.0 z"/>
<path d="M 430.0,970.0 430.0,980.0 440.0,980.0 440.0,970.0 430.0,970.0 z"/>
<path d="M 450.0,970.0 450.0,980.0 460.0,980.0 460.0,970.0 450.0,970.0 z"/>
<path d="M 480.0,970.0 480.0,1000.0 490.0,1000.0 490.0,1010.0 500.0,1010.0 500.0,1000.0 510.0,1000.0 510.0,1010.0 520.0,1010.0 520.0,1000.0 530.0,1000.0 530.0,970.0 520.0,970.0 520.0,960.0 490.0,960.0 490.0,970.0 480.0,970.0 z"/>
<path d="M 490.0,980.0 490.0,990.0 500.0,990.0 500.0,980.0 490.0,980.0 z"/>
<path d="M 510.0,980.0 510.0,990.0 520.0,990.0 520.0,980.0 510.0,980.0 z"/>
<path d="M 660.0,970.0 660.0,1010.0 670.0,1010.0 670.0,1000.0 680.0,1000.0 680.0,1010.0 690.0,1010.0 690.0,1000.0 700.0,1000.0 700.0,1010.0 710.0,1010.0 710.0,970.0 700.0,970.0 700.0,960.0 690.0,960.0 690.0,970.0 660.0,970.0 z"/>
<path d="M 670.0,980.0 670.0,990.0 700.0,990.0 700.0,980.0 670.0,980.0 z"/>
<path d="M 720.0,970.0 720.0,1000.0 730.0,1000.0 730.0,1010.0 740.0,1010.0 740.0,1000.0 750.0,1000.0 750.0,1010.0 760.0,1010.0 760.0,1000.0 770.0,1000.0 770.0,970.0 760.0,970.0 760.0,960.0 730.0,960.0 730.0,970.0 720.0,970.0 z"/>
<path d="M 730.0,980.0 730.0,990.0 740.0,990.0 740.0,980.0 730.0,980.0 z"/>
<path d="M 750.0,980.0 750.0,990.0 760.0,990.0 760.0,980.0 750.0,980.0 z"/>
<path d="M 780.0,970.0 780.0,1000.0 790.0,1000.0 790.0,1010.0 800.0,1010.0 800.0,1000.0 810.0,1000.0 810.0,1010.0 820.0,1010.0 820.0,1000.0 830.0,1000.0 830.0,970.0 820.0,970.0 820.0,960.0 790.0,960.0 790.0,970.0 780.0,970.0 z"/>
<path d="M 790.0,980.0 790.0,990.0 800.0,990.0 800.0,980.0 790.0,980.0 z"/>
<path d="M 810.0,980.0 810.0,990.0 820.0,990.0 820.0,980.0 810.0,980.0 z"/>
<path d="M 360.0,1030.0 360.0,1070.0 370.0,1070.0 370.0,1060.0 380.0,1060.0 380.0,1070.0 390.0,1070.0 390.0,1060.0 400.0,1060.0 400.0,1070.0 410.0,1070.0 410.0,1030.0 400.0,1030.0 400.0,1020.0 390.0,1020.0 390.0,1030.0 360.0,1030.0 z"/>
<path d="M 370.0,1040.0 370.0,1050.0 400.0,1050.0 400.0,1040.0 370.0,1040.0 z"/>
<path d="M 420.0,1030.0 420.0,1070.0 430.0,1070.0 430.0,1060.0 440.0,1060.0 440.0,1070.0 450.0,1070.0 450.0,1060.0 460.0,1060.0 460.0,1070.0 470.0,1070.0 470.0,1030.0 460.0,1030.0 460.0,1020.0 450.0,1020.0 450.0,1030.0 420.0,1030.0 z"/>
<path d="M 430.0,1040.0 430.0,1050.0 460.0,1050.0 460.0,1040.0 430.0,1040.0 z"/>
</g></svg>